<svg xmlns="http://www.w3.org/2000/svg" viewBox="0 0 132.26 132.26"><defs><style>.cls-1,.cls-3{fill:#9b9b9b;}.cls-2{fill:#fff;opacity:0.2;}.cls-3{stroke:#9b9b9b;stroke-miterlimit:10;}</style></defs><title>0.7mm_확정_1</title><g id="레이어_2" data-name="레이어 2"><g id="레이어_1-2" data-name="레이어 1"><path class="cls-1" d="M42.32,62.39a37.58,37.58,0,0,1-.53,6.11,20.25,20.25,0,0,1-1.89,5.83,12.29,12.29,0,0,1-3.76,4.41,10,10,0,0,1-6,1.72,10.56,10.56,0,0,1-5.94-1.56,11.22,11.22,0,0,1-3.77-4.11,18.21,18.21,0,0,1-2-5.76,37.44,37.44,0,0,1-.58-6.64,38.29,38.29,0,0,1,.53-6.34,18.7,18.7,0,0,1,1.93-5.83A11.6,11.6,0,0,1,24,46a10.47,10.47,0,0,1,6.08-1.64,10.69,10.69,0,0,1,5.83,1.48,11.39,11.39,0,0,1,3.79,4,19,19,0,0,1,2,5.79A37.88,37.88,0,0,1,42.32,62.39Zm-12.22,13a4.29,4.29,0,0,0,3.23-1.27,8.43,8.43,0,0,0,1.88-3.23,19.61,19.61,0,0,0,.89-4.25c.15-1.54.23-3,.23-4.3s-.06-2.62-.19-4.14A20.45,20.45,0,0,0,35.35,54a8.88,8.88,0,0,0-1.88-3.28,4.38,4.38,0,0,0-3.37-1.32,4.26,4.26,0,0,0-3.25,1.28A8.38,8.38,0,0,0,25,53.89a17.45,17.45,0,0,0-.9,4.22c-.14,1.52-.21,3-.21,4.28s.06,2.65.18,4.16a18.62,18.62,0,0,0,.84,4.25,8.29,8.29,0,0,0,1.83,3.32A4.39,4.39,0,0,0,30.1,75.44Z"/><path class="cls-1" d="M47.34,74.93h6.18v6.74H47.34Z"/><path class="cls-1" d="M62.25,80.23,74.61,50H59.18V44.83h22.3v4Q80,52.45,78.35,56.44c-1.1,2.67-2.21,5.36-3.32,8.09s-2.22,5.42-3.3,8.08-2.12,5.2-3.11,7.62Z"/><path class="cls-1" d="M96.77,49.66H86.69V44.41h26.25v5.25h-10v31H96.77Z"/><path class="cls-1" d="M44,98.09a11.37,11.37,0,0,1-1-1.29,8.67,8.67,0,0,1-.7-1.35A7.11,7.11,0,0,1,41.84,94a8.46,8.46,0,0,1-.14-1.63,9.21,9.21,0,0,1,.15-1.73,6.89,6.89,0,0,1,.45-1.46,7.22,7.22,0,0,1,.73-1.3,14.85,14.85,0,0,1,1-1.26h1.66c-.4.52-.76,1-1.06,1.47a7.81,7.81,0,0,0-.75,1.38,6.32,6.32,0,0,0-.44,1.4,7.2,7.2,0,0,0-.15,1.5,6.92,6.92,0,0,0,.18,1.59A7.57,7.57,0,0,0,44,95.39a9.56,9.56,0,0,0,.74,1.37c.29.45.6.89.94,1.33Z"/><path class="cls-1" d="M53.07,92a9.8,9.8,0,0,1-.13,1.58,5.5,5.5,0,0,1-.49,1.5,3.08,3.08,0,0,1-1,1.14,2.57,2.57,0,0,1-1.56.45,2.74,2.74,0,0,1-1.54-.41,2.83,2.83,0,0,1-1-1.06,4.76,4.76,0,0,1-.51-1.49A9.71,9.71,0,0,1,46.75,92a10.28,10.28,0,0,1,.14-1.64,4.8,4.8,0,0,1,.5-1.51,3,3,0,0,1,1-1.09,2.63,2.63,0,0,1,1.57-.43,2.78,2.78,0,0,1,1.5.38,3,3,0,0,1,1,1,5.1,5.1,0,0,1,.52,1.5A10.06,10.06,0,0,1,53.07,92Zm-3.15,3.37a1.1,1.1,0,0,0,.83-.33,2.34,2.34,0,0,0,.49-.83,5.36,5.36,0,0,0,.23-1.1q.06-.6.06-1.11c0-.32,0-.68-.05-1.07a4.77,4.77,0,0,0-.21-1.1,2.27,2.27,0,0,0-.48-.85,1.26,1.26,0,0,0-1.71,0,2.19,2.19,0,0,0-.48.83,4.69,4.69,0,0,0-.24,1.09c0,.4,0,.76,0,1.11s0,.68,0,1.07a4.77,4.77,0,0,0,.21,1.1,2.32,2.32,0,0,0,.48.86A1.12,1.12,0,0,0,49.92,95.34Z"/><path class="cls-1" d="M54.37,95.21H56V97h-1.6Z"/><path class="cls-1" d="M58.22,96.58l3.19-7.82h-4V87.43h5.76v1l-.81,2-.86,2.09c-.29.7-.57,1.4-.85,2.09s-.55,1.34-.8,2Z"/><path class="cls-1" d="M71.78,89.6a1.92,1.92,0,0,1,1.53.59,2.38,2.38,0,0,1,.51,1.63v4.85H72.23V92.08a1.6,1.6,0,0,0-.17-.84.68.68,0,0,0-.61-.26,1.13,1.13,0,0,0-.45.09,1.65,1.65,0,0,0-.37.2,2.68,2.68,0,0,0-.3.28l-.24.27v4.85h-1.6V92.08c0-.73-.27-1.1-.81-1.1a1.26,1.26,0,0,0-.27,0,1,1,0,0,0-.3.14,4.07,4.07,0,0,0-.36.3,5.21,5.21,0,0,0-.42.51v4.7H64.76V89.78h1.57v.58l.3-.26a1.8,1.8,0,0,1,.35-.24,1.51,1.51,0,0,1,.45-.18A2,2,0,0,1,68,89.6a1.84,1.84,0,0,1,1.79.93c.12-.12.24-.24.37-.35a2.74,2.74,0,0,1,.43-.3,2.49,2.49,0,0,1,1.19-.28Z"/><path class="cls-1" d="M82.77,89.6a1.92,1.92,0,0,1,1.53.59,2.38,2.38,0,0,1,.51,1.63v4.85H83.22V92.08a1.6,1.6,0,0,0-.17-.84.68.68,0,0,0-.61-.26,1.13,1.13,0,0,0-.45.09,1.65,1.65,0,0,0-.37.2,2.68,2.68,0,0,0-.3.28l-.24.27v4.85h-1.6V92.08c0-.73-.27-1.1-.81-1.1a1.26,1.26,0,0,0-.27,0,1,1,0,0,0-.3.14,3,3,0,0,0-.35.3,4.09,4.09,0,0,0-.42.51v4.7H75.75V89.78h1.58v.58l.29-.26a1.8,1.8,0,0,1,.35-.24,1.51,1.51,0,0,1,.45-.18A2,2,0,0,1,79,89.6a1.84,1.84,0,0,1,1.79.93c.12-.12.24-.24.37-.35a2.83,2.83,0,0,1,.44-.3,2.36,2.36,0,0,1,.51-.2A2.67,2.67,0,0,1,82.77,89.6Z"/><path class="cls-1" d="M86.63,97.84c.3-.41.59-.82.85-1.23a10.2,10.2,0,0,0,.71-1.29,7.9,7.9,0,0,0,.45-1.4,7.06,7.06,0,0,0,.17-1.57,8,8,0,0,0-.14-1.5,7.31,7.31,0,0,0-.44-1.4,9.37,9.37,0,0,0-.75-1.38c-.31-.47-.66-.95-1.07-1.47h1.67q.56.65,1,1.26a7.26,7.26,0,0,1,.74,1.3,7.51,7.51,0,0,1,.44,1.46,9.17,9.17,0,0,1,.16,1.73A9.34,9.34,0,0,1,90.27,94a7.11,7.11,0,0,1-.42,1.47,8.73,8.73,0,0,1-.71,1.35,11.24,11.24,0,0,1-1,1.29H86.77Z"/><circle class="cls-2" cx="66.2" cy="66.44" r="61.5"/><path class="cls-3" d="M66.13,131.76a65.63,65.63,0,1,1,65.63-65.63A65.7,65.7,0,0,1,66.13,131.76Zm0-127.58a61.95,61.95,0,1,0,61.94,62A62,62,0,0,0,66.13,4.18Z"/></g></g></svg>