<svg xmlns="http://www.w3.org/2000/svg" viewBox="0 0 132.26 132.26"><defs><style>.cls-1,.cls-2{fill:#454545;}.cls-1{stroke:#454545;stroke-miterlimit:10;}</style></defs><title>1mm_기본_1</title><g id="레이어_2" data-name="레이어 2"><g id="레이어_1-2" data-name="레이어 1"><path class="cls-1" d="M66.13,131.76a65.63,65.63,0,1,1,65.63-65.63A65.7,65.7,0,0,1,66.13,131.76Zm0-127.58a61.95,61.95,0,1,0,61.94,62A62,62,0,0,0,66.13,4.18Z"/><path class="cls-2" d="M49.89,44.59h4.42V80.23h-6V52.63c-.59.5-1.22,1-1.88,1.63s-1.27,1.11-1.79,1.58l-3.12-3.77Z"/><path class="cls-2" d="M74,49.66H63.92V44.41H90.17v5.25h-10v31H74Z"/><path class="cls-2" d="M49.85,98.09a11.37,11.37,0,0,1-1-1.29,8.67,8.67,0,0,1-.7-1.35A7.11,7.11,0,0,1,47.72,94a8.46,8.46,0,0,1-.14-1.63,9.21,9.21,0,0,1,.15-1.73,6.89,6.89,0,0,1,.45-1.46,7.22,7.22,0,0,1,.73-1.3,14.85,14.85,0,0,1,1-1.26h1.66c-.4.52-.76,1-1.06,1.47a7.81,7.81,0,0,0-.75,1.38,6.32,6.32,0,0,0-.44,1.4,7.2,7.2,0,0,0-.15,1.5,6.92,6.92,0,0,0,.18,1.59,7.57,7.57,0,0,0,.51,1.45,9.56,9.56,0,0,0,.74,1.37c.29.45.6.89.94,1.33Z"/><path class="cls-2" d="M55,87.37h1.14v9.21H54.61V89.45l-.49.42-.46.41-.8-1Z"/><path class="cls-2" d="M65.9,89.6a1.92,1.92,0,0,1,1.53.59,2.38,2.38,0,0,1,.51,1.63v4.85H66.35V92.08a1.6,1.6,0,0,0-.17-.84.68.68,0,0,0-.61-.26,1.13,1.13,0,0,0-.45.09,1.65,1.65,0,0,0-.37.2,2.68,2.68,0,0,0-.3.28l-.24.27v4.85h-1.6V92.08c0-.73-.27-1.1-.81-1.1a1.26,1.26,0,0,0-.27,0,1,1,0,0,0-.3.14,4.07,4.07,0,0,0-.36.3q-.18.2-.42.51v4.7H58.88V89.78h1.57v.58l.3-.26a1.8,1.8,0,0,1,.35-.24,1.51,1.51,0,0,1,.45-.18,2,2,0,0,1,.57-.08,1.84,1.84,0,0,1,1.79.93c.12-.12.24-.24.37-.35a2.74,2.74,0,0,1,.43-.3,2.49,2.49,0,0,1,1.19-.28Z"/><path class="cls-2" d="M76.89,89.6a1.92,1.92,0,0,1,1.53.59,2.38,2.38,0,0,1,.51,1.63v4.85H77.34V92.08a1.6,1.6,0,0,0-.17-.84.68.68,0,0,0-.61-.26,1.13,1.13,0,0,0-.45.09,1.65,1.65,0,0,0-.37.2,2.68,2.68,0,0,0-.3.28l-.24.27v4.85H73.6V92.08c0-.73-.27-1.1-.81-1.1a1.26,1.26,0,0,0-.27,0,.85.85,0,0,0-.29.14,2.38,2.38,0,0,0-.36.3,4.09,4.09,0,0,0-.42.51v4.7H69.87V89.78h1.58v.58l.29-.26a1.8,1.8,0,0,1,.35-.24,1.51,1.51,0,0,1,.45-.18,2,2,0,0,1,.57-.08,1.84,1.84,0,0,1,1.79.93l.37-.35a2.83,2.83,0,0,1,.44-.3,2.36,2.36,0,0,1,.51-.2A2.67,2.67,0,0,1,76.89,89.6Z"/><path class="cls-2" d="M80.75,97.84c.3-.41.59-.82.85-1.23a11.63,11.63,0,0,0,.71-1.29,7.9,7.9,0,0,0,.45-1.4,7.06,7.06,0,0,0,.17-1.57,8,8,0,0,0-.14-1.5,7.31,7.31,0,0,0-.44-1.4,9.37,9.37,0,0,0-.75-1.38c-.31-.47-.66-.95-1.07-1.47H82.2c.36.43.7.85,1,1.26a7.26,7.26,0,0,1,.74,1.3,7.51,7.51,0,0,1,.44,1.46,9.21,9.21,0,0,1,.15,1.73A9.36,9.36,0,0,1,84.39,94,7.11,7.11,0,0,1,84,95.45a8.73,8.73,0,0,1-.71,1.35,11.24,11.24,0,0,1-1,1.29H80.89Z"/></g></g></svg>