<svg xmlns="http://www.w3.org/2000/svg" viewBox="0 0 132.26 132.26"><defs><style>.cls-1,.cls-3{fill:#9b9b9b;}.cls-2{fill:#fff;opacity:0.2;}.cls-3{stroke:#9b9b9b;stroke-miterlimit:10;}</style></defs><title>3mm_확정_1</title><g id="레이어_2" data-name="레이어 2"><g id="레이어_1-2" data-name="레이어 1"><path class="cls-1" d="M61,53.33a8.13,8.13,0,0,1-1.49,4.58,12.91,12.91,0,0,1-3.81,3.69,14.88,14.88,0,0,1,4.42,3.32,6.88,6.88,0,0,1,1.76,4.72A10.59,10.59,0,0,1,61,74.17a9.8,9.8,0,0,1-2.72,3.46A13.31,13.31,0,0,1,54,79.81a17.91,17.91,0,0,1-5.52.79,16.66,16.66,0,0,1-3.21-.3,24.29,24.29,0,0,1-2.83-.72A24.8,24.8,0,0,1,40,78.7c-.69-.31-1.26-.59-1.69-.84l1-2.16q.54-1.1,1-2.16c.56.28,1.18.56,1.88.83a16.82,16.82,0,0,0,2.11.7c.72.22,1.42.4,2.12.54a9.49,9.49,0,0,0,1.88.2,10.2,10.2,0,0,0,2.81-.39,7.68,7.68,0,0,0,2.44-1.18,5.64,5.64,0,0,0,1.65-1.93A5.81,5.81,0,0,0,56,69.54,4.45,4.45,0,0,0,55.24,67a5.61,5.61,0,0,0-1.89-1.69,8.84,8.84,0,0,0-2.6-1A14.1,14.1,0,0,0,47.87,64h-3.3V59.46h2.51a11.27,11.27,0,0,0,2.67-.35A9,9,0,0,0,52.38,58a6.73,6.73,0,0,0,2-1.76,4,4,0,0,0,.81-2.47,4,4,0,0,0-1.55-3.41,6.22,6.22,0,0,0-3.88-1.19,7.08,7.08,0,0,0-2.54.4,14.93,14.93,0,0,0-2.43,1,19.18,19.18,0,0,0-2.07,1.24c-.61.41-1,.71-1.28.9q-.69-.93-1.44-1.86l-1.49-1.86a32.38,32.38,0,0,1,3.53-2.36A23.35,23.35,0,0,1,45.64,45a12.67,12.67,0,0,1,4.14-.79,15.11,15.11,0,0,1,4.11.58,12,12,0,0,1,3.6,1.7A9,9,0,0,1,60,49.38,7.87,7.87,0,0,1,61,53.33Z"/><path class="cls-1" d="M76.68,49.66H66.59V44.41H92.84v5.25h-10v31H76.68Z"/><path class="cls-1" d="M49.16,98.09a11.37,11.37,0,0,1-1-1.29,8.67,8.67,0,0,1-.7-1.35A7.11,7.11,0,0,1,47,94a8.46,8.46,0,0,1-.14-1.63A9.21,9.21,0,0,1,47,90.62a6.89,6.89,0,0,1,.45-1.46,7.22,7.22,0,0,1,.73-1.3,14.85,14.85,0,0,1,1-1.26h1.66c-.4.52-.76,1-1.06,1.47a7.81,7.81,0,0,0-.75,1.38,6.32,6.32,0,0,0-.44,1.4,7.2,7.2,0,0,0-.15,1.5,6.92,6.92,0,0,0,.18,1.59,7.57,7.57,0,0,0,.51,1.45,9.56,9.56,0,0,0,.74,1.37c.29.45.6.89.94,1.33Z"/><path class="cls-1" d="M57.9,89.63a2,2,0,0,1-.38,1.18,3.29,3.29,0,0,1-1,1,4.17,4.17,0,0,1,1.14.86,1.79,1.79,0,0,1,.45,1.22A2.78,2.78,0,0,1,57.89,95a2.46,2.46,0,0,1-.71.89,3.41,3.41,0,0,1-1.09.57,4.84,4.84,0,0,1-1.43.2,3.68,3.68,0,0,1-.82-.08,6.69,6.69,0,0,1-.74-.18,5.24,5.24,0,0,1-.61-.23,3.57,3.57,0,0,1-.44-.22l.27-.55.27-.56.48.21a2.94,2.94,0,0,0,.55.18,3.7,3.7,0,0,0,.55.14,2.24,2.24,0,0,0,.48.06,2.58,2.58,0,0,0,.73-.11A2,2,0,0,0,56,95a1.51,1.51,0,0,0,.59-1.21,1.18,1.18,0,0,0-.19-.67,1.39,1.39,0,0,0-.49-.44,2.31,2.31,0,0,0-.67-.24,3.11,3.11,0,0,0-.74-.08h-.85V91.21h.64a2.84,2.84,0,0,0,.69-.09,2.27,2.27,0,0,0,.68-.28,1.64,1.64,0,0,0,.52-.46,1,1,0,0,0,.21-.63,1,1,0,0,0-.4-.88,1.57,1.57,0,0,0-1-.31,1.87,1.87,0,0,0-.65.1,4.59,4.59,0,0,0-.63.27c-.2.11-.38.21-.54.32l-.33.23L52.48,89l-.38-.48a8.49,8.49,0,0,1,.91-.61,6.05,6.05,0,0,1,.92-.43,3,3,0,0,1,1.07-.2,3.82,3.82,0,0,1,1.06.15,3.06,3.06,0,0,1,.93.43,2.38,2.38,0,0,1,.66.75A2,2,0,0,1,57.9,89.63Z"/><path class="cls-1" d="M66.59,89.6a1.92,1.92,0,0,1,1.53.59,2.38,2.38,0,0,1,.51,1.63v4.85H67V92.08a1.6,1.6,0,0,0-.17-.84.68.68,0,0,0-.61-.26,1.13,1.13,0,0,0-.45.09,1.65,1.65,0,0,0-.37.2,2.68,2.68,0,0,0-.3.28l-.24.27v4.85H63.3V92.08c0-.73-.27-1.1-.81-1.1a1.26,1.26,0,0,0-.27,0,1,1,0,0,0-.3.14,4.07,4.07,0,0,0-.36.3q-.18.2-.42.51v4.7H59.57V89.78h1.57v.58l.3-.26a1.8,1.8,0,0,1,.35-.24,1.51,1.51,0,0,1,.45-.18,2,2,0,0,1,.57-.08,1.84,1.84,0,0,1,1.79.93c.12-.12.24-.24.37-.35a2.74,2.74,0,0,1,.43-.3,2.49,2.49,0,0,1,1.19-.28Z"/><path class="cls-1" d="M77.58,89.6a1.92,1.92,0,0,1,1.53.59,2.38,2.38,0,0,1,.51,1.63v4.85H78V92.08a1.6,1.6,0,0,0-.17-.84.68.68,0,0,0-.61-.26,1.13,1.13,0,0,0-.45.09,1.65,1.65,0,0,0-.37.2,2.68,2.68,0,0,0-.3.28l-.24.27v4.85H74.3V92.08c0-.73-.28-1.1-.82-1.1a1.26,1.26,0,0,0-.27,0,.85.85,0,0,0-.29.14,2.38,2.38,0,0,0-.36.3,4.09,4.09,0,0,0-.42.51v4.7H70.56V89.78h1.58v.58l.29-.26a1.8,1.8,0,0,1,.35-.24,1.51,1.51,0,0,1,.45-.18,2,2,0,0,1,.57-.08,1.84,1.84,0,0,1,1.79.93l.37-.35a2.83,2.83,0,0,1,.44-.3,2.36,2.36,0,0,1,.51-.2A2.67,2.67,0,0,1,77.58,89.6Z"/><path class="cls-1" d="M81.44,97.84c.3-.41.59-.82.85-1.23A10.2,10.2,0,0,0,83,95.32a7.9,7.9,0,0,0,.45-1.4,7.06,7.06,0,0,0,.17-1.57,8,8,0,0,0-.14-1.5,7.31,7.31,0,0,0-.44-1.4,9.37,9.37,0,0,0-.75-1.38c-.31-.47-.66-.95-1.07-1.47h1.67q.56.65,1,1.26a7.26,7.26,0,0,1,.74,1.3,7.51,7.51,0,0,1,.44,1.46,9.17,9.17,0,0,1,.16,1.73A9.34,9.34,0,0,1,85.08,94a7.11,7.11,0,0,1-.42,1.47A8.73,8.73,0,0,1,84,96.8a11.24,11.24,0,0,1-1,1.29H81.58Z"/><circle class="cls-2" cx="66.41" cy="66.44" r="61.5"/><path class="cls-3" d="M66.13,131.76a65.63,65.63,0,1,1,65.63-65.63A65.7,65.7,0,0,1,66.13,131.76Zm0-127.58a61.95,61.95,0,1,0,61.94,62A62,62,0,0,0,66.13,4.18Z"/></g></g></svg>