<svg xmlns="http://www.w3.org/2000/svg" viewBox="0 0 132.26 132.26"><defs><style>.cls-1,.cls-2{fill:#9b9b9b;}.cls-1{stroke:#9b9b9b;stroke-miterlimit:10;}.cls-3{fill:#fff;opacity:0.2;}</style></defs><title>4cm_확정_1</title><g id="레이어_2" data-name="레이어 2"><g id="레이어_1-2" data-name="레이어 1"><path class="cls-1" d="M66.13,131.76a65.63,65.63,0,1,1,65.63-65.63A65.7,65.7,0,0,1,66.13,131.76Zm0-127.58a61.95,61.95,0,1,0,61.94,62A62,62,0,0,0,66.13,4.18Z"/><path class="cls-2" d="M34.42,80.23V72H18.91v-3.9L34.28,44.59H40V67.36h5V72H40v8.27Zm0-27-9.2,14.12h9.2Z"/><path class="cls-2" d="M70,78.14a13.44,13.44,0,0,1-4.25,2.27,15.71,15.71,0,0,1-4.9.75A12.21,12.21,0,0,1,55.54,80a12.53,12.53,0,0,1-4.11-3,13.72,13.72,0,0,1-2.68-4.46,15.5,15.5,0,0,1-1-5.43,15.34,15.34,0,0,1,.91-5.3,13.78,13.78,0,0,1,2.62-4.46,12.47,12.47,0,0,1,4.09-3,12.7,12.7,0,0,1,5.48-1.14,15.49,15.49,0,0,1,4.79.74,12.89,12.89,0,0,1,4.23,2.37l-2.65,4.32c-.93-.58-1.89-1.13-2.88-1.62a7.67,7.67,0,0,0-3.49-.75A5.77,5.77,0,0,0,56,60.58a10.49,10.49,0,0,0-1.77,6.5,14.1,14.1,0,0,0,.37,3.23,9.49,9.49,0,0,0,1.16,2.86,6.47,6.47,0,0,0,2.09,2A6,6,0,0,0,61,76a8.37,8.37,0,0,0,2.21-.28A11.51,11.51,0,0,0,65.18,75a10,10,0,0,0,1.44-.79l.93-.66Z"/><path class="cls-2" d="M102.11,53.24c2.64,0,4.61.75,5.93,2.25a9.35,9.35,0,0,1,2,6.34V80.6h-6.18V62.81a6.13,6.13,0,0,0-.65-3.23,2.6,2.6,0,0,0-2.37-1,4.62,4.62,0,0,0-1.72.32,7.68,7.68,0,0,0-1.44.79,9.38,9.38,0,0,0-1.16,1.1l-.93,1V80.6H89.38V62.81q0-4.23-3.16-4.23a3.77,3.77,0,0,0-1,.14,3.53,3.53,0,0,0-1.14.56,7.88,7.88,0,0,0-1.39,1.16,15.71,15.71,0,0,0-1.63,2V80.6H74.93V53.93H81v2.23l1.14-1a7.14,7.14,0,0,1,1.37-.93,8,8,0,0,1,1.72-.7,8.36,8.36,0,0,1,2.23-.27q5,0,6.92,3.57c.46-.46.95-.91,1.44-1.34a9.75,9.75,0,0,1,1.67-1.17,10.41,10.41,0,0,1,2-.76A10.1,10.1,0,0,1,102.11,53.24Z"/><ellipse class="cls-3" cx="66.13" cy="66.13" rx="61.54" ry="61.44"/></g></g></svg>