<svg xmlns="http://www.w3.org/2000/svg" viewBox="0 0 132.26 132.26"><defs><style>.cls-1,.cls-3{fill:#9b9b9b;}.cls-2{fill:#fff;opacity:0.2;}.cls-3{stroke:#9b9b9b;stroke-miterlimit:10;}</style></defs><title>5mm_확정_1</title><g id="레이어_2" data-name="레이어 2"><g id="레이어_1-2" data-name="레이어 1"><path class="cls-1" d="M49.59,57.88a14.43,14.43,0,0,1,4.46.7,12.2,12.2,0,0,1,3.86,2,10.42,10.42,0,0,1,2.69,3.27,9.38,9.38,0,0,1,1,4.44,13.69,13.69,0,0,1-.86,4.95,11.33,11.33,0,0,1-2.48,3.92,11.17,11.17,0,0,1-4,2.53,14.86,14.86,0,0,1-5.39.91,21.12,21.12,0,0,1-5.32-.84,29.14,29.14,0,0,1-4.94-2l2.23-4.5a7.45,7.45,0,0,0,1.81,1.06,17.21,17.21,0,0,0,2.18.79,15.34,15.34,0,0,0,2.09.49q1,.16,1.77.21a8,8,0,0,0,3.53-1.11,7.3,7.3,0,0,0,2.09-2,6.93,6.93,0,0,0,1-2.14,7.8,7.8,0,0,0,.26-1.72,7,7,0,0,0-.84-3.53,5.64,5.64,0,0,0-1.86-2,6.83,6.83,0,0,0-2.32-.77,17.56,17.56,0,0,0-2.09-.16,13.25,13.25,0,0,0-4.09.65l-4,1.3V44.59H60.46v5.25H46.15v8.37A17.31,17.31,0,0,1,49.59,57.88Z"/><path class="cls-1" d="M76.68,49.66H66.59V44.41H92.84v5.25h-10v31H76.68Z"/><path class="cls-1" d="M49.16,98.09a11.37,11.37,0,0,1-1-1.29,8.67,8.67,0,0,1-.7-1.35A7.11,7.11,0,0,1,47,94a8.46,8.46,0,0,1-.14-1.63A9.21,9.21,0,0,1,47,90.62a6.89,6.89,0,0,1,.45-1.46,7.22,7.22,0,0,1,.73-1.3,14.85,14.85,0,0,1,1-1.26h1.66c-.4.52-.76,1-1.06,1.47a7.81,7.81,0,0,0-.75,1.38,6.32,6.32,0,0,0-.44,1.4,7.2,7.2,0,0,0-.15,1.5,6.92,6.92,0,0,0,.18,1.59,7.57,7.57,0,0,0,.51,1.45,9.56,9.56,0,0,0,.74,1.37c.29.45.6.89.94,1.33Z"/><path class="cls-1" d="M55,90.8A3.74,3.74,0,0,1,56.1,91a3.27,3.27,0,0,1,1,.52,2.64,2.64,0,0,1,.7.85,2.46,2.46,0,0,1,.26,1.14,3.51,3.51,0,0,1-.22,1.28,2.86,2.86,0,0,1-.64,1,3,3,0,0,1-1,.66,4,4,0,0,1-1.39.23,5.53,5.53,0,0,1-1.37-.21A7.76,7.76,0,0,1,52.12,96l.58-1.16a2,2,0,0,0,.46.27q.29.12.57.21a3.49,3.49,0,0,0,.54.12l.45.06a2.12,2.12,0,0,0,.92-.29,1.8,1.8,0,0,0,.54-.52,1.57,1.57,0,0,0,.24-.55,1.7,1.7,0,0,0,.07-.44,1.77,1.77,0,0,0-.22-.91,1.32,1.32,0,0,0-.48-.51,1.85,1.85,0,0,0-.6-.2c-.21,0-.39,0-.54,0a3.39,3.39,0,0,0-1,.17c-.35.11-.69.22-1,.34V87.37h5.18v1.36h-3.7v2.16A4.26,4.26,0,0,1,55,90.8Z"/><path class="cls-1" d="M66.59,89.6a1.92,1.92,0,0,1,1.53.59,2.38,2.38,0,0,1,.51,1.63v4.85H67V92.08a1.6,1.6,0,0,0-.17-.84.68.68,0,0,0-.61-.26,1.13,1.13,0,0,0-.45.09,1.65,1.65,0,0,0-.37.2,2.68,2.68,0,0,0-.3.28l-.24.27v4.85H63.3V92.08c0-.73-.27-1.1-.81-1.1a1.26,1.26,0,0,0-.27,0,1,1,0,0,0-.3.14,4.07,4.07,0,0,0-.36.3q-.18.2-.42.51v4.7H59.57V89.78h1.57v.58l.3-.26a1.8,1.8,0,0,1,.35-.24,1.51,1.51,0,0,1,.45-.18,2,2,0,0,1,.57-.08,1.84,1.84,0,0,1,1.79.93c.12-.12.24-.24.37-.35a2.74,2.74,0,0,1,.43-.3,2.49,2.49,0,0,1,1.19-.28Z"/><path class="cls-1" d="M77.58,89.6a1.92,1.92,0,0,1,1.53.59,2.38,2.38,0,0,1,.51,1.63v4.85H78V92.08a1.6,1.6,0,0,0-.17-.84.68.68,0,0,0-.61-.26,1.13,1.13,0,0,0-.45.09,1.65,1.65,0,0,0-.37.2,2.68,2.68,0,0,0-.3.28l-.24.27v4.85H74.3V92.08c0-.73-.28-1.1-.82-1.1a1.26,1.26,0,0,0-.27,0,.85.85,0,0,0-.29.14,2.38,2.38,0,0,0-.36.3,4.09,4.09,0,0,0-.42.51v4.7H70.56V89.78h1.58v.58l.29-.26a1.8,1.8,0,0,1,.35-.24,1.51,1.51,0,0,1,.45-.18,2,2,0,0,1,.57-.08,1.84,1.84,0,0,1,1.79.93l.37-.35a2.83,2.83,0,0,1,.44-.3,2.36,2.36,0,0,1,.51-.2A2.67,2.67,0,0,1,77.58,89.6Z"/><path class="cls-1" d="M81.44,97.84c.3-.41.59-.82.85-1.23A10.2,10.2,0,0,0,83,95.32a7.9,7.9,0,0,0,.45-1.4,7.06,7.06,0,0,0,.17-1.57,8,8,0,0,0-.14-1.5,7.31,7.31,0,0,0-.44-1.4,9.37,9.37,0,0,0-.75-1.38c-.31-.47-.66-.95-1.07-1.47h1.67q.56.65,1,1.26a7.26,7.26,0,0,1,.74,1.3,7.51,7.51,0,0,1,.44,1.46,9.17,9.17,0,0,1,.16,1.73A9.34,9.34,0,0,1,85.08,94a7.11,7.11,0,0,1-.42,1.47A8.73,8.73,0,0,1,84,96.8a11.24,11.24,0,0,1-1,1.29H81.58Z"/><circle class="cls-2" cx="66.33" cy="66.44" r="61.5"/><path class="cls-3" d="M66.13,131.76a65.63,65.63,0,1,1,65.63-65.63A65.7,65.7,0,0,1,66.13,131.76Zm0-127.58a61.95,61.95,0,1,0,61.94,62A62,62,0,0,0,66.13,4.18Z"/></g></g></svg>