<svg xmlns="http://www.w3.org/2000/svg" viewBox="0 0 132.26 132.26"><defs><style>.cls-1,.cls-2{fill:#454545;}.cls-1{stroke:#454545;stroke-miterlimit:10;}</style></defs><title>6cm_기본_1</title><g id="레이어_2" data-name="레이어 2"><g id="레이어_1-2" data-name="레이어 1"><path class="cls-1" d="M66.13,131.76a65.63,65.63,0,1,1,65.63-65.63A65.7,65.7,0,0,1,66.13,131.76Zm0-127.58a61.95,61.95,0,1,0,61.94,62A62,62,0,0,0,66.13,4.18Z"/><path class="cls-2" d="M32.84,57.28a11.33,11.33,0,0,1,4.53.86,10.9,10.9,0,0,1,3.51,2.34,11.08,11.08,0,0,1,2.23,3.6,12.8,12.8,0,0,1,0,9A11.6,11.6,0,0,1,32,80.6a11.26,11.26,0,0,1-5.9-1.42,10.72,10.72,0,0,1-3.77-3.74,15.34,15.34,0,0,1-2-5.18,28.88,28.88,0,0,1-.61-5.87,24.7,24.7,0,0,1,.93-6.58,21.83,21.83,0,0,1,2.84-6.25,18.25,18.25,0,0,1,4.78-4.9A14.21,14.21,0,0,1,35,44.22a30.94,30.94,0,0,1,3.46.42,18.91,18.91,0,0,1,3.78,1.12L40,50.45a21.89,21.89,0,0,0-2.51-.86,9.37,9.37,0,0,0-2.5-.35,7,7,0,0,0-3.65.93,8.67,8.67,0,0,0-2.63,2.42A13,13,0,0,0,27,56.07a23.1,23.1,0,0,0-1,4,13.72,13.72,0,0,1,3.23-2A9,9,0,0,1,32.84,57.28Zm-.46,18.49a5.13,5.13,0,0,0,2.41-.56,5.46,5.46,0,0,0,1.81-1.49,6.52,6.52,0,0,0,1.07-2.16A8.78,8.78,0,0,0,38.05,69a11.23,11.23,0,0,0-.31-2.61,6.77,6.77,0,0,0-1-2.23A5,5,0,0,0,35,62.67a5.72,5.72,0,0,0-2.62-.56,6.45,6.45,0,0,0-2.4.44,5.89,5.89,0,0,0-1.88,1.23,5.76,5.76,0,0,0-1.3,1.88,6.08,6.08,0,0,0-.46,2.4,10.35,10.35,0,0,0,.35,2.69,7.3,7.3,0,0,0,1.09,2.42A6.19,6.19,0,0,0,29.66,75,5.26,5.26,0,0,0,32.38,75.77Z"/><path class="cls-2" d="M69.73,78.14a13.55,13.55,0,0,1-4.25,2.27,15.71,15.71,0,0,1-4.9.75A12.21,12.21,0,0,1,55.31,80a12.67,12.67,0,0,1-4.12-3,13.87,13.87,0,0,1-2.67-4.46,15.5,15.5,0,0,1-1-5.43,15.34,15.34,0,0,1,.91-5.3,13.6,13.6,0,0,1,2.62-4.46,12.47,12.47,0,0,1,4.09-3,12.7,12.7,0,0,1,5.48-1.14,15.53,15.53,0,0,1,4.79.74,12.94,12.94,0,0,1,4.22,2.37L67,60.62A32.48,32.48,0,0,0,64.15,59a7.63,7.63,0,0,0-3.48-.75,5.8,5.8,0,0,0-4.88,2.33A10.51,10.51,0,0,0,54,67.08a14.1,14.1,0,0,0,.37,3.23,9.24,9.24,0,0,0,1.16,2.86,6.37,6.37,0,0,0,2.09,2,6,6,0,0,0,3.16.79A8.42,8.42,0,0,0,63,75.72,11.4,11.4,0,0,0,64.94,75a10.16,10.16,0,0,0,1.45-.79l.92-.66Z"/><path class="cls-2" d="M101.88,53.24c2.63,0,4.61.75,5.92,2.25a9.3,9.3,0,0,1,2,6.34V80.6H103.6V62.81a6.13,6.13,0,0,0-.65-3.23,2.62,2.62,0,0,0-2.37-1,4.62,4.62,0,0,0-1.72.32,7.1,7.1,0,0,0-1.44.79,8.72,8.72,0,0,0-1.16,1.1l-.93,1V80.6H89.15V62.81q0-4.23-3.16-4.23a4.19,4.19,0,0,0-1,.14,3.53,3.53,0,0,0-1.14.56,7.91,7.91,0,0,0-1.4,1.16,16.68,16.68,0,0,0-1.62,2V80.6H74.7V53.93h6.09v2.23l1.14-1a6.84,6.84,0,0,1,1.37-.93,7.8,7.8,0,0,1,1.72-.7,8.36,8.36,0,0,1,2.23-.27q5,0,6.92,3.57c.46-.46.94-.91,1.44-1.34a9.37,9.37,0,0,1,1.67-1.17,10.16,10.16,0,0,1,2-.76A10,10,0,0,1,101.88,53.24Z"/></g></g></svg>