<svg xmlns="http://www.w3.org/2000/svg" viewBox="0 0 132.26 132.26"><defs><style>.cls-1,.cls-2{fill:#454545;}.cls-1{stroke:#454545;stroke-miterlimit:10;}</style></defs><title>8cm_기본_1</title><g id="레이어_2" data-name="레이어 2"><g id="레이어_1-2" data-name="레이어 1"><path class="cls-1" d="M66.13,131.76a65.63,65.63,0,1,1,65.63-65.63A65.7,65.7,0,0,1,66.13,131.76Zm0-127.58a61.95,61.95,0,1,0,61.94,62A62,62,0,0,0,66.13,4.18Z"/><path class="cls-2" d="M44.36,70.43a8.92,8.92,0,0,1-.92,4,10.56,10.56,0,0,1-2.56,3.25,12.74,12.74,0,0,1-3.79,2.14,13.39,13.39,0,0,1-4.67.79A15,15,0,0,1,28,79.93a13.08,13.08,0,0,1-4-2,10.31,10.31,0,0,1-2.86-3.2,8.61,8.61,0,0,1-1.09-4.32,7.17,7.17,0,0,1,1.95-5,18.78,18.78,0,0,1,5-3.83A16.35,16.35,0,0,1,24.76,60a12.47,12.47,0,0,1-1.86-2,8.08,8.08,0,0,1-1.3-2.2,6.89,6.89,0,0,1-.46-2.53,7.21,7.21,0,0,1,.95-3.7,9.53,9.53,0,0,1,2.53-2.85,11.91,11.91,0,0,1,3.53-1.82,13.25,13.25,0,0,1,4.09-.65,14.83,14.83,0,0,1,4,.56,11.6,11.6,0,0,1,3.55,1.67,9,9,0,0,1,2.49,2.77,7.56,7.56,0,0,1,1,3.83,6.25,6.25,0,0,1-.47,2.39,9.6,9.6,0,0,1-1.25,2.21,19.15,19.15,0,0,1-1.9,2.07c-.72.66-1.48,1.31-2.28,1.93.87.52,1.72,1.09,2.55,1.69a15.58,15.58,0,0,1,2.28,2,9.44,9.44,0,0,1,1.58,2.32A6.34,6.34,0,0,1,44.36,70.43ZM32.24,75.54a7.59,7.59,0,0,0,2.14-.33,7.1,7.1,0,0,0,2-1,5.49,5.49,0,0,0,1.46-1.61,4.11,4.11,0,0,0,.58-2.2,3.49,3.49,0,0,0-.58-1.93,8,8,0,0,0-1.46-1.7,14.1,14.1,0,0,0-2-1.34,21.65,21.65,0,0,0-2.14-1,11.74,11.74,0,0,0-2.16.82,9.57,9.57,0,0,0-2,1.27,7.18,7.18,0,0,0-1.51,1.77A4.16,4.16,0,0,0,26,70.43a3.91,3.91,0,0,0,.56,2A6,6,0,0,0,28,74.1a6.5,6.5,0,0,0,2,1.06A7,7,0,0,0,32.24,75.54ZM27.08,53.61a3.69,3.69,0,0,0,.47,1.72A6.67,6.67,0,0,0,28.75,57a8.57,8.57,0,0,0,1.68,1.3,6.56,6.56,0,0,0,1.81.79,10.42,10.42,0,0,0,1.69-.9,11.45,11.45,0,0,0,1.7-1.33,7.12,7.12,0,0,0,1.23-1.6,3.43,3.43,0,0,0,.49-1.74,3.62,3.62,0,0,0-.42-1.72,5,5,0,0,0-1.07-1.39,4.74,4.74,0,0,0-1.6-.93,5.43,5.43,0,0,0-1.88-.33,5.94,5.94,0,0,0-1.79.3,5.67,5.67,0,0,0-1.7.86,5.56,5.56,0,0,0-1.3,1.44A3.62,3.62,0,0,0,27.08,53.61Z"/><path class="cls-2" d="M70,78.14a13.55,13.55,0,0,1-4.25,2.27,15.71,15.71,0,0,1-4.9.75A12.21,12.21,0,0,1,55.54,80a12.53,12.53,0,0,1-4.11-3,13.72,13.72,0,0,1-2.68-4.46,15.5,15.5,0,0,1-1-5.43,15.34,15.34,0,0,1,.91-5.3,13.78,13.78,0,0,1,2.62-4.46,12.47,12.47,0,0,1,4.09-3,12.7,12.7,0,0,1,5.48-1.14,15.49,15.49,0,0,1,4.79.74,12.89,12.89,0,0,1,4.23,2.37l-2.65,4.32c-.93-.58-1.89-1.13-2.88-1.62a7.67,7.67,0,0,0-3.49-.75A5.8,5.8,0,0,0,56,60.58a10.58,10.58,0,0,0-1.76,6.5,14.1,14.1,0,0,0,.37,3.23,9.49,9.49,0,0,0,1.16,2.86,6.47,6.47,0,0,0,2.09,2A6,6,0,0,0,61,76a8.37,8.37,0,0,0,2.21-.28A11.51,11.51,0,0,0,65.18,75a10.58,10.58,0,0,0,1.44-.79l.93-.66Z"/><path class="cls-2" d="M102.11,53.24q3.94,0,5.93,2.25a9.35,9.35,0,0,1,2,6.34V80.6h-6.18V62.81a6.13,6.13,0,0,0-.65-3.23,2.6,2.6,0,0,0-2.37-1,4.62,4.62,0,0,0-1.72.32,7.1,7.1,0,0,0-1.44.79,9.38,9.38,0,0,0-1.16,1.1l-.93,1V80.6H89.38V62.81q0-4.23-3.16-4.23a4.19,4.19,0,0,0-1,.14,3.53,3.53,0,0,0-1.14.56,7.88,7.88,0,0,0-1.39,1.16,15.71,15.71,0,0,0-1.63,2V80.6H74.93V53.93H81v2.23l1.14-1a7.14,7.14,0,0,1,1.37-.93,8,8,0,0,1,1.72-.7,8.36,8.36,0,0,1,2.23-.27q5,0,6.92,3.57c.46-.46.94-.91,1.44-1.34a9.37,9.37,0,0,1,1.67-1.17,10.41,10.41,0,0,1,2-.76A10,10,0,0,1,102.11,53.24Z"/></g></g></svg>