<svg xmlns="http://www.w3.org/2000/svg" viewBox="0 0 132.26 132.26"><defs><style>.cls-1,.cls-2{fill:#454545;}.cls-1{stroke:#454545;stroke-miterlimit:10;}</style></defs><title>양면_기본_1</title><g id="레이어_2" data-name="레이어 2"><g id="레이어_1-2" data-name="레이어 1"><path class="cls-1" d="M66.13,131.76a65.63,65.63,0,1,1,65.63-65.63A65.7,65.7,0,0,1,66.13,131.76Zm0-127.58a61.95,61.95,0,1,0,61.94,62A62,62,0,0,0,66.13,4.18Z"/><path class="cls-2" d="M38.3,65.55a12.77,12.77,0,0,1-4.39-.75,10.48,10.48,0,0,1-3.6-2.13,9.85,9.85,0,0,1-2.48-3.42,11.68,11.68,0,0,1,0-8.92,10.26,10.26,0,0,1,2.39-3.41,10.67,10.67,0,0,1,3.58-2.19,12.9,12.9,0,0,1,4.55-.79,12.67,12.67,0,0,1,4.35.75,10.84,10.84,0,0,1,3.6,2.13,10.29,10.29,0,0,1,2.44,3.42,11.14,11.14,0,0,1,.9,4.58,10.81,10.81,0,0,1-.84,4.32,10.24,10.24,0,0,1-2.32,3.39,10.87,10.87,0,0,1-3.6,2.23A12.53,12.53,0,0,1,38.3,65.55ZM32.91,54.77A7,7,0,0,0,33.28,57a5.7,5.7,0,0,0,1.07,1.86,5.6,5.6,0,0,0,1.7,1.28,5.12,5.12,0,0,0,2.25.48A4.86,4.86,0,0,0,42.13,59a6.08,6.08,0,0,0,1.47-4.2,6,6,0,0,0-1.4-4A5.28,5.28,0,0,0,38.26,49a5.1,5.1,0,0,0-3.91,1.67A6,6,0,0,0,32.91,54.77ZM60.69,77.35a8.88,8.88,0,0,1-1,4.39,9.66,9.66,0,0,1-2.76,3.13,12.94,12.94,0,0,1-4,1.89,16.94,16.94,0,0,1-9,0,13.08,13.08,0,0,1-4-1.81,9.85,9.85,0,0,1-2.86-3.16,9.87,9.87,0,0,1,0-8.92,9.18,9.18,0,0,1,2.81-3.07,12.91,12.91,0,0,1,4-1.83,18.14,18.14,0,0,1,4.6-.68,16.06,16.06,0,0,1,4.37.61,13,13,0,0,1,4,1.81,10.06,10.06,0,0,1,2.88,3.14A8.63,8.63,0,0,1,60.69,77.35Zm-12.35,5.2a9,9,0,0,0,2.3-.3,6.46,6.46,0,0,0,2.06-1,5.06,5.06,0,0,0,1.42-1.63,4.71,4.71,0,0,0,.53-2.32,4.52,4.52,0,0,0-.53-2.26,5.17,5.17,0,0,0-1.42-1.6,6.21,6.21,0,0,0-2-1,10.81,10.81,0,0,0-2.46-.38,7.77,7.77,0,0,0-2.23.33,6.22,6.22,0,0,0-2,1,4.92,4.92,0,0,0-1.42,1.62,5.15,5.15,0,0,0,0,4.51,5.08,5.08,0,0,0,1.39,1.67,6.54,6.54,0,0,0,2,1A9,9,0,0,0,48.34,82.55Zm12-35.17H66v4.88H60.32v4.09H66v4.88H60.32v5.2h-6V42.69h6Z"/><path class="cls-2" d="M90.89,49.43h6.55V42.55h6V72h-6V62H90.89v4.87H70.64V44.69H90.89Zm-5.9,0H76.54V62.11H85Zm-.37,31.36h19.47v5H78.53V70.7h6.09Zm6.27-23.47h6.55V54.07H90.89Z"/></g></g></svg>