<svg xmlns="http://www.w3.org/2000/svg" viewBox="0 0 132.26 132.26"><defs><style>.cls-1,.cls-2{fill:#9b9b9b;}.cls-1{stroke:#9b9b9b;stroke-miterlimit:10;}.cls-3{fill:#fff;opacity:0.2;}</style></defs><title>양면_확정_1</title><g id="레이어_2" data-name="레이어 2"><g id="레이어_1-2" data-name="레이어 1"><path class="cls-1" d="M66.13,131.76a65.63,65.63,0,1,1,65.63-65.63A65.7,65.7,0,0,1,66.13,131.76Zm0-127.58a61.95,61.95,0,1,0,61.94,62A62,62,0,0,0,66.13,4.18Z"/><path class="cls-2" d="M38.3,65.8a12.77,12.77,0,0,1-4.39-.74,10.5,10.5,0,0,1-3.6-2.14,9.81,9.81,0,0,1-2.48-3.41,11,11,0,0,1-.91-4.58,10.81,10.81,0,0,1,.86-4.34,10.2,10.2,0,0,1,2.39-3.42A10.92,10.92,0,0,1,33.75,45a12.68,12.68,0,0,1,4.55-.79,12.91,12.91,0,0,1,4.35.74,10.86,10.86,0,0,1,3.6,2.14,10.29,10.29,0,0,1,2.44,3.42,11.09,11.09,0,0,1,.9,4.57,11,11,0,0,1-.83,4.32,10.56,10.56,0,0,1-2.33,3.4A10.69,10.69,0,0,1,42.83,65,12.53,12.53,0,0,1,38.3,65.8ZM32.91,55a7,7,0,0,0,.37,2.23,5.55,5.55,0,0,0,1.07,1.85,5.29,5.29,0,0,0,1.7,1.28,5,5,0,0,0,2.25.49,4.86,4.86,0,0,0,3.83-1.65A6.65,6.65,0,0,0,42.2,51a5.3,5.3,0,0,0-3.94-1.76,5.1,5.1,0,0,0-3.91,1.67A6,6,0,0,0,32.91,55ZM60.69,77.6a8.89,8.89,0,0,1-1,4.4,9.77,9.77,0,0,1-2.76,3.13,12.92,12.92,0,0,1-4,1.88,16.54,16.54,0,0,1-4.57.63A16.84,16.84,0,0,1,43.9,87a13.21,13.21,0,0,1-4-1.82,9.75,9.75,0,0,1-2.86-3.16,9,9,0,0,1,2.77-12,12.76,12.76,0,0,1,3.94-1.84,18.59,18.59,0,0,1,4.6-.67,16.44,16.44,0,0,1,4.37.6,13.21,13.21,0,0,1,4,1.82,10,10,0,0,1,2.88,3.13A8.68,8.68,0,0,1,60.69,77.6ZM48.34,82.81a9,9,0,0,0,2.3-.3,6.48,6.48,0,0,0,2.06-1,4.81,4.81,0,0,0,1.42-1.62,4.75,4.75,0,0,0,.54-2.33,4.51,4.51,0,0,0-.54-2.25,4.94,4.94,0,0,0-1.42-1.6,6.44,6.44,0,0,0-2-1,10.81,10.81,0,0,0-2.46-.37,7.77,7.77,0,0,0-2.23.33,6.2,6.2,0,0,0-2,1,5.06,5.06,0,0,0-1.42,1.63,5.13,5.13,0,0,0,0,4.5,5.11,5.11,0,0,0,1.39,1.68,6.3,6.3,0,0,0,2,1A8.59,8.59,0,0,0,48.34,82.81Zm12-35.17H66v4.88H60.32v4.09H66v4.87H60.32v5.21h-6V43h6Z"/><path class="cls-2" d="M90.89,49.68h6.55V42.81h6V72.26h-6v-10H90.89v4.88H70.64V44.94H90.89Zm-5.9,0H76.54V62.37H85ZM84.62,81h19.47v5H78.53V71h6.09Zm6.27-23.46h6.55V54.33H90.89Z"/><ellipse class="cls-3" cx="66.11" cy="66.13" rx="61.54" ry="61.44"/></g></g></svg>