<svg xmlns="http://www.w3.org/2000/svg" viewBox="0 0 132.26 132.26"><defs><style>.cls-1,.cls-2{fill:#9b9b9b;}.cls-1{stroke:#9b9b9b;stroke-miterlimit:10;}.cls-3,.cls-5{fill:#fff;}.cls-3{opacity:0.33;isolation:isolate;}.cls-4{fill:#666767;}.cls-5{opacity:0.2;}</style></defs><title>군번줄_확정_1</title><g id="레이어_2" data-name="레이어 2"><g id="레이어_1-2" data-name="레이어 1"><path class="cls-1" d="M66.13,131.76a65.63,65.63,0,1,1,65.63-65.63A65.7,65.7,0,0,1,66.13,131.76Zm0-127.58a61.95,61.95,0,1,0,61.94,62A62,62,0,0,0,66.13,4.18Z"/><path class="cls-2" d="M32.44,72.08H48.76v2.27h-6v3.9H40v-3.9H32.44Zm14.18-8.61a19.52,19.52,0,0,1-1.31,8l-2.55-.36a16.51,16.51,0,0,0,1-5.32H34.35V63.47Zm-8.92,17h9.15v2.29H35V76.15H37.7Z"/><path class="cls-2" d="M58.07,63.69h2.65v4.15H63.3V63H66V76.44H63.3V70.15H60.72v4.09H51.6V63.69h2.65v3.37h3.82Zm0,5.59H54.25V72h3.82Zm-.62,11.17h8.84v2.29H54.67V75.85h2.78Z"/><path class="cls-2" d="M73.9,80.62h9.39v2.14h-12V77.59H80.4v-.87H71.27v-2.1h4.41V73.29H68.92V71H85.24v2.29H78.45v1.33H83v5.09H73.9ZM70.55,63.47H83.73v2.31H80.32l4,3-2,1.74-5.06-3.86a17,17,0,0,1-5.49,3.84l-1.87-1.87a14.44,14.44,0,0,0,4.54-2.84H70.55Z"/><path class="cls-2" d="M91.81,70.3V65.8h2.9v4.5h4.34v2.54H94.71v4.49h-2.9V72.84H87.46V70.3Z"/><path class="cls-2" d="M52.15,88.65a6.39,6.39,0,0,1,5.53,2.76,8.59,8.59,0,0,1,1.25,2.84,13,13,0,0,1,.41,3.22,13.18,13.18,0,0,1-.41,3.26,8.59,8.59,0,0,1-1.25,2.84,6.27,6.27,0,0,1-5.46,2.78,6.76,6.76,0,0,1-3.3-.76,6.32,6.32,0,0,1-2.21-2,8.45,8.45,0,0,1-1.28-2.82,13.46,13.46,0,0,1-.4-3.22,13.71,13.71,0,0,1,.4-3.25,8.6,8.6,0,0,1,1.28-2.85,6.34,6.34,0,0,1,2.19-2A6.59,6.59,0,0,1,52.15,88.65Zm0,15.26a3.63,3.63,0,0,0,2.05-.55,4,4,0,0,0,1.34-1.46,6.67,6.67,0,0,0,.74-2,12.87,12.87,0,0,0,.22-2.33,11.59,11.59,0,0,0-.24-2.36,7,7,0,0,0-.74-2.07,4.23,4.23,0,0,0-1.32-1.46,3.46,3.46,0,0,0-2-.55,3.61,3.61,0,0,0-2,.55,4.21,4.21,0,0,0-1.34,1.44,6.67,6.67,0,0,0-.77,2.06,12,12,0,0,0-.23,2.33,12.34,12.34,0,0,0,.23,2.36,6.51,6.51,0,0,0,.77,2,4.36,4.36,0,0,0,1.32,1.47A3.47,3.47,0,0,0,52.15,103.91Z"/><path class="cls-2" d="M64.72,105.82h-2.8V89.29h5.13a9.17,9.17,0,0,1,2.4.3,5.62,5.62,0,0,1,1.9.93,4.48,4.48,0,0,1,1.27,1.56,5,5,0,0,1,.45,2.19,5.39,5.39,0,0,1-.43,2.24,4.49,4.49,0,0,1-1.24,1.64,5.3,5.3,0,0,1-2,1,9.44,9.44,0,0,1-2.64.34H64.72Zm0-8.63H66.8a3.92,3.92,0,0,0,2.63-.72,2.74,2.74,0,0,0,.8-2.14,2.64,2.64,0,0,0-.76-2,3.67,3.67,0,0,0-2.61-.75H64.72Z"/><path class="cls-2" d="M78.43,105.82H75.64V89.29h5.12a9.12,9.12,0,0,1,2.4.3,5.76,5.76,0,0,1,1.91.93,4.57,4.57,0,0,1,1.26,1.56,5,5,0,0,1,.45,2.19,5.39,5.39,0,0,1-.43,2.24,4.38,4.38,0,0,1-1.24,1.64,5.3,5.3,0,0,1-2,1,9.44,9.44,0,0,1-2.64.34H78.43Zm0-8.63h2.08a3.92,3.92,0,0,0,2.63-.72,2.74,2.74,0,0,0,.8-2.14,2.64,2.64,0,0,0-.76-2,3.67,3.67,0,0,0-2.61-.75H78.43Z"/><rect class="cls-3" x="61.77" y="26.56" width="21.2" height="22.27"/><path class="cls-4" d="M83,49.33H61.77a.5.5,0,0,1-.5-.5V21.32a.51.51,0,0,1,.5-.5H83a.5.5,0,0,1,.5.5V48.83A.5.5,0,0,1,83,49.33Zm-20.7-1h20.2V21.82H62.24Z"/><rect class="cls-3" x="74.48" y="28.66" width="21.17" height="23.15"/><rect class="cls-4" x="61.89" y="26.33" width="20.82" height="0.57"/><rect class="cls-4" x="74.7" y="28.41" width="20.82" height="0.57"/><path class="cls-4" d="M95.74,52.36H74.54a.51.51,0,0,1-.5-.5V24.35a.51.51,0,0,1,.5-.5h17.7a.5.5,0,0,1,.35.14l3.56,3.55a.46.46,0,0,1,.14.36v24a.49.49,0,0,1-.53.46Zm-20.7-1h20.2V28.1L92,24.85H75Z"/><path class="cls-4" d="M43.34,49.28a7.2,7.2,0,0,1-1.14-.09l.16-1a6.36,6.36,0,0,0,1.31.07l0,1Zm2.74-.5-.35-.94A7.9,7.9,0,0,0,47,47.28l.49.88A9.79,9.79,0,0,1,46.08,48.78Zm-6.17-.29a9.25,9.25,0,0,1-1.32-.7l.54-.85a10.32,10.32,0,0,0,1.18.64Zm9.47-1.69L48.72,46a13.48,13.48,0,0,0,1-1l.73.69C50.11,46.11,49.75,46.46,49.38,46.8Zm-12.64-.55a4.46,4.46,0,0,1-.81-1.36l.93-.36a3.76,3.76,0,0,0,.64,1.07ZM51.9,43.94l-.82-.56c.25-.38.5-.77.71-1.17l.88.48A12.33,12.33,0,0,1,51.9,43.94ZM36.7,42.59l-1-.22a8.8,8.8,0,0,1,.45-1.43l.93.37A8.18,8.18,0,0,0,36.7,42.59Zm16.93-2-1-.32A9.79,9.79,0,0,0,53.05,39l1,.21a13,13,0,0,1-.46,1.37ZM38.12,39.32l-.9-.43c.2-.42.38-.84.56-1.27l.92.37C38.52,38.44,38.33,38.89,38.12,39.32Zm16.22-2.51-1-.09c0-.45.08-.92.09-1.39h1C54.41,35.85,54.38,36.34,54.34,36.81Zm-14.85-1-.9-.29L39,34.17l1,.31Zm13.88-2.7c0-.47-.12-.93-.2-1.35l1-.21A14.28,14.28,0,0,1,54.39,33Zm-12.69-.77L39.75,32c.14-.38.3-.76.47-1.14l.1-.2.89.44-.08.17c-.16.43-.31.75-.45,1.11ZM52.5,29.72l-.12-.23a5.24,5.24,0,0,0-.59-.81l.76-.65a5.84,5.84,0,0,1,.71,1l.14.27Zm-10.09-.4-.74-.64a8.8,8.8,0,0,1,1.11-1l.61.8a5.75,5.75,0,0,0-1,.86Zm2.82-1.93-.36-.94A8.93,8.93,0,0,1,46.32,26L46.7,26l.19,1-.35.08a8.22,8.22,0,0,0-1.31.38Zm4.94,0A4.93,4.93,0,0,0,49,27l.21-1a6.25,6.25,0,0,1,1.45.51Z"/><path class="cls-4" d="M46.4,25.91s-.34.92.23,1.38a4.87,4.87,0,0,1,3.54.14,2.34,2.34,0,0,0,.29-1.24A6,6,0,0,0,46.4,25.91Z"/><ellipse class="cls-5" cx="66.13" cy="66.13" rx="61.54" ry="61.44"/></g></g></svg>