<svg xmlns="http://www.w3.org/2000/svg" viewBox="0 0 132.26 132.26"><defs><style>.cls-1{fill:#fff;opacity:0.2;}.cls-2,.cls-3{fill:#9b9b9b;}.cls-2{stroke:#9b9b9b;stroke-miterlimit:10;}</style></defs><title>많음_확정_1</title><g id="레이어_2" data-name="레이어 2"><g id="레이어_1-2" data-name="레이어 1"><ellipse class="cls-1" cx="66.13" cy="66.13" rx="61.54" ry="61.44"/><path class="cls-2" d="M66.13,131.76a65.63,65.63,0,1,1,65.63-65.63A65.7,65.7,0,0,1,66.13,131.76Zm0-127.58a61.95,61.95,0,1,0,61.94,62A62,62,0,0,0,66.13,4.18Z"/><path class="cls-3" d="M24,46H37.05v1.83H31.62v4.55H29.4V47.84H24Zm9.32-8.3h2.17v7H25.68v-7h2.17v1.81H33.3Zm0,3.66H27.85V42.9H33.3Z"/><path class="cls-3" d="M39,38.28h8.28v1.79H44.51l3.12,7.6-1.83.95L43.17,42a16.26,16.26,0,0,1-3.08,6.57l-1.61-1.12a19,19,0,0,0,3.28-7.4H39ZM53.22,42v1.85H50.65v8.3H48.46V37.23h2.19V42Z"/><path class="cls-3" d="M59.52,39.91c.37,1.27.77,2.56,1.2,3.88s.83,2.62,1.21,3.88l-1.84.95-1.86-6.69a17.79,17.79,0,0,1-.67,2.52q-.42,1.19-.81,2.07c-.27.59-.51,1-.71,1.4s-.29.52-.29.53L54,47.28a15.25,15.25,0,0,0,1.09-1.92,20.13,20.13,0,0,0,.81-2,18.76,18.76,0,0,0,.52-1.86,14.63,14.63,0,0,0,.29-1.64H54.58v-1.8h7v1.8Zm5.77,4H64.24V52H62.15V37.3h2.09V42h1.05V37.23h2.12V52.17H65.29Z"/><path class="cls-3" d="M82.76,49h5.43v1.84H75.12V49h5.43V45h2.21ZM76.43,38.28H87v1.84H83L87.53,45l-1.61,1.41L81.76,41.7A13.73,13.73,0,0,1,77,46.31l-1.44-1.49a14.69,14.69,0,0,0,4.68-4.7h-3.8Z"/><path class="cls-3" d="M92.63,43.85h5.48v1.77H90.44V40.8h5V39.66h-5V37.84H97.6v4.79h-5Zm7.4,2.6h2.09V53H92.85V46.45h2.07V48H100Zm0,3.38H94.92v1.39H100Zm2.07-4.21H99.93V37.25h2.17Z"/><path class="cls-3" d="M9.69,63.45v-3.6H12v3.6H15.5v2H12v3.6H9.69v-3.6H6.21v-2Z"/><path class="cls-3" d="M23.05,57.78a5.31,5.31,0,0,1,2.64.61A5.42,5.42,0,0,1,27.49,60a7.35,7.35,0,0,1,1,2.28,10.68,10.68,0,0,1,0,5.19,7.35,7.35,0,0,1-1,2.28,5.39,5.39,0,0,1-1.78,1.61A5.19,5.19,0,0,1,23.1,72a5.31,5.31,0,0,1-2.64-.61,5.08,5.08,0,0,1-1.77-1.61,7,7,0,0,1-1-2.26,10.72,10.72,0,0,1-.32-2.58,11,11,0,0,1,.32-2.61,7.16,7.16,0,0,1,1-2.28,5,5,0,0,1,1.76-1.61A5.18,5.18,0,0,1,23.05,57.78Zm0,12.22a2.93,2.93,0,0,0,1.64-.44,3.37,3.37,0,0,0,1.08-1.17,5.44,5.44,0,0,0,.59-1.63,9.65,9.65,0,0,0,0-3.76,5.64,5.64,0,0,0-.6-1.66,3.24,3.24,0,0,0-1.06-1.17,2.78,2.78,0,0,0-1.59-.44,2.93,2.93,0,0,0-1.62.44,3.37,3.37,0,0,0-1.07,1.15A5.43,5.43,0,0,0,19.79,63a9.64,9.64,0,0,0-.18,1.87,9.85,9.85,0,0,0,.18,1.89,5.09,5.09,0,0,0,.62,1.64,3.36,3.36,0,0,0,1.06,1.18A2.7,2.7,0,0,0,23.05,70Z"/><path class="cls-3" d="M33.12,71.53H30.88V58.28H35a7.31,7.31,0,0,1,1.92.25,4.54,4.54,0,0,1,1.53.74,3.66,3.66,0,0,1,1,1.26,4,4,0,0,1,.36,1.75,4.32,4.32,0,0,1-.35,1.8,3.44,3.44,0,0,1-1,1.3,4.28,4.28,0,0,1-1.59.82,7.66,7.66,0,0,1-2.11.27H33.12Zm0-6.91h1.67a3.08,3.08,0,0,0,2.1-.58,2.18,2.18,0,0,0,.65-1.71,2.16,2.16,0,0,0-.61-1.59,3,3,0,0,0-2.09-.6H33.12Z"/><path class="cls-3" d="M44.11,71.53H41.87V58.28H46a7.18,7.18,0,0,1,1.91.25,4.54,4.54,0,0,1,1.53.74,3.55,3.55,0,0,1,1,1.26,3.83,3.83,0,0,1,.37,1.75,4.48,4.48,0,0,1-.35,1.8,3.44,3.44,0,0,1-1,1.3,4.28,4.28,0,0,1-1.59.82,7.68,7.68,0,0,1-2.12.27H44.11Zm0-6.91h1.66A3.1,3.1,0,0,0,47.88,64a2.17,2.17,0,0,0,.64-1.71,2.12,2.12,0,0,0-.61-1.59,2.93,2.93,0,0,0-2.09-.6H44.11Z"/><path class="cls-3" d="M64.26,58.59A16.93,16.93,0,0,1,64,61.51a23.52,23.52,0,0,1-.68,2.84,25.18,25.18,0,0,1-1,2.64c-.38.84-.78,1.62-1.2,2.35l-1.89-.88a24.6,24.6,0,0,0,2-4.5A17,17,0,0,0,62,60.44H57.45V58.59Zm3.94,5.65h-1v8.09H65.06V57.67H67.2v4.72h1V57.61h2.12V72.55H68.2Z"/><path class="cls-3" d="M85,65.77H82.8V64.21h-2v1.38h-7.3V58.15h2.12v2.19h3.06V58.15h2.12v1.49h2v-2H85Zm-6.38-3.65H75.57v1.7h3.06Zm-.41,9.54h7v1.75H76.06V69h6.79v-.85H76.06V66.44h9v4.34H78.22Zm2.53-9.16h2V61.32h-2Z"/><path class="cls-3" d="M102.92,60.51v4.14h1.62V66.5h-4.06v2.91h5.26v1.83H92.67V69.41h5.6V66.5H94V64.65h1.54V60.51H94V58.66h10.51v1.85Zm-5.21,4.14h3.07V60.51H97.71Z"/><path class="cls-3" d="M113.18,60.19l2.75,4.87-1.77,1.09-2.46-4.47a10.49,10.49,0,0,1-3.07,4.57l-1.51-1.33a12.7,12.7,0,0,0,3.1-4.73h-2.61V58.44h8.29v1.75Zm6.21,10.13a3.22,3.22,0,0,1-.38,1.61,3.36,3.36,0,0,1-1,1.14,4.52,4.52,0,0,1-1.45.69,6.23,6.23,0,0,1-1.67.23,6,6,0,0,1-1.63-.22,5,5,0,0,1-1.45-.66,3.62,3.62,0,0,1-1-1.16,3.19,3.19,0,0,1-.4-1.64,3.32,3.32,0,0,1,.38-1.62,3.45,3.45,0,0,1,1-1.12,4.77,4.77,0,0,1,1.44-.67,6.81,6.81,0,0,1,1.68-.24,5.83,5.83,0,0,1,1.6.22,4.5,4.5,0,0,1,1.44.66A3.85,3.85,0,0,1,119,68.68,3.19,3.19,0,0,1,119.39,70.32Zm-4.51,1.9a3,3,0,0,0,.84-.11,2.43,2.43,0,0,0,.75-.34,1.74,1.74,0,0,0,.72-1.45,1.66,1.66,0,0,0-.2-.82,1.83,1.83,0,0,0-.52-.59,2.41,2.41,0,0,0-.74-.35,3.84,3.84,0,0,0-.9-.14,2.86,2.86,0,0,0-.82.12,2.37,2.37,0,0,0-.73.36,1.85,1.85,0,0,0-.52.59,1.72,1.72,0,0,0-.19.83,1.8,1.8,0,0,0,.18.82,2,2,0,0,0,.51.61,2.32,2.32,0,0,0,.74.36A3.17,3.17,0,0,0,114.88,72.22ZM119.26,61h2.26v1.83h-2.26v3.53h-2.21V57.67h2.21Z"/><path class="cls-3" d="M22.83,93.89a15.14,15.14,0,0,1-1.41-1.82,10.58,10.58,0,0,1-1-1.91,10.18,10.18,0,0,1-.6-2.08,13,13,0,0,1-.2-2.31,12.29,12.29,0,0,1,.22-2.44,9.6,9.6,0,0,1,.63-2.07,10.75,10.75,0,0,1,1-1.84,19.57,19.57,0,0,1,1.41-1.78h2.36c-.58.73-1.08,1.42-1.51,2.07a13.44,13.44,0,0,0-1.06,2,9.65,9.65,0,0,0-.62,2,10.54,10.54,0,0,0-.21,2.13A9.7,9.7,0,0,0,22.14,88a11.3,11.3,0,0,0,.71,2,13.48,13.48,0,0,0,1,1.94c.41.63.85,1.26,1.33,1.88Z"/><path class="cls-3" d="M31.29,78.88a3.9,3.9,0,0,1,1.79.39,3.82,3.82,0,0,1,1.3,1,4.75,4.75,0,0,1,.8,1.55,6.37,6.37,0,0,1,0,3.67A4.29,4.29,0,0,1,34.46,87a3.82,3.82,0,0,1-1.29,1,4.86,4.86,0,0,1-1.88.45,3.92,3.92,0,0,1-1.78-.4,3.85,3.85,0,0,1-1.31-1,4.76,4.76,0,0,1-.83-1.54,5.77,5.77,0,0,1-.29-1.87,5.86,5.86,0,0,1,.27-1.75,5,5,0,0,1,.8-1.55,4,4,0,0,1,1.31-1.07A3.86,3.86,0,0,1,31.29,78.88Zm0,7.69a1.56,1.56,0,0,0,.9-.25,1.87,1.87,0,0,0,.62-.66,3.39,3.39,0,0,0,.36-.92,5.11,5.11,0,0,0,.14-1,5.6,5.6,0,0,0-.13-1,2.92,2.92,0,0,0-.35-.91,2,2,0,0,0-.63-.67,1.83,1.83,0,0,0-1-.3,1.63,1.63,0,0,0-.92.26,2.21,2.21,0,0,0-.62.67,3.38,3.38,0,0,0-.35.92,5.05,5.05,0,0,0-.11,1,5.34,5.34,0,0,0,.1,1,2.74,2.74,0,0,0,.36.9,2.05,2.05,0,0,0,.63.68A1.74,1.74,0,0,0,31.31,86.57Zm10.22-3.8v1.85H39v8.3H36.77V78H39v4.79Z"/><path class="cls-3" d="M55.55,91.45H42.48V89.61H55.55ZM54,79.2A39.26,39.26,0,0,1,53.71,84a19.11,19.11,0,0,1-.94,4.14l-2.06-.41c.14-.48.26-.95.36-1.39s.19-.86.27-1.27H44.18V83.23h7.43c.07-.75.1-1.47.1-2.18H43.84V79.2Z"/><path class="cls-3" d="M60,84.18h5.49v1.76H57.84V81.36h4.93v-1H57.84V78.59H65v4.59H60ZM62.63,92h7v1.75H60.46V89.37h6.79v-.84H60.46V86.81h9v4.35H62.63Zm6.83-5.89H67.25V78h2.21Z"/><path class="cls-3" d="M81.53,82.16a16.22,16.22,0,0,1-1.2,2.24,15.85,15.85,0,0,1-1.91,2.33l-1.51-1.31a13.23,13.23,0,0,0,1-1.2q.44-.57.75-1.08a8.49,8.49,0,0,0,.52-1c.14-.3.27-.59.38-.86H77.13V79.54h3.2V77.73h2.19v1.81h2.92v1.77H83.33c.38.7.78,1.41,1.18,2.14s.79,1.43,1.16,2.12l-1.75,1.05Zm-1.65,5.43h9v6.22h-9ZM82,92h4.8V89.39H82Zm6.94-10.7h2.26v1.83H88.93v3.6H86.76V78h2.17Z"/><path class="cls-3" d="M105.22,85.38v1.84H92.14V85.38h3.3v-1.8a3.34,3.34,0,0,1-1.29-1A2.59,2.59,0,0,1,93.69,81,2.72,2.72,0,0,1,94,79.61a3,3,0,0,1,1-1A5,5,0,0,1,96.67,78a9.73,9.73,0,0,1,2.11-.21,10.7,10.7,0,0,1,2.06.19,5.21,5.21,0,0,1,1.59.58,2.92,2.92,0,0,1,1,1,2.74,2.74,0,0,1,.36,1.43,2.8,2.8,0,0,1-.39,1.51,2.9,2.9,0,0,1-1.12,1v1.86Zm-11,5.71a2.62,2.62,0,0,1,.39-1.43,3.14,3.14,0,0,1,1-1,4.61,4.61,0,0,1,1.42-.58,6.62,6.62,0,0,1,1.6-.2,6.89,6.89,0,0,1,1.61.2,5,5,0,0,1,1.48.58,3.38,3.38,0,0,1,1.06,1,2.5,2.5,0,0,1,.42,1.45,2.54,2.54,0,0,1-.39,1.4,3.51,3.51,0,0,1-1,1,5.19,5.19,0,0,1-1.45.59,6.52,6.52,0,0,1-1.64.2,6.77,6.77,0,0,1-1.62-.19,4.65,4.65,0,0,1-1.44-.6,3.46,3.46,0,0,1-1-1A2.51,2.51,0,0,1,94.25,91.09ZM95.93,81a1.1,1.1,0,0,0,.78,1.07,5.3,5.3,0,0,0,2,.33,9.72,9.72,0,0,0,1.11-.07,3.65,3.65,0,0,0,.91-.24,1.67,1.67,0,0,0,.59-.43,1.14,1.14,0,0,0,0-1.32,1.41,1.41,0,0,0-.56-.41,4,4,0,0,0-.9-.22c-.35,0-.74-.08-1.16-.1a7.87,7.87,0,0,0-1.11.07,3.51,3.51,0,0,0-.89.22,1.67,1.67,0,0,0-.61.43A1,1,0,0,0,95.93,81Zm5.14,10.11a1,1,0,0,0-.2-.64,1.5,1.5,0,0,0-.53-.43,2.3,2.3,0,0,0-.74-.25,5,5,0,0,0-.85-.08,4.63,4.63,0,0,0-.81.08,3.14,3.14,0,0,0-.75.23,1.55,1.55,0,0,0-.56.44,1,1,0,0,0-.23.65.94.94,0,0,0,.22.62,1.73,1.73,0,0,0,.55.43,2.58,2.58,0,0,0,.74.25,3.86,3.86,0,0,0,.84.09,4.52,4.52,0,0,0,.8-.08,3.21,3.21,0,0,0,.74-.23,1.64,1.64,0,0,0,.56-.43A1,1,0,0,0,101.07,91.11ZM98.75,84.2a9.3,9.3,0,0,1-1.09-.06v1.24h2.39V84.13l-.63.05Z"/><path class="cls-3" d="M107.07,93.53c.43-.57.83-1.15,1.21-1.74a12.83,12.83,0,0,0,1-1.82,10.58,10.58,0,0,0,.65-2,9.84,9.84,0,0,0,.24-2.23,10.37,10.37,0,0,0-.21-2.12,10.58,10.58,0,0,0-.61-2,13.54,13.54,0,0,0-1.07-2c-.43-.65-.93-1.34-1.51-2.07h2.36a21.3,21.3,0,0,1,1.4,1.78,10.16,10.16,0,0,1,1,1.84,10.87,10.87,0,0,1,.63,2.07,13.54,13.54,0,0,1,0,4.75,10.83,10.83,0,0,1-.59,2.08,11.32,11.32,0,0,1-1,1.91,15.14,15.14,0,0,1-1.41,1.82h-1.94Z"/></g></g></svg>