<svg xmlns="http://www.w3.org/2000/svg" viewBox="0 0 132.26 132.26"><defs><style>.cls-1,.cls-2{fill:#454545;}.cls-1{stroke:#454545;stroke-miterlimit:10;}.cls-2{font-size:19.37px;font-family:KBIZgoH, KBIZgo H;}.cls-3,.cls-5{fill:#fff;}.cls-3{opacity:0.33;isolation:isolate;}.cls-4{fill:#666767;}.cls-5{opacity:0.5;}</style></defs><title>키링_확정_3</title><g id="레이어_2" data-name="레이어 2"><g id="레이어_1-2" data-name="레이어 1"><path class="cls-1" d="M66.13,131.76a65.63,65.63,0,1,1,65.63-65.63A65.7,65.7,0,0,1,66.13,131.76Zm0-127.58a61.95,61.95,0,1,0,61.94,62A62,62,0,0,0,66.13,4.18Z"/><text class="cls-2" transform="translate(7.84 83.91)">키링(O링포함)<tspan x="31.79" y="23.24">+OPP</tspan></text><rect class="cls-3" x="71.1" y="28.26" width="21.2" height="22.27"/><path class="cls-4" d="M92.3,51H71.1a.5.5,0,0,1-.5-.5V23a.5.5,0,0,1,.5-.5H92.3a.5.5,0,0,1,.5.5V50.53A.5.5,0,0,1,92.3,51ZM71.6,50H91.8V23.52H71.57Z"/><rect class="cls-3" x="83.81" y="30.36" width="21.17" height="23.15"/><rect class="cls-4" x="71.22" y="28.03" width="20.82" height="0.57"/><rect class="cls-4" x="84.03" y="30.11" width="20.82" height="0.57"/><path class="cls-4" d="M105.07,54.06H83.87a.51.51,0,0,1-.5-.5V26.05a.5.5,0,0,1,.5-.5h17.7a.48.48,0,0,1,.35.14l3.56,3.55a.46.46,0,0,1,.14.36v24a.49.49,0,0,1-.53.46Zm-20.7-1h20.2V29.8l-3.26-3.25H84.37Z"/><path class="cls-4" d="M52.55,45.36c.14.09,1.57.32,1.57.37a3.56,3.56,0,0,0,.62-1s.21-.86.07-.78A13.65,13.65,0,0,0,52.55,45.36Z"/><path class="cls-4" d="M42.42,39.93a10.93,10.93,0,1,1,4.7-14.72A10.94,10.94,0,0,1,42.42,39.93ZM33.17,22a9.23,9.23,0,1,0,12.44,4A9.24,9.24,0,0,0,33.17,22Z"/><path class="cls-4" d="M42.53,40.15a1.79,1.79,0,0,0-1.4,1.1,3.48,3.48,0,0,0,0,2.4,2.37,2.37,0,0,0,.55,1L45.24,43,45,42.39h0C44.65,41.18,43.73,40,42.53,40.15Zm-.62,1.44a.91.91,0,0,1,.76-.6c.55-.1,1,.5,1.3,1.1L41.86,43A2.47,2.47,0,0,1,41.91,41.59Z"/><path class="cls-4" d="M45.58,43.7h0l-.32-.62-3.53,1.63a2.27,2.27,0,0,0,.36,1,3.46,3.46,0,0,0,1.79,1.6A1.81,1.81,0,0,0,45.64,47C46.58,46.3,46.25,44.76,45.58,43.7ZM43,45.62l2.1-1c.3.59.4,1.36,0,1.72a.9.9,0,0,1-.94.16A2.4,2.4,0,0,1,43,45.62Z"/><path class="cls-4" d="M47.07,46.05l-1.55,1.52c-.71.7.95,3.22,1.33,3.63,1.43,1.52.58,1.79,2.77,1.79,2.39,0,4.43-1.3,6.72-1.87,2.65-.64,6.51-.18,7.74,2.22a3.6,3.6,0,0,1,0,3.06,4.89,4.89,0,0,1-3.65,2.8,16.72,16.72,0,0,1-3.16-.12.63.63,0,0,0-.57.18c-.18.27.16.54.47.63,2.66.8,7.05-.27,8.12-3.24A4,4,0,0,0,65.24,54a8,8,0,0,0-2.13-3.14A14.9,14.9,0,0,0,47.07,46.05Z"/><path class="cls-4" d="M52.59,52.69a3.15,3.15,0,0,0-.53,0l-.9.21a10.92,10.92,0,0,1-1.15.11c-.57.06-.71.06-.53.59a7.85,7.85,0,0,0,1.66,3,9.25,9.25,0,0,0,2.66,1.9,10.06,10.06,0,0,0,1.58.6,2.73,2.73,0,0,0,.82.2c.22,0,.24-.31,0-.48a24.12,24.12,0,0,1-3.4-2.9C52.11,55.1,51.45,53.6,52.59,52.69Z"/><path class="cls-4" d="M43.48,53.63a3.63,3.63,0,1,1,1.45-4.83A3.56,3.56,0,0,1,43.48,53.63Zm-2.87-5.56A2.63,2.63,0,1,0,44,49.26,2.57,2.57,0,0,0,40.61,48.07Z"/><ellipse class="cls-5" cx="66.13" cy="66.13" rx="61.54" ry="61.44"/></g></g></svg>