<svg xmlns="http://www.w3.org/2000/svg" viewBox="0 0 132.26 132.26"><defs><style>.cls-1,.cls-2{fill:#454545;}.cls-1{stroke:#454545;stroke-miterlimit:10;}.cls-2{font-size:19.37px;font-family:KBIZgoH, KBIZgo H;}.cls-3{fill:#fff;opacity:0.33;isolation:isolate;}.cls-4{fill:#666767;}</style></defs><title>키링_기본</title><g id="레이어_2" data-name="레이어 2"><g id="레이어_1-2" data-name="레이어 1"><path class="cls-1" d="M66.13,131.76a65.63,65.63,0,1,1,65.63-65.63A65.7,65.7,0,0,1,66.13,131.76Zm0-127.58a61.95,61.95,0,1,0,61.94,62A62,62,0,0,0,66.13,4.18Z"/><text class="cls-2" transform="translate(7.84 83.91)">키링(O링포함)<tspan x="31.79" y="23.24">+OPP</tspan></text><rect class="cls-3" x="71.11" y="28.26" width="21.2" height="22.27"/><path class="cls-4" d="M92.31,51H71.11a.5.5,0,0,1-.5-.5V23a.5.5,0,0,1,.5-.5h21.2a.5.5,0,0,1,.5.5V50.53A.51.51,0,0,1,92.31,51Zm-20.7-1h20.2V23.52H71.58Z"/><rect class="cls-3" x="83.82" y="30.36" width="21.17" height="23.15"/><rect class="cls-4" x="71.23" y="28.03" width="20.82" height="0.57"/><rect class="cls-4" x="84.04" y="30.11" width="20.82" height="0.57"/><path class="cls-4" d="M105.08,54.06H83.88a.5.5,0,0,1-.5-.5V26.05a.5.5,0,0,1,.5-.5h17.7a.52.52,0,0,1,.35.14l3.56,3.55a.54.54,0,0,1,.14.36v24a.51.51,0,0,1-.54.46Zm-20.7-1h20.2V29.8l-3.26-3.25H84.38Z"/><path class="cls-4" d="M52.55,45.36c.14.09,1.57.32,1.57.37a3.85,3.85,0,0,0,.63-1s.2-.86.06-.78A13.65,13.65,0,0,0,52.55,45.36Z"/><path class="cls-4" d="M42.42,39.93a10.93,10.93,0,1,1,4.7-14.72A10.94,10.94,0,0,1,42.42,39.93ZM33.17,22a9.23,9.23,0,1,0,12.44,4A9.23,9.23,0,0,0,33.17,22Z"/><path class="cls-4" d="M42.53,40.15a1.79,1.79,0,0,0-1.4,1.1,3.48,3.48,0,0,0,0,2.4,2.37,2.37,0,0,0,.55,1L45.24,43,45,42.39h0C44.65,41.18,43.73,40,42.53,40.15Zm-.62,1.44a.93.93,0,0,1,.76-.6c.55-.1,1,.5,1.3,1.1L41.86,43A2.56,2.56,0,0,1,41.91,41.59Z"/><path class="cls-4" d="M45.58,43.7h0l-.32-.62-3.53,1.63a2.4,2.4,0,0,0,.36,1,3.49,3.49,0,0,0,1.79,1.6A1.81,1.81,0,0,0,45.64,47C46.59,46.3,46.25,44.76,45.58,43.7ZM43,45.62l2.1-1c.3.59.4,1.36,0,1.72a.9.9,0,0,1-.94.16A2.4,2.4,0,0,1,43,45.62Z"/><path class="cls-4" d="M47.07,46.05l-1.55,1.52c-.71.7.95,3.22,1.33,3.64,1.43,1.51.59,1.78,2.77,1.78,2.39,0,4.43-1.3,6.72-1.87,2.65-.64,6.51-.18,7.74,2.22a3.6,3.6,0,0,1,0,3.06,4.89,4.89,0,0,1-3.64,2.8,16.79,16.79,0,0,1-3.17-.12.64.64,0,0,0-.57.18c-.18.27.16.54.47.63,2.66.8,7.05-.27,8.12-3.24A4,4,0,0,0,65.24,54a8,8,0,0,0-2.13-3.14A14.9,14.9,0,0,0,47.07,46.05Z"/><path class="cls-4" d="M52.59,52.69a3.23,3.23,0,0,0-.53,0l-.9.21a10.92,10.92,0,0,1-1.15.11c-.56.06-.71.06-.53.59a7.85,7.85,0,0,0,1.66,3,9.25,9.25,0,0,0,2.66,1.9,10.06,10.06,0,0,0,1.58.6,2.73,2.73,0,0,0,.82.2c.22,0,.24-.3,0-.48a24.12,24.12,0,0,1-3.4-2.9C52.11,55.1,51.46,53.6,52.59,52.69Z"/><path class="cls-4" d="M43.48,53.63a3.63,3.63,0,1,1,1.45-4.83A3.56,3.56,0,0,1,43.48,53.63Zm-2.87-5.56A2.63,2.63,0,1,0,44,49.26,2.56,2.56,0,0,0,40.61,48.07Z"/></g></g></svg>