<svg xmlns="http://www.w3.org/2000/svg" viewBox="0 0 132.26 132.26"><defs><style>.cls-1,.cls-2{fill:#9b9b9b;}.cls-1{stroke:#9b9b9b;stroke-miterlimit:10;}.cls-3,.cls-5{fill:#fff;}.cls-3{opacity:0.33;isolation:isolate;}.cls-4{fill:#666767;}.cls-5{opacity:0.2;}</style></defs><title>키링_확정_1</title><g id="레이어_2" data-name="레이어 2"><g id="레이어_1-2" data-name="레이어 1"><path class="cls-1" d="M66.13,131.76a65.63,65.63,0,1,1,65.63-65.63A65.7,65.7,0,0,1,66.13,131.76Zm0-127.58a61.95,61.95,0,1,0,61.94,62A62,62,0,0,0,66.13,4.18Z"/><path class="cls-2" d="M11.87,81a14.89,14.89,0,0,0,1.23-2.1,22.42,22.42,0,0,0,1-2.42H9.37V74.4h5.38c.11-.45.19-.88.26-1.3a8.29,8.29,0,0,0,.09-1.16H9.18V69.83h8.54A17.5,17.5,0,0,1,17.4,73a29.71,29.71,0,0,1-.85,3.34,25.23,25.23,0,0,1-1.21,3.16,17.33,17.33,0,0,1-1.42,2.57Zm8.19-12.32h2.5v17h-2.5Z"/><path class="cls-2" d="M28.52,76.69h6.26v2H26V73H31.7V71.54H26V69.46H34.2V75.1H28.52Zm11.12,6.7a3.34,3.34,0,0,1-.43,1.73,4.13,4.13,0,0,1-1.16,1.27,5.36,5.36,0,0,1-1.66.76,7.13,7.13,0,0,1-1.9.25,7.21,7.21,0,0,1-1.84-.24A5.37,5.37,0,0,1,31,86.43a4.09,4.09,0,0,1-1.2-1.25,3.63,3.63,0,0,1-.05-3.52,3.85,3.85,0,0,1,1.16-1.25,5.47,5.47,0,0,1,1.64-.74,7.76,7.76,0,0,1,1.94-.27,7.21,7.21,0,0,1,1.84.24,5.37,5.37,0,0,1,1.63.73,4.24,4.24,0,0,1,1.17,1.25A3.59,3.59,0,0,1,39.64,83.39Zm-5.15,1.92a3.85,3.85,0,0,0,1-.12,2.7,2.7,0,0,0,.83-.35,1.89,1.89,0,0,0,.57-.59,1.78,1.78,0,0,0,.26-.86,1.7,1.7,0,0,0-.26-.83,2,2,0,0,0-.57-.58,2.71,2.71,0,0,0-.83-.36,4.46,4.46,0,0,0-1-.15,5.3,5.3,0,0,0-1,.14,2.76,2.76,0,0,0-.84.35,1.75,1.75,0,0,0-.59.59,1.55,1.55,0,0,0-.22.84,1.58,1.58,0,0,0,.79,1.43,2.53,2.53,0,0,0,.84.35A4.64,4.64,0,0,0,34.49,85.31Zm2.36-16.54h2.48V78.94H36.85Z"/><path class="cls-2" d="M46,86.86a17.52,17.52,0,0,1-1.62-2.08,11.9,11.9,0,0,1-1.13-2.18,11.57,11.57,0,0,1-.69-2.37,14.65,14.65,0,0,1-.22-2.63,15,15,0,0,1,.24-2.79,11,11,0,0,1,.72-2.36,12.07,12.07,0,0,1,1.19-2.1,22.82,22.82,0,0,1,1.6-2h2.7c-.66.83-1.24,1.62-1.73,2.36a14.36,14.36,0,0,0-1.2,2.23,11.64,11.64,0,0,0-.72,2.26,12.68,12.68,0,0,0-.23,2.43,11.28,11.28,0,0,0,.29,2.56A13.48,13.48,0,0,0,46,82.5a16,16,0,0,0,1.21,2.22c.46.71,1,1.43,1.51,2.14Z"/><path class="cls-2" d="M57,68.9a5.89,5.89,0,0,1,5,2.52A8.18,8.18,0,0,1,63.16,74,12.2,12.2,0,0,1,63.52,77a12.34,12.34,0,0,1-.36,3A8.18,8.18,0,0,1,62,82.54a6.15,6.15,0,0,1-2,1.84,6,6,0,0,1-3,.7,6.18,6.18,0,0,1-3-.7,6,6,0,0,1-2-1.84A7.58,7.58,0,0,1,50.82,80,11.73,11.73,0,0,1,50.45,77a11.85,11.85,0,0,1,.37-3A7.74,7.74,0,0,1,52,71.44a5.69,5.69,0,0,1,5-2.54Zm0,13.95a3.31,3.31,0,0,0,1.87-.51A3.75,3.75,0,0,0,60.06,81a5.85,5.85,0,0,0,.66-1.86A10.83,10.83,0,0,0,60.93,77a11,11,0,0,0-.21-2.16A6.71,6.71,0,0,0,60,73a3.92,3.92,0,0,0-1.21-1.34,3.21,3.21,0,0,0-1.81-.5,3.32,3.32,0,0,0-1.85.5A3.89,3.89,0,0,0,53.94,73a6,6,0,0,0-.7,1.88A10.83,10.83,0,0,0,53,77a11,11,0,0,0,.21,2.16,5.72,5.72,0,0,0,.7,1.87,4,4,0,0,0,1.21,1.35A3.11,3.11,0,0,0,57,82.85Z"/><path class="cls-2" d="M68.7,76.69H75v2H66.2V73h5.67V71.54H66.2V69.46h8.17V75.1H68.7Zm11.11,6.7a3.34,3.34,0,0,1-.43,1.73,4.13,4.13,0,0,1-1.16,1.27,5.36,5.36,0,0,1-1.66.76,7.13,7.13,0,0,1-1.9.25,7.21,7.21,0,0,1-1.84-.24,5.37,5.37,0,0,1-1.63-.73A4.09,4.09,0,0,1,70,85.18a3.63,3.63,0,0,1,0-3.52,3.85,3.85,0,0,1,1.16-1.25,5.47,5.47,0,0,1,1.64-.74,7.76,7.76,0,0,1,1.94-.27,7.21,7.21,0,0,1,1.84.24,5.37,5.37,0,0,1,1.63.73,4,4,0,0,1,1.17,1.25A3.59,3.59,0,0,1,79.81,83.39Zm-5.15,1.92a3.85,3.85,0,0,0,1-.12,2.7,2.7,0,0,0,.83-.35,1.69,1.69,0,0,0,.57-.59,1.9,1.9,0,0,0,.27-.86,1.81,1.81,0,0,0-.27-.83,1.75,1.75,0,0,0-.57-.58,2.71,2.71,0,0,0-.83-.36,4.46,4.46,0,0,0-1-.15,5.3,5.3,0,0,0-1,.14,2.86,2.86,0,0,0-.84.35,1.75,1.75,0,0,0-.59.59,1.55,1.55,0,0,0-.22.84,1.58,1.58,0,0,0,.79,1.43,2.62,2.62,0,0,0,.84.35A4.64,4.64,0,0,0,74.66,85.31ZM77,68.77H79.5V78.94H77Z"/><path class="cls-2" d="M93.86,72v4.73H95.7v2.11H91.07v3.31h6v2.09H82.16V82.17h6.39V78.86H83.71V76.75h1.76V72H83.71V69.91h12V72Zm-6,4.73h3.5V72h-3.5Z"/><path class="cls-2" d="M107.14,72.1a4,4,0,0,1,.91,1.31,3.9,3.9,0,0,1,.33,1.61,3.64,3.64,0,0,1-1.3,2.89,4.12,4.12,0,0,1-1.4.76,5.37,5.37,0,0,1-1.71.27,5.26,5.26,0,0,1-1.64-.25,4,4,0,0,1-1.39-.74,3.66,3.66,0,0,1-1-1.21,3.86,3.86,0,0,1-.4-1.72,4.07,4.07,0,0,1,.31-1.57,3.87,3.87,0,0,1,1-1.35h-2V70.18h3.87V68.42h2.54v1.76h3.87V72.1ZM104,77a1.87,1.87,0,0,0,1.37-.56,2,2,0,0,0,.56-1.51,2.24,2.24,0,0,0-.5-1.5A1.76,1.76,0,0,0,104,72.8a1.85,1.85,0,0,0-1.41.57,2.4,2.4,0,0,0,0,3A1.83,1.83,0,0,0,104,77Zm-1.46,2.71h10.31v7.09H102.51Zm2.4,5h5.49v-3h-5.49Zm8-12.2h2.57V74.6h-2.57v4.1h-2.48v-10h2.48Z"/><path class="cls-2" d="M116.9,86.45c.49-.66,1-1.32,1.39-2a15,15,0,0,0,1.13-2.09,12.79,12.79,0,0,0,.74-2.24,11.44,11.44,0,0,0,.27-2.54,12.5,12.5,0,0,0-.23-2.42,12.88,12.88,0,0,0-.7-2.27,15.45,15.45,0,0,0-1.22-2.23c-.49-.74-1.06-1.53-1.73-2.36h2.7c.59.69,1.13,1.36,1.6,2a11.46,11.46,0,0,1,1.19,2.1,11.58,11.58,0,0,1,.71,2.36A14.08,14.08,0,0,1,123,77.6a14.63,14.63,0,0,1-.23,2.63,12.19,12.19,0,0,1-.66,2.37A14.3,14.3,0,0,1,121,84.78a16.53,16.53,0,0,1-1.62,2.08h-2.2Z"/><path class="cls-2" d="M44.77,98.61v-4.1h2.65v4.1h4v2.33h-4v4.11H44.77v-4.11h-4V98.61Z"/><path class="cls-2" d="M60,92.15a6.14,6.14,0,0,1,3,.69,6.08,6.08,0,0,1,2,1.82,8.28,8.28,0,0,1,1.15,2.6,12.2,12.2,0,0,1,.36,2.94,12.42,12.42,0,0,1-.36,3,8.22,8.22,0,0,1-1.15,2.59,6,6,0,0,1-2,1.84,5.88,5.88,0,0,1-3,.7,6.07,6.07,0,0,1-3-.7,5.86,5.86,0,0,1-2-1.84,7.62,7.62,0,0,1-1.16-2.57,12,12,0,0,1,0-5.92A7.83,7.83,0,0,1,55,94.68a5.69,5.69,0,0,1,5-2.53Zm0,13.94a3.39,3.39,0,0,0,1.87-.5,3.78,3.78,0,0,0,1.23-1.34,6.12,6.12,0,0,0,.67-1.86,11.48,11.48,0,0,0,.2-2.13,11.14,11.14,0,0,0-.21-2.16,6.83,6.83,0,0,0-.68-1.89,3.79,3.79,0,0,0-1.21-1.33,3.13,3.13,0,0,0-1.81-.51,3.24,3.24,0,0,0-1.85.51A3.77,3.77,0,0,0,57,96.19a6,6,0,0,0-.7,1.88,10.83,10.83,0,0,0-.21,2.13,11,11,0,0,0,.21,2.16,5.63,5.63,0,0,0,.7,1.87,3.85,3.85,0,0,0,1.21,1.35A3.13,3.13,0,0,0,60,106.09Z"/><path class="cls-2" d="M71.49,107.83H68.94V92.73h4.69a8,8,0,0,1,2.18.28,5.27,5.27,0,0,1,1.75.84,4.21,4.21,0,0,1,1.15,1.43,4.5,4.5,0,0,1,.42,2,5.06,5.06,0,0,1-.4,2,4,4,0,0,1-1.13,1.49,4.75,4.75,0,0,1-1.82.93,8.54,8.54,0,0,1-2.41.31H71.49Zm0-7.88h1.9a3.55,3.55,0,0,0,2.4-.66,2.45,2.45,0,0,0,.74-2,2.4,2.4,0,0,0-.7-1.81,3.32,3.32,0,0,0-2.38-.69h-2Z"/><path class="cls-2" d="M84,107.83H81.47V92.73h4.69a8,8,0,0,1,2.18.28,5.18,5.18,0,0,1,1.75.84,4.21,4.21,0,0,1,1.15,1.43,4.5,4.5,0,0,1,.42,2,5.06,5.06,0,0,1-.4,2,4,4,0,0,1-1.13,1.49,4.68,4.68,0,0,1-1.82.93,8.49,8.49,0,0,1-2.41.31H84ZM84,100h1.89a3.55,3.55,0,0,0,2.4-.66,2.45,2.45,0,0,0,.74-2,2.4,2.4,0,0,0-.7-1.81A3.3,3.3,0,0,0,86,94.84H84Z"/><rect class="cls-3" x="71.1" y="28.26" width="21.2" height="22.27"/><path class="cls-4" d="M92.3,51H71.1a.5.5,0,0,1-.5-.5V23a.5.5,0,0,1,.5-.5H92.3a.5.5,0,0,1,.5.5V50.53A.5.5,0,0,1,92.3,51ZM71.6,50H91.8V23.52H71.57Z"/><rect class="cls-3" x="83.81" y="30.36" width="21.17" height="23.15"/><rect class="cls-4" x="71.22" y="28.03" width="20.82" height="0.57"/><rect class="cls-4" x="84.03" y="30.11" width="20.82" height="0.57"/><path class="cls-4" d="M105.07,54.06H83.87a.51.51,0,0,1-.5-.5V26.05a.5.5,0,0,1,.5-.5h17.7a.48.48,0,0,1,.35.14l3.56,3.55a.46.46,0,0,1,.14.36v24a.49.49,0,0,1-.53.46Zm-20.7-1h20.2V29.8l-3.26-3.25H84.37Z"/><path class="cls-4" d="M52.55,45.36c.14.09,1.57.32,1.57.37a3.56,3.56,0,0,0,.62-1s.21-.86.07-.78A13.65,13.65,0,0,0,52.55,45.36Z"/><path class="cls-4" d="M42.42,39.93a10.93,10.93,0,1,1,4.7-14.72A10.94,10.94,0,0,1,42.42,39.93ZM33.17,22a9.23,9.23,0,1,0,12.44,4A9.24,9.24,0,0,0,33.17,22Z"/><path class="cls-4" d="M42.53,40.15a1.79,1.79,0,0,0-1.4,1.1,3.48,3.48,0,0,0,0,2.4,2.37,2.37,0,0,0,.55,1L45.24,43,45,42.39h0C44.65,41.18,43.73,40,42.53,40.15Zm-.62,1.44a.91.91,0,0,1,.76-.6c.55-.1,1,.5,1.3,1.1L41.86,43A2.47,2.47,0,0,1,41.91,41.59Z"/><path class="cls-4" d="M45.58,43.7h0l-.32-.62-3.53,1.63a2.27,2.27,0,0,0,.36,1,3.46,3.46,0,0,0,1.79,1.6A1.81,1.81,0,0,0,45.64,47C46.58,46.3,46.25,44.76,45.58,43.7ZM43,45.62l2.1-1c.3.59.4,1.36,0,1.72a.9.9,0,0,1-.94.16A2.4,2.4,0,0,1,43,45.62Z"/><path class="cls-4" d="M47.07,46.05l-1.55,1.52c-.71.7.95,3.22,1.33,3.63,1.43,1.52.58,1.79,2.77,1.79,2.39,0,4.43-1.3,6.72-1.87,2.65-.64,6.51-.18,7.74,2.22a3.6,3.6,0,0,1,0,3.06,4.89,4.89,0,0,1-3.65,2.8,16.72,16.72,0,0,1-3.16-.12.63.63,0,0,0-.57.18c-.18.27.16.54.47.63,2.66.8,7.05-.27,8.12-3.24A4,4,0,0,0,65.24,54a8,8,0,0,0-2.13-3.14A14.9,14.9,0,0,0,47.07,46.05Z"/><path class="cls-4" d="M52.59,52.69a3.15,3.15,0,0,0-.53,0l-.9.21a10.92,10.92,0,0,1-1.15.11c-.57.06-.71.06-.53.59a7.85,7.85,0,0,0,1.66,3,9.25,9.25,0,0,0,2.66,1.9,10.06,10.06,0,0,0,1.58.6,2.73,2.73,0,0,0,.82.2c.22,0,.24-.31,0-.48a24.12,24.12,0,0,1-3.4-2.9C52.11,55.1,51.45,53.6,52.59,52.69Z"/><path class="cls-4" d="M43.48,53.63a3.63,3.63,0,1,1,1.45-4.83A3.56,3.56,0,0,1,43.48,53.63Zm-2.87-5.56A2.63,2.63,0,1,0,44,49.26,2.57,2.57,0,0,0,40.61,48.07Z"/><ellipse class="cls-5" cx="66.13" cy="66.13" rx="61.54" ry="61.44"/></g></g></svg>