<svg xmlns="http://www.w3.org/2000/svg" viewBox="0 0 132.26 132.26"><defs><style>.cls-1,.cls-2{fill:#454545;}.cls-1{stroke:#454545;stroke-miterlimit:10;}</style></defs><title>없음_기본_1</title><g id="레이어_2" data-name="레이어 2"><g id="레이어_1-2" data-name="레이어 1"><path class="cls-1" d="M66.13,131.76a65.63,65.63,0,1,1,65.63-65.63A65.7,65.7,0,0,1,66.13,131.76Zm0-127.58a61.95,61.95,0,1,0,61.94,62A62,62,0,0,0,66.13,4.18Z"/><path class="cls-2" d="M25.71,53.24a8.26,8.26,0,0,1,6.18,2.32,8.57,8.57,0,0,1,2.28,6.27V80.6H28V62.81a4.86,4.86,0,0,0-.86-3.23,3.51,3.51,0,0,0-2.81-1A5.09,5.09,0,0,0,22.3,59a8,8,0,0,0-1.79,1A10.94,10.94,0,0,0,19,61.32c-.41.43-.75.81-1,1.11V80.6H11.91V53.93H18v2.33A10.78,10.78,0,0,1,25.71,53.24Z"/><path class="cls-2" d="M51.63,52.73a13.22,13.22,0,0,1,5.44,1.09,12.65,12.65,0,0,1,4.23,3,14.38,14.38,0,0,1,2.76,4.56,15.3,15.3,0,0,1,1,5.57,19,19,0,0,1-.74,5.23A13.93,13.93,0,0,1,62,76.84a12.36,12.36,0,0,1-4.16,3.32,13.35,13.35,0,0,1-6.06,1.28,12.74,12.74,0,0,1-5.39-1.12,12.24,12.24,0,0,1-4.14-3.07,13.7,13.7,0,0,1-2.64-4.57,16.66,16.66,0,0,1-.93-5.6,18.79,18.79,0,0,1,.74-5.27,13.58,13.58,0,0,1,2.32-4.62,11.65,11.65,0,0,1,4-3.23A13.11,13.11,0,0,1,51.63,52.73Zm0,5.11a5.62,5.62,0,0,0-3.3.92,6.73,6.73,0,0,0-2,2.28,9.57,9.57,0,0,0-1.1,3,15.87,15.87,0,0,0-.3,2.9,13.58,13.58,0,0,0,.54,4,8.49,8.49,0,0,0,1.46,2.9,6,6,0,0,0,2.23,1.82,6.57,6.57,0,0,0,2.79.6,6.4,6.4,0,0,0,2.76-.6,6.09,6.09,0,0,0,2.21-1.82A8.7,8.7,0,0,0,58.3,71a13,13,0,0,0,.54-3.93,12,12,0,0,0-.59-3.86A9.22,9.22,0,0,0,56.7,60.3a6.92,6.92,0,0,0-2.3-1.81A6.2,6.2,0,0,0,51.59,57.84Z"/><path class="cls-2" d="M82.48,53.24a8.26,8.26,0,0,1,6.18,2.32,8.57,8.57,0,0,1,2.28,6.27V80.6H84.81V62.81A4.92,4.92,0,0,0,84,59.58a3.52,3.52,0,0,0-2.81-1,5.1,5.1,0,0,0-2.07.44,8.26,8.26,0,0,0-1.79,1,10.24,10.24,0,0,0-1.46,1.25c-.42.43-.76.81-1,1.11V80.6H68.69V53.93h6.13v2.33A10.74,10.74,0,0,1,82.48,53.24Z"/><path class="cls-2" d="M108.08,53.19a10.6,10.6,0,0,1,5.41,1.3,10.91,10.91,0,0,1,3.7,3.48,15.58,15.58,0,0,1,2.11,5.11,27.32,27.32,0,0,1,.67,6.14H102a8.35,8.35,0,0,0,.39,2.53A6.58,6.58,0,0,0,103.57,74a5.88,5.88,0,0,0,2.14,1.55,7.57,7.57,0,0,0,3.11.58,11.38,11.38,0,0,0,2.49-.28,16.31,16.31,0,0,0,2.39-.69,21.51,21.51,0,0,0,2-.79c.62-.28,1.1-.51,1.44-.7L119.6,78a13.18,13.18,0,0,1-1.46.86,17.62,17.62,0,0,1-2.44,1,32,32,0,0,1-3.23.84,19.37,19.37,0,0,1-3.83.37,13.56,13.56,0,0,1-5-1,12.39,12.39,0,0,1-4.21-2.77A12.86,12.86,0,0,1,96.47,73a15.58,15.58,0,0,1-1.07-6,16,16,0,0,1,.93-5.55A12.9,12.9,0,0,1,99,57.09a11.48,11.48,0,0,1,4-2.88A12.57,12.57,0,0,1,108.08,53.19Zm-.14,5.06a5.14,5.14,0,0,0-3.78,1.68,7.13,7.13,0,0,0-1.93,4.5H113.8a6.43,6.43,0,0,0-.4-2.16,6.87,6.87,0,0,0-1.14-2,6.36,6.36,0,0,0-1.88-1.44A5.31,5.31,0,0,0,107.94,58.25Z"/></g></g></svg>