<svg xmlns="http://www.w3.org/2000/svg" viewBox="0 0 132.26 132.26"><defs><style>.cls-1,.cls-2{fill:#9b9b9b;}.cls-1{stroke:#9b9b9b;stroke-miterlimit:10;}.cls-3{fill:#fff;opacity:0.2;}</style></defs><title>없음_확정_1</title><g id="레이어_2" data-name="레이어 2"><g id="레이어_1-2" data-name="레이어 1"><path class="cls-1" d="M66.13,131.76a65.63,65.63,0,1,1,65.63-65.63A65.7,65.7,0,0,1,66.13,131.76Zm0-127.58a61.95,61.95,0,1,0,61.94,62A62,62,0,0,0,66.13,4.18Z"/><path class="cls-2" d="M25.71,53.49a8.26,8.26,0,0,1,6.18,2.33,8.55,8.55,0,0,1,2.28,6.27V80.86H28V63.06a4.9,4.9,0,0,0-.86-3.23,3.54,3.54,0,0,0-2.81-1,4.94,4.94,0,0,0-2.06.45,8.41,8.41,0,0,0-1.79,1A10.3,10.3,0,0,0,19,61.58c-.41.43-.75.8-1,1.11V80.86H11.91V54.19h6.14v2.32A10.78,10.78,0,0,1,25.71,53.49Z"/><path class="cls-2" d="M51.63,53a13.38,13.38,0,0,1,5.44,1.09,12.82,12.82,0,0,1,4.23,3,14.44,14.44,0,0,1,2.76,4.55,15.39,15.39,0,0,1,1,5.58,18.92,18.92,0,0,1-.74,5.22A13.84,13.84,0,0,1,62,77.09a12.38,12.38,0,0,1-4.16,3.33,13.35,13.35,0,0,1-6.06,1.27,12.77,12.77,0,0,1-5.39-1.11,12.5,12.5,0,0,1-4.14-3.07,13.7,13.7,0,0,1-2.64-4.57,16.66,16.66,0,0,1-.93-5.6,18.81,18.81,0,0,1,.74-5.28,13.67,13.67,0,0,1,2.32-4.62,11.86,11.86,0,0,1,4-3.23A13.11,13.11,0,0,1,51.63,53Zm0,5.11a5.55,5.55,0,0,0-3.3.93,6.73,6.73,0,0,0-2,2.28,9.87,9.87,0,0,0-1.1,3,16,16,0,0,0-.3,2.91,13.58,13.58,0,0,0,.54,4,8.49,8.49,0,0,0,1.46,2.9,5.87,5.87,0,0,0,2.23,1.81,6.61,6.61,0,0,0,2.79.61,6.41,6.41,0,0,0,2.76-.61,6,6,0,0,0,2.21-1.81,8.56,8.56,0,0,0,1.46-2.86,12.94,12.94,0,0,0,.54-3.92,11.94,11.94,0,0,0-.59-3.86,9.38,9.38,0,0,0-1.55-2.93,7.19,7.19,0,0,0-2.3-1.81A6.33,6.33,0,0,0,51.59,58.09Z"/><path class="cls-2" d="M82.48,53.49a8.25,8.25,0,0,1,6.18,2.33,8.55,8.55,0,0,1,2.28,6.27V80.86H84.81V63.06A5,5,0,0,0,84,59.83a3.56,3.56,0,0,0-2.81-1,5,5,0,0,0-2.07.45,8.66,8.66,0,0,0-1.79,1,9.68,9.68,0,0,0-1.46,1.26c-.42.43-.75.8-1,1.11V80.86H68.69V54.19h6.13v2.32A10.78,10.78,0,0,1,82.48,53.49Z"/><path class="cls-2" d="M108.08,53.45a10.6,10.6,0,0,1,5.41,1.3,10.81,10.81,0,0,1,3.7,3.48,15.58,15.58,0,0,1,2.11,5.11,27.23,27.23,0,0,1,.68,6.13H102a8.37,8.37,0,0,0,.39,2.54,6.39,6.39,0,0,0,1.24,2.2,6,6,0,0,0,2.13,1.56,7.59,7.59,0,0,0,3.12.58,11.36,11.36,0,0,0,2.48-.28,16.31,16.31,0,0,0,2.39-.7,19.13,19.13,0,0,0,2-.79c.62-.27,1.1-.51,1.44-.69l2.41,4.41a13.18,13.18,0,0,1-1.46.86,17.62,17.62,0,0,1-2.44,1,32.09,32.09,0,0,1-3.23.83,18.65,18.65,0,0,1-3.83.37,13.36,13.36,0,0,1-5-1,12.22,12.22,0,0,1-4.21-2.76,12.86,12.86,0,0,1-2.92-4.44,15.58,15.58,0,0,1-1.07-6,16,16,0,0,1,.93-5.55A12.9,12.9,0,0,1,99,57.35a11.48,11.48,0,0,1,4-2.88A12.57,12.57,0,0,1,108.08,53.45Zm-.14,5.06a5.18,5.18,0,0,0-3.78,1.67,7.18,7.18,0,0,0-1.93,4.51H113.8a6.43,6.43,0,0,0-.4-2.16,6.87,6.87,0,0,0-1.14-2,6.24,6.24,0,0,0-1.88-1.44A5.31,5.31,0,0,0,107.94,58.51Z"/><ellipse class="cls-3" cx="66.11" cy="66.13" rx="61.54" ry="61.44"/></g></g></svg>