<svg xmlns="http://www.w3.org/2000/svg" viewBox="0 0 132.26 132.26"><defs><style>.cls-1,.cls-2{fill:#454545;}.cls-1{stroke:#454545;stroke-miterlimit:10;}</style></defs><title>단면_기본</title><g id="레이어_2" data-name="레이어 2"><g id="레이어_1-2" data-name="레이어 1"><path class="cls-1" d="M66.13,131.76a65.63,65.63,0,1,1,65.63-65.63A65.7,65.7,0,0,1,66.13,131.76Zm0-127.58a61.95,61.95,0,1,0,61.94,62A62,62,0,0,0,66.13,4.18Z"/><path class="cls-2" d="M35.26,49.57V62h14v4.87h-20V44.69H48.82v4.88Zm5.39,31.22H60.11v5H34.56V70.7h6.09ZM59.42,54.58h6.13v5.07H59.42V72H53.33V42.55h6.09Z"/><path class="cls-2" d="M90.4,49.43H97V42.55h5.94V72H97V62H90.4v4.87H70.15V44.69H90.4Zm-5.9,0H76.05V62.11H84.5Zm-.37,31.36H103.6v5H78.05V70.7h6.08ZM90.4,57.32H97V54.07H90.4Z"/></g></g></svg>