<svg xmlns="http://www.w3.org/2000/svg" viewBox="0 0 132.26 132.26"><defs><style>.cls-1,.cls-2{fill:#9b9b9b;}.cls-1{stroke:#9b9b9b;stroke-miterlimit:10;}.cls-3{fill:#fff;opacity:0.2;}</style></defs><title>단면_확정_2</title><g id="레이어_2" data-name="레이어 2"><g id="레이어_1-2" data-name="레이어 1"><path class="cls-1" d="M66.13,131.76a65.63,65.63,0,1,1,65.63-65.63A65.7,65.7,0,0,1,66.13,131.76Zm0-127.58a61.95,61.95,0,1,0,61.94,62A62,62,0,0,0,66.13,4.18Z"/><path class="cls-2" d="M35.26,49.82V62.27h14v4.88h-20V44.94H48.82v4.88ZM40.65,81H60.11v5H34.56V71h6.09Zm18.77-26.2h6.13V59.9H59.42V72.26H53.33V42.81h6.09Z"/><path class="cls-2" d="M90.4,49.68H97V42.81h5.94V72.26H97v-10H90.4v4.88H70.15V44.94H90.4Zm-5.9,0H76.05V62.37H84.5ZM84.13,81H103.6v5H78.05V71h6.08ZM90.4,57.58H97V54.33H90.4Z"/><ellipse class="cls-3" cx="66.11" cy="66.13" rx="61.54" ry="61.44"/></g></g></svg>