<svg xmlns="http://www.w3.org/2000/svg" viewBox="0 0 132.26 132.26"><defs><style>.cls-1,.cls-2{fill:#454545;}.cls-1{stroke:#454545;stroke-miterlimit:10;}</style></defs><title>OPP개별포장_기본_1</title><g id="레이어_2" data-name="레이어 2"><g id="레이어_1-2" data-name="레이어 1"><path class="cls-1" d="M66.13,131.76a65.63,65.63,0,1,1,65.63-65.63A65.7,65.7,0,0,1,66.13,131.76Zm0-127.58a61.95,61.95,0,1,0,61.94,62A62,62,0,0,0,66.13,4.18Z"/><path class="cls-2" d="M46,25.26a9.29,9.29,0,0,1,8,4,12.81,12.81,0,0,1,1.81,4.1A19.23,19.23,0,0,1,56.33,38a19.47,19.47,0,0,1-.58,4.71,12.9,12.9,0,0,1-1.81,4.1,9.49,9.49,0,0,1-3.2,2.9,9.27,9.27,0,0,1-4.69,1.1,9.57,9.57,0,0,1-4.76-1.1,9.18,9.18,0,0,1-3.19-2.9,12.19,12.19,0,0,1-1.84-4.07,18.75,18.75,0,0,1-.58-4.65,19.09,19.09,0,0,1,.58-4.7,12.4,12.4,0,0,1,1.84-4.11,9,9,0,0,1,7.86-4Zm0,22a5.26,5.26,0,0,0,2.95-.8,5.88,5.88,0,0,0,1.94-2.11,9.76,9.76,0,0,0,1.06-2.94,17.88,17.88,0,0,0,.32-3.36,16.78,16.78,0,0,0-.34-3.41,10,10,0,0,0-1.07-3,6,6,0,0,0-1.91-2.11,5,5,0,0,0-2.86-.8,5.19,5.19,0,0,0-2.92.8,6,6,0,0,0-1.94,2.08,9.5,9.5,0,0,0-1.1,3A16.47,16.47,0,0,0,39.75,38a16.78,16.78,0,0,0,.34,3.41,9.26,9.26,0,0,0,1.1,3,6.11,6.11,0,0,0,1.91,2.12A4.85,4.85,0,0,0,46,47.29Z"/><path class="cls-2" d="M64.1,50h-4V26.18h7.4a13.11,13.11,0,0,1,3.46.44A8.19,8.19,0,0,1,73.67,28a6.6,6.6,0,0,1,1.82,2.27,7.09,7.09,0,0,1,.66,3.15,7.87,7.87,0,0,1-.63,3.24A6.44,6.44,0,0,1,73.73,39a7.66,7.66,0,0,1-2.86,1.46,13.59,13.59,0,0,1-3.81.49h-3Zm0-12.45h3a5.66,5.66,0,0,0,3.8-1,3.94,3.94,0,0,0,1.16-3.09A3.85,3.85,0,0,0,71,30.6a5.31,5.31,0,0,0-3.77-1.09H64.1Z"/><path class="cls-2" d="M83.88,50h-4V26.18h7.4a13,13,0,0,1,3.45.44A8.15,8.15,0,0,1,93.46,28a6.6,6.6,0,0,1,1.82,2.27,7.09,7.09,0,0,1,.66,3.15,7.87,7.87,0,0,1-.63,3.24A6.44,6.44,0,0,1,93.52,39a7.66,7.66,0,0,1-2.86,1.46,13.59,13.59,0,0,1-3.81.49h-3Zm0-12.45h3a5.61,5.61,0,0,0,3.79-1,3.91,3.91,0,0,0,1.17-3.09,3.85,3.85,0,0,0-1.1-2.86A5.31,5.31,0,0,0,87,29.51H83.88Z"/><path class="cls-2" d="M25.74,63.43a30.07,30.07,0,0,1-.46,5.26,40.08,40.08,0,0,1-1.22,5.11,42.11,42.11,0,0,1-1.79,4.76,43.9,43.9,0,0,1-2.16,4.23L16.72,81.2a44.85,44.85,0,0,0,3.53-8.09,31,31,0,0,0,1.36-6.34H13.48V63.43Zm7.1,10.19H31V88.18H27.18V61.78H31v8.5h1.81V61.66h3.82V88.57H32.84Z"/><path class="cls-2" d="M63.12,76.37h-4V73.56h-3.7V76H42.29V62.64h3.82v3.94h5.51V62.64h3.82v2.69h3.7V61.69h4ZM51.62,69.8H46.11v3h5.51ZM50.88,87h12.6v3.16H47v-8H59.23V80.65H47V77.56H63.15v7.83H50.88Zm4.56-16.51h3.7V68.36h-3.7Z"/><path class="cls-2" d="M85.75,66.89v7.46h2.91v3.34H81.35v5.23h9.48v3.3H67.28v-3.3H77.37V77.69H69.72V74.35h2.79V66.89H69.72V63.56H88.66v3.33Zm-9.39,7.46H81.9V66.89H76.36Z"/><path class="cls-2" d="M104.22,66.31l5,8.78L106,77l-4.44-8q-1.12,4-5.53,8.23l-2.72-2.39a23,23,0,0,0,5.59-8.53H94.19V63.16h14.93v3.15Zm11.2,18.26a5.86,5.86,0,0,1-.69,2.89,6.43,6.43,0,0,1-1.82,2.06,8.38,8.38,0,0,1-2.61,1.24,10.85,10.85,0,0,1-3,.42,11.23,11.23,0,0,1-2.92-.4,8.66,8.66,0,0,1-2.61-1.2,6.25,6.25,0,0,1-1.88-2.08,5.82,5.82,0,0,1-.72-3,5.63,5.63,0,0,1,2.54-4.93,8.28,8.28,0,0,1,2.6-1.2,11.67,11.67,0,0,1,3-.45,10.59,10.59,0,0,1,2.88.4,8.56,8.56,0,0,1,2.6,1.19,6.57,6.57,0,0,1,1.89,2.07A5.67,5.67,0,0,1,115.42,84.57ZM107.28,88a6,6,0,0,0,1.52-.19,4.57,4.57,0,0,0,1.36-.63,3.31,3.31,0,0,0,.93-1.07,3.09,3.09,0,0,0,.35-1.53,3,3,0,0,0-.35-1.49,3.45,3.45,0,0,0-.93-1,4,4,0,0,0-1.35-.64,6.53,6.53,0,0,0-1.62-.25,5,5,0,0,0-1.47.22,3.9,3.9,0,0,0-1.31.64,3.23,3.23,0,0,0-.94,1.07,3.13,3.13,0,0,0-.35,1.5,3.19,3.19,0,0,0,.34,1.47,3.45,3.45,0,0,0,.92,1.1,4.11,4.11,0,0,0,1.33.64A5.78,5.78,0,0,0,107.28,88Zm7.89-20.24h4.07v3.3h-4.07v6.36h-4V61.78h4Z"/><path class="cls-2" d="M22.84,108a9,9,0,0,1-1-1.29,7.26,7.26,0,0,1-.71-1.35,7,7,0,0,1-.42-1.46,9.42,9.42,0,0,1-.14-1.63,9.21,9.21,0,0,1,.15-1.73,6.72,6.72,0,0,1,.45-1.46,7.66,7.66,0,0,1,.73-1.31,13.34,13.34,0,0,1,1-1.25h1.67c-.41.51-.77,1-1.07,1.46a9.45,9.45,0,0,0-.75,1.38,7,7,0,0,0-.58,2.91,6.77,6.77,0,0,0,.18,1.58,7.1,7.1,0,0,0,.5,1.45,10.79,10.79,0,0,0,.74,1.38c.29.44.6.88.94,1.32Z"/><path class="cls-2" d="M28.81,97.4a2.83,2.83,0,0,1,1.27.27,2.79,2.79,0,0,1,.92.75,3.22,3.22,0,0,1,.56,1.09,4.66,4.66,0,0,1,.21,1.31,4.45,4.45,0,0,1-.18,1.28,3,3,0,0,1-.53,1.06,2.66,2.66,0,0,1-.92.73,3.14,3.14,0,0,1-1.33.32,2.84,2.84,0,0,1-1.26-.27,2.92,2.92,0,0,1-.92-.75A3.27,3.27,0,0,1,26,102.1a4.44,4.44,0,0,1-.2-1.32A4.06,4.06,0,0,1,26,99.54a3.75,3.75,0,0,1,.56-1.09,3,3,0,0,1,.93-.76A2.72,2.72,0,0,1,28.81,97.4Zm0,5.43a1.14,1.14,0,0,0,.64-.18,1.42,1.42,0,0,0,.44-.47,2.44,2.44,0,0,0,.25-.64,3.55,3.55,0,0,0,.09-.72,2.88,2.88,0,0,0-.09-.71,2.23,2.23,0,0,0-.24-.64,1.35,1.35,0,0,0-.45-.47,1.22,1.22,0,0,0-.68-.21,1.13,1.13,0,0,0-.65.18,1.55,1.55,0,0,0-.44.48,2.2,2.2,0,0,0-.25.65,3.53,3.53,0,0,0-.08.72,3.25,3.25,0,0,0,.08.69,1.78,1.78,0,0,0,.25.64,1.55,1.55,0,0,0,.44.48A1.25,1.25,0,0,0,28.83,102.83Zm7.22-2.69v1.31H34.24v5.87H32.69V96.76h1.55v3.38Z"/><path class="cls-2" d="M46,106.28H36.72V105H46Zm-1.1-8.66a28.65,28.65,0,0,1-.2,3.4A12.87,12.87,0,0,1,44,104l-1.45-.29c.1-.34.18-.67.25-1s.14-.62.2-.9H37.92v-1.31h5.26c0-.53.07-1,.07-1.54H37.68V97.62Z"/><path class="cls-2" d="M49.09,101.14H53v1.25H47.58V99.15h3.48v-.67H47.58V97.19h5v3.24H49.09ZM51,106.7H55.9v1.23H49.43v-3.12h4.8v-.6h-4.8V103h6.36v3.07H51Zm4.82-4.17H54.23V96.77h1.56Z"/><path class="cls-2" d="M70.45,105v1.3H61.21V105Zm-8.94-3a12.35,12.35,0,0,0,3.54-4.62h1.37L70,102.06l-1.14.94-2.94-4a11.55,11.55,0,0,1-3.38,3.92Z"/><path class="cls-2" d="M73.53,98.45v1.09h2.94v1.26H73.53v1.1h3.18v1.26H72.07v-6h4.52v1.26Zm2.24,8.19h5.46v1.29h-7v-4h1.54Zm3.71-9.88H81v7.61h-1.5v-3.55h-.73v3.52H77.26V96.81h1.49v2.76h.73Z"/><path class="cls-2" d="M91.86,105v1.3H82.62V105Zm-6.53-6v2.93h5.55v1.3H83.79V97.62h7v1.32Z"/><path class="cls-2" d="M102.17,102v1.3H92.93V102h2.33v-1.27a2.3,2.3,0,0,1-.91-.73A1.85,1.85,0,0,1,94,98.88a1.94,1.94,0,0,1,.25-1A2.22,2.22,0,0,1,95,97.2a3.82,3.82,0,0,1,1.14-.43,7.47,7.47,0,0,1,1.49-.14,7.27,7.27,0,0,1,1.46.13,3.44,3.44,0,0,1,1.12.41,2.19,2.19,0,0,1,.71.71,2,2,0,0,1,.25,1,2,2,0,0,1-.27,1.06,2.06,2.06,0,0,1-.8.71V102Zm-7.75,4a1.82,1.82,0,0,1,.27-1,2.32,2.32,0,0,1,.72-.71,3.58,3.58,0,0,1,1-.42,4.86,4.86,0,0,1,1.14-.13,4.92,4.92,0,0,1,1.14.13,3.84,3.84,0,0,1,1,.42,2.22,2.22,0,0,1,.75.71,1.71,1.71,0,0,1,.3,1,1.76,1.76,0,0,1-.28,1,2.32,2.32,0,0,1-.72.71,4,4,0,0,1-1,.42,4.47,4.47,0,0,1-1.15.14,5,5,0,0,1-1.15-.13,3.42,3.42,0,0,1-1-.43,2.4,2.4,0,0,1-.74-.71A1.78,1.78,0,0,1,94.42,106Zm1.19-7.12a.77.77,0,0,0,.55.75,3.84,3.84,0,0,0,1.44.23,6.26,6.26,0,0,0,.78,0,2.37,2.37,0,0,0,.65-.17,1.33,1.33,0,0,0,.42-.3.73.73,0,0,0,.15-.46.75.75,0,0,0-.14-.47,1,1,0,0,0-.4-.29,3,3,0,0,0-.63-.16l-.82-.07a6.56,6.56,0,0,0-.79,0,2.23,2.23,0,0,0-.63.16,1.27,1.27,0,0,0-.43.3A.74.74,0,0,0,95.61,98.9ZM99.24,106a.73.73,0,0,0-.14-.45,1.12,1.12,0,0,0-.37-.31,1.74,1.74,0,0,0-.53-.17,3.05,3.05,0,0,0-.6-.06,2.76,2.76,0,0,0-.57.06,2.13,2.13,0,0,0-.54.16,1.1,1.1,0,0,0-.39.31.68.68,0,0,0-.16.46.66.66,0,0,0,.15.43,1.1,1.1,0,0,0,.39.31A2,2,0,0,0,97,107a3.05,3.05,0,0,0,.6.06,3.64,3.64,0,0,0,.56,0,2.19,2.19,0,0,0,.53-.17,1.19,1.19,0,0,0,.39-.3A.68.68,0,0,0,99.24,106Zm-1.64-4.89c-.27,0-.53,0-.77,0V102h1.69v-.89l-.45,0Z"/><path class="cls-2" d="M103.48,107.75c.3-.41.59-.82.85-1.23a9,9,0,0,0,.71-1.29,7.79,7.79,0,0,0,.45-1.39,7.13,7.13,0,0,0,.17-1.57,8,8,0,0,0-.14-1.5,7.63,7.63,0,0,0-.44-1.41,10.5,10.5,0,0,0-.75-1.38c-.31-.46-.66-1-1.07-1.46h1.67a15,15,0,0,1,1,1.25,7.72,7.72,0,0,1,.74,1.31,7.3,7.3,0,0,1,.44,1.46,9.17,9.17,0,0,1,.16,1.73,9.42,9.42,0,0,1-.14,1.63,7,7,0,0,1-.42,1.46,7.91,7.91,0,0,1-.71,1.35,9.74,9.74,0,0,1-1,1.29h-1.37Z"/></g></g></svg>