<svg xmlns="http://www.w3.org/2000/svg" viewBox="0 0 132.26 132.26"><defs><style>.cls-1,.cls-2{fill:#454545;}.cls-1{stroke:#454545;stroke-miterlimit:10;}.cls-3{fill:#fff;opacity:0.33;isolation:isolate;}.cls-4{fill:#666767;}</style></defs><title>OPP만_기본_1</title><g id="레이어_2" data-name="레이어 2"><g id="레이어_1-2" data-name="레이어 1"><path class="cls-1" d="M66.13,131.76a65.63,65.63,0,1,1,65.63-65.63A65.7,65.7,0,0,1,66.13,131.76Zm0-127.58a61.95,61.95,0,1,0,61.94,62A62,62,0,0,0,66.13,4.18Z"/><path class="cls-2" d="M35.73,75A8.55,8.55,0,0,1,40,76a8.67,8.67,0,0,1,2.88,2.56,11.78,11.78,0,0,1,1.61,3.66A17.09,17.09,0,0,1,45,86.36a17.37,17.37,0,0,1-.51,4.2,11.72,11.72,0,0,1-1.61,3.65A8.53,8.53,0,0,1,40,96.8a8.35,8.35,0,0,1-4.19,1,8.56,8.56,0,0,1-4.25-1,8.16,8.16,0,0,1-2.85-2.59,10.73,10.73,0,0,1-1.63-3.63,16.54,16.54,0,0,1-.52-4.14,16.88,16.88,0,0,1,.52-4.19,11.12,11.12,0,0,1,1.63-3.67,8,8,0,0,1,7-3.57Zm0,19.64a4.72,4.72,0,0,0,2.63-.71,5.31,5.31,0,0,0,1.73-1.88A8.48,8.48,0,0,0,41,89.44a15.73,15.73,0,0,0,.29-3,15.29,15.29,0,0,0-.3-3,8.92,8.92,0,0,0-1-2.66,5.35,5.35,0,0,0-1.7-1.89,4.47,4.47,0,0,0-2.55-.71,4.67,4.67,0,0,0-2.61.71,5.42,5.42,0,0,0-1.73,1.86,8.49,8.49,0,0,0-1,2.64,15.14,15.14,0,0,0-.3,3,15.36,15.36,0,0,0,.3,3,8.16,8.16,0,0,0,1,2.63,5.67,5.67,0,0,0,1.7,1.9A4.41,4.41,0,0,0,35.73,94.65Z"/><path class="cls-2" d="M51.9,97.1H48.3V75.83h6.6a11.67,11.67,0,0,1,3.09.39,7.08,7.08,0,0,1,2.45,1.19,5.71,5.71,0,0,1,1.62,2,6.19,6.19,0,0,1,.59,2.81,7.09,7.09,0,0,1-.56,2.89,5.61,5.61,0,0,1-1.59,2.1A7,7,0,0,1,58,88.54a12.35,12.35,0,0,1-3.4.43H51.9Zm0-11.1h2.68A5,5,0,0,0,58,85.07a3.49,3.49,0,0,0,1-2.75,3.39,3.39,0,0,0-1-2.55,4.66,4.66,0,0,0-3.35-1H51.9Z"/><path class="cls-2" d="M69.55,97.1H66V75.83h6.6a11.67,11.67,0,0,1,3.09.39,7.08,7.08,0,0,1,2.45,1.19,5.71,5.71,0,0,1,1.62,2,6.19,6.19,0,0,1,.59,2.81,6.93,6.93,0,0,1-.56,2.89,5.61,5.61,0,0,1-1.59,2.1,6.92,6.92,0,0,1-2.55,1.31,12.35,12.35,0,0,1-3.4.43H69.55Zm0-11.1h2.68a5,5,0,0,0,3.38-.93,3.49,3.49,0,0,0,1-2.75,3.39,3.39,0,0,0-1-2.55,4.66,4.66,0,0,0-3.35-1H69.55Z"/><path class="cls-2" d="M95.93,89H84V76H95.93ZM92.47,78.77h-5v7.45h5Zm-.93,18.42H103v2.94H88V91.27h3.57Zm11-15.39h3.62v3h-3.62V92H99V74.73h3.55Z"/><rect class="cls-3" x="49.77" y="33.66" width="21.2" height="22.27"/><path class="cls-4" d="M71,56.43H49.77a.5.5,0,0,1-.5-.5V28.42a.51.51,0,0,1,.5-.5H71a.5.5,0,0,1,.5.5V55.93A.5.5,0,0,1,71,56.43Zm-20.7-1h20.2V28.92H50.24Z"/><rect class="cls-3" x="62.48" y="35.76" width="21.17" height="23.15"/><rect class="cls-4" x="49.89" y="33.43" width="20.82" height="0.57"/><rect class="cls-4" x="62.7" y="35.51" width="20.82" height="0.57"/><path class="cls-4" d="M83.74,59.46H62.54A.51.51,0,0,1,62,59V31.45a.51.51,0,0,1,.5-.5h17.7a.5.5,0,0,1,.35.14l3.56,3.55a.54.54,0,0,1,.14.36V59a.5.5,0,0,1-.53.47Zm-20.7-1h20.2V35.2L80,32H63Z"/></g></g></svg>