<svg xmlns="http://www.w3.org/2000/svg" viewBox="0 0 132.26 132.26"><defs><style>.cls-1,.cls-2{fill:#9b9b9b;}.cls-1{stroke:#9b9b9b;stroke-miterlimit:10;}.cls-2{font-size:27.28px;font-family:KBIZgoH, KBIZgo H;}.cls-3{fill:#fff;opacity:0.33;isolation:isolate;}.cls-4{fill:#666767;}</style></defs><title>OPP만_모션</title><g id="레이어_2" data-name="레이어 2"><g id="레이어_1-2" data-name="레이어 1"><path class="cls-1" d="M66.13,131.76a65.63,65.63,0,1,1,65.63-65.63A65.7,65.7,0,0,1,66.13,131.76Zm0-127.58a61.95,61.95,0,1,0,61.94,62A62,62,0,0,0,66.13,4.18Z"/><text class="cls-2" transform="translate(25.77 96.15)">OPP만</text><rect class="cls-3" x="49.77" y="33.66" width="21.2" height="22.27"/><path class="cls-4" d="M71,56.43H49.77a.5.5,0,0,1-.5-.5V28.42a.51.51,0,0,1,.5-.5H71a.5.5,0,0,1,.5.5V55.93A.5.5,0,0,1,71,56.43Zm-20.7-1h20.2V28.92H50.24Z"/><rect class="cls-3" x="62.48" y="35.76" width="21.17" height="23.15"/><rect class="cls-4" x="49.89" y="33.43" width="20.82" height="0.57"/><rect class="cls-4" x="62.7" y="35.51" width="20.82" height="0.57"/><path class="cls-4" d="M83.74,59.46H62.54A.51.51,0,0,1,62,59V31.45a.51.51,0,0,1,.5-.5h17.7a.5.5,0,0,1,.35.14l3.56,3.55a.54.54,0,0,1,.14.36V59a.5.5,0,0,1-.53.47Zm-20.7-1h20.2V35.2L80,32H63Z"/></g></g></svg>