<svg xmlns="http://www.w3.org/2000/svg" viewBox="0 0 132.26 132.26"><defs><style>.cls-1,.cls-2{fill:#454545;}.cls-1{stroke:#454545;stroke-miterlimit:10;}.cls-3{fill:#666767;}.cls-4{fill:#fff;opacity:0.33;isolation:isolate;}</style></defs><title>O링+휴대폰줄_기본_1</title><g id="레이어_2" data-name="레이어 2"><g id="레이어_1-2" data-name="레이어 1"><path class="cls-1" d="M66.13,131.76a65.63,65.63,0,1,1,65.63-65.63A65.7,65.7,0,0,1,66.13,131.76Zm0-127.58a61.95,61.95,0,1,0,61.94,62A62,62,0,0,0,66.13,4.18Z"/><path class="cls-2" d="M16.9,71A5.85,5.85,0,0,1,22,73.51a8,8,0,0,1,1.14,2.6,11.73,11.73,0,0,1,.37,2.94,12,12,0,0,1-.37,3A7.89,7.89,0,0,1,22,84.63a6,6,0,0,1-2,1.84,5.92,5.92,0,0,1-3,.7,6,6,0,0,1-3-.7,5.77,5.77,0,0,1-2-1.84,7.84,7.84,0,0,1-1.17-2.57,12.35,12.35,0,0,1,0-5.92,8,8,0,0,1,1.17-2.61,5.89,5.89,0,0,1,2-1.84A6,6,0,0,1,16.9,71Zm0,13.94a3.36,3.36,0,0,0,1.87-.5A3.78,3.78,0,0,0,20,83.1a5.86,5.86,0,0,0,.67-1.86,10.69,10.69,0,0,0,.2-2.13A11.14,11.14,0,0,0,20.66,77,6.52,6.52,0,0,0,20,75.06a3.79,3.79,0,0,0-1.21-1.33A3.11,3.11,0,0,0,17,73.22a3.27,3.27,0,0,0-1.85.51A3.77,3.77,0,0,0,13.88,75a6.29,6.29,0,0,0-.69,1.88A10.13,10.13,0,0,0,13,79.05a10.28,10.28,0,0,0,.22,2.16,5.85,5.85,0,0,0,.69,1.87,4,4,0,0,0,1.21,1.35A3.13,3.13,0,0,0,16.9,84.94Z"/><path class="cls-2" d="M28.64,78.78H34.9v2H26.14V75.12h5.68V73.63H26.14V71.56h8.18v5.63H28.64Zm11.12,6.7a3.41,3.41,0,0,1-.44,1.74,4.21,4.21,0,0,1-1.15,1.27,5.7,5.7,0,0,1-1.66.75,7.26,7.26,0,0,1-3.74,0,5.14,5.14,0,0,1-1.63-.73,4.17,4.17,0,0,1-1.2-1.24,3.65,3.65,0,0,1-.05-3.53A4,4,0,0,1,31,82.5a5.65,5.65,0,0,1,1.65-.74,8.81,8.81,0,0,1,1.94-.27,6.8,6.8,0,0,1,1.84.25,5.3,5.3,0,0,1,1.62.72,4.39,4.39,0,0,1,1.18,1.25A3.7,3.7,0,0,1,39.76,85.48ZM34.61,87.4a4.44,4.44,0,0,0,1-.11,3.09,3.09,0,0,0,.83-.35,2,2,0,0,0,.57-.59,1.82,1.82,0,0,0,.26-.87,1.7,1.7,0,0,0-.26-.83,2,2,0,0,0-.57-.58,3.47,3.47,0,0,0-.83-.36,3.59,3.59,0,0,0-1.95,0,2.91,2.91,0,0,0-.84.35,1.75,1.75,0,0,0-.59.59,1.55,1.55,0,0,0-.23.84,1.57,1.57,0,0,0,.22.86,1.78,1.78,0,0,0,.58.58,2.91,2.91,0,0,0,.84.35A5.36,5.36,0,0,0,34.61,87.4ZM37,70.86h2.48V81H37Z"/><path class="cls-2" d="M46.38,77.47V73.36H49v4.11h4v2.32H49V83.9H46.38V79.79h-4V77.47Z"/><path class="cls-2" d="M70.32,83.3H66.78v4.8H64.32V83.3H61.38v4.8H58.92V83.3H55.41V81.2H70.32ZM56.4,72.51h5.09V70.65H64v1.86h5V74.6h-2a3.57,3.57,0,0,1,.79.91,2.31,2.31,0,0,1,.31,1.24,2.67,2.67,0,0,1-.52,1.66,4.19,4.19,0,0,1-1.32,1.15,6.79,6.79,0,0,1-1.77.65,9.11,9.11,0,0,1-1.81.2A8.57,8.57,0,0,1,61,80.22a6.24,6.24,0,0,1-1.74-.64,4.06,4.06,0,0,1-1.33-1.14,2.88,2.88,0,0,1-.58-1.71,2.25,2.25,0,0,1,.31-1.23,3.84,3.84,0,0,1,.77-.9h-2Zm3.5,4.14a1.19,1.19,0,0,0,.29.8,2.43,2.43,0,0,0,.72.54,3.77,3.77,0,0,0,.93.31,5.27,5.27,0,0,0,.91.09,5,5,0,0,0,.88-.09,4.32,4.32,0,0,0,.94-.31,2.3,2.3,0,0,0,.73-.52,1.18,1.18,0,0,0,.3-.82,1.13,1.13,0,0,0-.28-.76,2.45,2.45,0,0,0-.71-.55,3.42,3.42,0,0,0-.93-.33,4.85,4.85,0,0,0-1-.14,5.1,5.1,0,0,0-.87.13,3.51,3.51,0,0,0-.91.32,2.33,2.33,0,0,0-.75.54A1.13,1.13,0,0,0,59.9,76.65Z"/><path class="cls-2" d="M75.32,73.84v7.31h5.21v2H72.92V71.75h7.46v2.09Zm9.57,4.54H83.75V87.6H81.31V70.88h2.44v5.38h1.14V70.8h2.42v17H84.89Z"/><path class="cls-2" d="M101.7,73.32v3h1.84v2.07H98.91v1.54h6V82H90V79.93h6.39V78.39H91.55V76.32h1.76v-3H91.55V71.21h12v2.11ZM94.81,86.74h8.36v2.1H92.31V83.2h2.5Zm.94-10.42h3.51v-3H95.75Z"/><path class="cls-2" d="M111.19,86.9h8.58v1.95h-11V84.13h8.35v-.8h-8.35V81.42h4V80.2h-6.18V78.1h14.91v2.1h-6.19v1.22h4.16v4.65h-8.33Zm-3.06-15.67h12.05v2.11h-3.12l3.66,2.73-1.84,1.59-4.63-3.53a15.28,15.28,0,0,1-5,3.51l-1.71-1.71a13.37,13.37,0,0,0,4.15-2.59h-3.55Z"/><path class="cls-2" d="M44.77,100.71V96.6h2.65v4.11h4V103h-4v4.11H44.77V103h-4v-2.32Z"/><path class="cls-2" d="M60,94.24a5.92,5.92,0,0,1,5.06,2.52,8.33,8.33,0,0,1,1.14,2.59,12.06,12.06,0,0,1,0,5.93,8.49,8.49,0,0,1-1.14,2.6,6.19,6.19,0,0,1-2,1.84,6,6,0,0,1-3,.69,6.12,6.12,0,0,1-3-.69,5.9,5.9,0,0,1-2-1.84,7.78,7.78,0,0,1-1.16-2.58,12.23,12.23,0,0,1-.37-3,12.45,12.45,0,0,1,.37-3A8,8,0,0,1,55,96.78a5.82,5.82,0,0,1,2-1.84A5.88,5.88,0,0,1,60,94.24Zm0,13.94a3.28,3.28,0,0,0,1.87-.5,3.75,3.75,0,0,0,1.23-1.33,6.32,6.32,0,0,0,.67-1.86,11.67,11.67,0,0,0,.2-2.14,11,11,0,0,0-.21-2.15,6.31,6.31,0,0,0-.68-1.89A3.82,3.82,0,0,0,61.88,97a3.21,3.21,0,0,0-1.81-.5,3.34,3.34,0,0,0-1.85.5A3.89,3.89,0,0,0,57,98.29a6.11,6.11,0,0,0-.7,1.88,10.69,10.69,0,0,0-.21,2.13,11.14,11.14,0,0,0,.21,2.16,6,6,0,0,0,.7,1.87,3.91,3.91,0,0,0,1.21,1.34A3.13,3.13,0,0,0,60,108.18Z"/><path class="cls-2" d="M71.5,109.93H68.94V94.82h4.69a8.11,8.11,0,0,1,2.19.28,5.22,5.22,0,0,1,1.74.84,4.15,4.15,0,0,1,1.15,1.44,4.45,4.45,0,0,1,.42,2,5,5,0,0,1-.4,2.06,4,4,0,0,1-1.13,1.49,5,5,0,0,1-1.81.93,9,9,0,0,1-2.42.31H71.5Zm0-7.88h1.89a3.58,3.58,0,0,0,2.41-.66,2.49,2.49,0,0,0,.73-2,2.41,2.41,0,0,0-.7-1.81,3.3,3.3,0,0,0-2.38-.69h-2Z"/><path class="cls-2" d="M84,109.93H81.47V94.82h4.69a8,8,0,0,1,2.19.28,5.22,5.22,0,0,1,1.74.84,4.15,4.15,0,0,1,1.15,1.44,4.45,4.45,0,0,1,.42,2,5,5,0,0,1-.4,2.06,4,4,0,0,1-1.13,1.49,5,5,0,0,1-1.81.93,9,9,0,0,1-2.41.31H84Zm0-7.88h1.9a3.55,3.55,0,0,0,2.4-.66,2.49,2.49,0,0,0,.73-2,2.44,2.44,0,0,0-.69-1.81A3.35,3.35,0,0,0,86,96.93H84Z"/><path class="cls-3" d="M28.39,50.73a7.22,7.22,0,0,1,0-14.43v.81a6.41,6.41,0,1,0,6.41,6.41h0a6.26,6.26,0,0,0-6.13-6.39h-.13v-.82a7.07,7.07,0,0,1,7.07,7h0v.15A7.24,7.24,0,0,1,28.39,50.73Z"/><path class="cls-3" d="M34.41,53.88A7.21,7.21,0,1,1,37,39.94h0l-.29.75A6.4,6.4,0,1,0,40.39,49,6.27,6.27,0,0,0,37,40.79h-.12l.29-.76a7.08,7.08,0,0,1,4,9.15v.13A7.26,7.26,0,0,1,34.41,53.88Z"/><rect class="cls-4" x="74.44" y="29.02" width="21.2" height="22.27"/><path class="cls-3" d="M95.64,51.79H74.44a.5.5,0,0,1-.5-.5V23.78a.5.5,0,0,1,.5-.5h21.2a.5.5,0,0,1,.5.5V51.29A.51.51,0,0,1,95.64,51.79Zm-20.7-1h20.2V24.28H74.91Z"/><rect class="cls-4" x="87.15" y="31.12" width="21.17" height="23.15"/><rect class="cls-3" x="74.56" y="28.79" width="20.82" height="0.57"/><rect class="cls-3" x="87.37" y="30.87" width="20.82" height="0.57"/><path class="cls-3" d="M108.41,54.82H87.21a.51.51,0,0,1-.5-.5V26.81a.5.5,0,0,1,.5-.5h17.7a.5.5,0,0,1,.35.14L108.82,30a.54.54,0,0,1,.14.36v24a.5.5,0,0,1-.54.46Zm-20.7-1h20.2V30.56l-3.26-3.25H87.71Z"/><path class="cls-3" d="M57.48,47.2a65.11,65.11,0,0,1-9.84-9,40.08,40.08,0,0,1-7.25-11.12c-.64-1.59-1.39-3.95-.76-6a6,6,0,0,1,6.48-3.77,5.5,5.5,0,0,1,2.75,1.46C50.4,20.23,50.7,22.07,51,24c.08.48.16.95.27,1.46a69,69,0,0,0,1.93,7.17c1.48,4.57,3.35,9,5.46,13.91l-.5.2c-2.11-4.92-4-9.36-5.48-13.95a69,69,0,0,1-2-7.24c-.1-.51-.19-1-.27-1.49-.3-1.83-.6-3.56-2-4.95A4.83,4.83,0,0,0,46,17.77a5.42,5.42,0,0,0-5.9,3.38c-.57,1.92.16,4.15.75,5.66a39.45,39.45,0,0,0,7.15,11,65.42,65.42,0,0,0,9.78,9Z"/><path class="cls-3" d="M58.89,44.3c-1-.89-2.43.5-2.9,1.48s.55,2,1.06,2.64l2.12,3.22a2.79,2.79,0,0,0,.65.76c.8.55,1.63-.33,2.13-.86a1.3,1.3,0,0,0,.42-.63c.21-1.11-.93-2.49-1.46-3.39l-1.66-2.79A2.11,2.11,0,0,0,58.89,44.3Z"/><path class="cls-3" d="M62,51.68l-.67.57c-.3.26.31,1.45.46,1.66a3.48,3.48,0,0,0,2.34,1.26,11,11,0,0,0,2.78-.43c1.09-.13,2.65.29,3.1,1.41A1.77,1.77,0,0,1,70,57.47a1.89,1.89,0,0,1-1.56,1,6.26,6.26,0,0,1-1.28-.23c-.09,0-.19,0-.24,0s.1.23.13.31c1.08.51,2.87.29,3.38-.94a2,2,0,0,0,0-1.17,4.24,4.24,0,0,0-.79-1.5S66.29,51,62,51.68Z"/><path class="cls-3" d="M65.52,52a4.32,4.32,0,0,0,.63.25,2,2,0,0,0,.26-.39s.11-.37,0-.33A4.59,4.59,0,0,0,65.52,52Z"/><path class="cls-3" d="M65.37,55.23h-.22l-.37.05c-.14,0-.32,0-.47,0s-.29,0-.23.22a3.65,3.65,0,0,0,.61,1.38,4.21,4.21,0,0,0,1,1,6.61,6.61,0,0,0,.63.35c.09,0,.24.14.33.13s.1-.12,0-.21a11.15,11.15,0,0,1-1.33-1.5C65.11,56.24,64.9,55.55,65.37,55.23Z"/></g></g></svg>