<svg xmlns="http://www.w3.org/2000/svg" viewBox="0 0 132.26 132.26"><defs><style>.cls-1,.cls-2{fill:#454545;}.cls-1{stroke:#454545;stroke-miterlimit:10;}.cls-2{font-size:19.37px;font-family:KBIZgoH, KBIZgo H;}.cls-3{fill:#666767;}.cls-4{fill:#fff;opacity:0.33;isolation:isolate;}</style></defs><title>O링+휴대폰줄_기본</title><g id="레이어_2" data-name="레이어 2"><g id="레이어_1-2" data-name="레이어 1"><path class="cls-1" d="M66.13,131.76a65.63,65.63,0,1,1,65.63-65.63A65.7,65.7,0,0,1,66.13,131.76Zm0-127.58a61.95,61.95,0,1,0,61.94,62A62,62,0,0,0,66.13,4.18Z"/><text class="cls-2" transform="translate(9.83 86.01)">O링+휴대폰줄<tspan x="29.8" y="23.24">+OPP</tspan></text><path class="cls-3" d="M28.39,50.73a7.22,7.22,0,0,1,0-14.43v.81a6.41,6.41,0,1,0,6.41,6.41h0a6.26,6.26,0,0,0-6.13-6.39h-.13v-.82a7.07,7.07,0,0,1,7.07,7h0v.15A7.24,7.24,0,0,1,28.39,50.73Z"/><path class="cls-3" d="M34.41,53.88A7.21,7.21,0,1,1,37,39.94h0l-.29.75A6.4,6.4,0,1,0,40.39,49,6.27,6.27,0,0,0,37,40.79h-.12l.29-.76a7.08,7.08,0,0,1,4,9.15v.13A7.26,7.26,0,0,1,34.41,53.88Z"/><rect class="cls-4" x="74.44" y="29.02" width="21.2" height="22.27"/><path class="cls-3" d="M95.64,51.79H74.44a.5.5,0,0,1-.5-.5V23.78a.5.5,0,0,1,.5-.5h21.2a.5.5,0,0,1,.5.5V51.29A.51.51,0,0,1,95.64,51.79Zm-20.7-1h20.2V24.28H74.91Z"/><rect class="cls-4" x="87.15" y="31.12" width="21.17" height="23.15"/><rect class="cls-3" x="74.56" y="28.79" width="20.82" height="0.57"/><rect class="cls-3" x="87.37" y="30.87" width="20.82" height="0.57"/><path class="cls-3" d="M108.41,54.82H87.21a.51.51,0,0,1-.5-.5V26.81a.5.5,0,0,1,.5-.5h17.7a.5.5,0,0,1,.35.14L108.82,30a.54.54,0,0,1,.14.36v24a.5.5,0,0,1-.54.46Zm-20.7-1h20.2V30.56l-3.26-3.25H87.71Z"/><path class="cls-3" d="M57.48,47.2a65.11,65.11,0,0,1-9.84-9,40.08,40.08,0,0,1-7.25-11.12c-.64-1.59-1.39-3.95-.76-6a6,6,0,0,1,6.48-3.77,5.5,5.5,0,0,1,2.75,1.46C50.4,20.23,50.7,22.07,51,24c.08.48.16.95.27,1.46a69,69,0,0,0,1.93,7.17c1.48,4.57,3.35,9,5.46,13.91l-.5.2c-2.11-4.92-4-9.36-5.48-13.95a69,69,0,0,1-2-7.24c-.1-.51-.19-1-.27-1.49-.3-1.83-.6-3.56-2-4.95A4.83,4.83,0,0,0,46,17.77a5.42,5.42,0,0,0-5.9,3.38c-.57,1.92.16,4.15.75,5.66a39.45,39.45,0,0,0,7.15,11,65.42,65.42,0,0,0,9.78,9Z"/><path class="cls-3" d="M58.89,44.3c-1-.89-2.43.5-2.9,1.48s.55,2,1.06,2.64l2.12,3.22a2.79,2.79,0,0,0,.65.76c.8.55,1.63-.33,2.13-.86a1.3,1.3,0,0,0,.42-.63c.21-1.11-.93-2.49-1.46-3.39l-1.66-2.79A2.11,2.11,0,0,0,58.89,44.3Z"/><path class="cls-3" d="M62,51.68l-.67.57c-.3.26.31,1.45.46,1.66a3.48,3.48,0,0,0,2.34,1.26,11,11,0,0,0,2.78-.43c1.09-.13,2.65.29,3.1,1.41A1.77,1.77,0,0,1,70,57.47a1.89,1.89,0,0,1-1.56,1,6.26,6.26,0,0,1-1.28-.23c-.09,0-.19,0-.24,0s.1.23.13.31c1.08.51,2.87.29,3.38-.94a2,2,0,0,0,0-1.17,4.24,4.24,0,0,0-.79-1.5S66.29,51,62,51.68Z"/><path class="cls-3" d="M65.52,52a4.32,4.32,0,0,0,.63.25,2,2,0,0,0,.26-.39s.11-.37,0-.33A4.59,4.59,0,0,0,65.52,52Z"/><path class="cls-3" d="M65.37,55.23h-.22l-.37.05c-.14,0-.32,0-.47,0s-.29,0-.23.22a3.65,3.65,0,0,0,.61,1.38,4.21,4.21,0,0,0,1,1,6.61,6.61,0,0,0,.63.35c.09,0,.24.14.33.13s.1-.12,0-.21a11.15,11.15,0,0,1-1.33-1.5C65.11,56.24,64.9,55.55,65.37,55.23Z"/></g></g></svg>