<svg xmlns="http://www.w3.org/2000/svg" viewBox="0 0 132.26 132.26"><defs><style>.cls-1,.cls-3{fill:#454545;}.cls-1{stroke:#454545;stroke-miterlimit:10;}.cls-2{fill:#666767;}.cls-4{fill:#fff;opacity:0.33;isolation:isolate;}</style></defs><title>O링_기본_1</title><g id="레이어_2" data-name="레이어 2"><g id="레이어_1-2" data-name="레이어 1"><path class="cls-1" d="M66.13,131.76a65.63,65.63,0,1,1,65.63-65.63A65.7,65.7,0,0,1,66.13,131.76Zm0-127.58a61.95,61.95,0,1,0,61.94,62A62,62,0,0,0,66.13,4.18Z"/><path class="cls-2" d="M41.56,43.81a7.22,7.22,0,0,1,0-14.43v.81A6.41,6.41,0,1,0,48,36.6h0a6.26,6.26,0,0,0-6.13-6.39h-.13v-.82a7.07,7.07,0,0,1,7.07,7h0v.15A7.25,7.25,0,0,1,41.56,43.81Z"/><path class="cls-2" d="M47.58,47A7.13,7.13,0,0,1,45,46.48,7.21,7.21,0,1,1,50.18,33h0l-.29.75a6.4,6.4,0,1,0,3.67,8.28,6.28,6.28,0,0,0-3.41-8.18H50l.29-.76a7.08,7.08,0,0,1,4,9.15v.13A7.26,7.26,0,0,1,47.58,47Z"/><path class="cls-3" d="M39.75,63.22a6.65,6.65,0,0,1,3.3.76,6.75,6.75,0,0,1,2.24,2,9,9,0,0,1,1.25,2.83,13.36,13.36,0,0,1,0,6.49,9,9,0,0,1-1.25,2.84,6.7,6.7,0,0,1-2.22,2,6.48,6.48,0,0,1-3.25.77,6.65,6.65,0,0,1-3.3-.77,6.39,6.39,0,0,1-2.21-2A8.24,8.24,0,0,1,33,75.32a13,13,0,0,1-.41-3.22A13.16,13.16,0,0,1,33,68.85,8.39,8.39,0,0,1,34.31,66a6.34,6.34,0,0,1,2.19-2A6.48,6.48,0,0,1,39.75,63.22Zm0,15.26a3.71,3.71,0,0,0,2-.55,4.21,4.21,0,0,0,1.35-1.46,7,7,0,0,0,.73-2,12.87,12.87,0,0,0,.22-2.33,12.26,12.26,0,0,0-.23-2.36,7.26,7.26,0,0,0-.75-2.07,4.23,4.23,0,0,0-1.32-1.46,3.44,3.44,0,0,0-2-.55,3.61,3.61,0,0,0-2,.55,4.3,4.3,0,0,0-1.34,1.44,6.41,6.41,0,0,0-.76,2.06A11.3,11.3,0,0,0,35.45,72a11.59,11.59,0,0,0,.24,2.36,6.13,6.13,0,0,0,.76,2,4.39,4.39,0,0,0,1.32,1.48A3.47,3.47,0,0,0,39.75,78.48Z"/><path class="cls-3" d="M52.6,71.74h6.84v2.2H49.86V67.73h6.21V66.1H49.86V63.83h9V70H52.6Zm12.16,7.33a3.8,3.8,0,0,1-.47,1.9A4.54,4.54,0,0,1,63,82.36a5.92,5.92,0,0,1-1.82.82,7.74,7.74,0,0,1-4.09,0,5.75,5.75,0,0,1-1.78-.79A4.5,4.5,0,0,1,54,81a3.67,3.67,0,0,1-.53-1.94A3.78,3.78,0,0,1,54,77.18a4.26,4.26,0,0,1,1.27-1.37A6.17,6.17,0,0,1,57,75a8.61,8.61,0,0,1,2.12-.29,7.7,7.7,0,0,1,2,.26,5.77,5.77,0,0,1,1.78.8,4.49,4.49,0,0,1,1.28,1.36A4,4,0,0,1,64.76,79.07Zm-5.64,2.1A4.05,4.05,0,0,0,60.18,81a3,3,0,0,0,.92-.38,2.1,2.1,0,0,0,.62-.64,2.17,2.17,0,0,0,.29-1,2,2,0,0,0-.29-.91,2.07,2.07,0,0,0-.62-.63,3.66,3.66,0,0,0-.92-.4A5.1,5.1,0,0,0,59.1,77a6.32,6.32,0,0,0-1.05.15,3.3,3.3,0,0,0-.92.38,2,2,0,0,0-.64.65,1.65,1.65,0,0,0-.25.92,1.69,1.69,0,0,0,.24.93,1.84,1.84,0,0,0,.63.64A3,3,0,0,0,58,81,4.86,4.86,0,0,0,59.12,81.17Zm2.59-18.1h2.71V74.2H61.71Z"/><path class="cls-3" d="M77.48,74.11H68.24V64h9.24Zm-2.69-8H70.93v5.79h3.86Zm-.72,14.31H83v2.29H71.29V75.85h2.78Zm8.54-12h2.82v2.31H82.61v5.63H79.85V63h2.76Z"/><path class="cls-3" d="M91.3,70.3V65.81h2.9V70.3h4.34v2.54H94.2v4.49H91.3V72.84H87V70.3Z"/><path class="cls-3" d="M52.15,88.65a6.65,6.65,0,0,1,3.3.77,6.58,6.58,0,0,1,2.23,2,8.59,8.59,0,0,1,1.25,2.84,13,13,0,0,1,.41,3.22,13.12,13.12,0,0,1-.41,3.26,8.59,8.59,0,0,1-1.25,2.84,6.27,6.27,0,0,1-5.46,2.78,6.76,6.76,0,0,1-3.3-.76,6.32,6.32,0,0,1-2.21-2,8.45,8.45,0,0,1-1.28-2.82,13.46,13.46,0,0,1-.4-3.22,13.71,13.71,0,0,1,.4-3.25,8.6,8.6,0,0,1,1.28-2.85,6.22,6.22,0,0,1,2.19-2A6.48,6.48,0,0,1,52.15,88.65Zm0,15.26a3.63,3.63,0,0,0,2.05-.55,4.1,4.1,0,0,0,1.34-1.46,6.67,6.67,0,0,0,.74-2,12.87,12.87,0,0,0,.22-2.33,11.59,11.59,0,0,0-.24-2.36,7,7,0,0,0-.74-2.07,4.32,4.32,0,0,0-1.32-1.46,3.46,3.46,0,0,0-2-.55,3.58,3.58,0,0,0-2,.55,4.21,4.21,0,0,0-1.34,1.44,6.67,6.67,0,0,0-.77,2.06,12,12,0,0,0-.23,2.33,12.34,12.34,0,0,0,.23,2.36,6.51,6.51,0,0,0,.77,2,4.36,4.36,0,0,0,1.32,1.47A3.44,3.44,0,0,0,52.15,103.91Z"/><path class="cls-3" d="M64.72,105.82h-2.8V89.29h5.13a9.17,9.17,0,0,1,2.4.3,5.62,5.62,0,0,1,1.9.93,4.3,4.3,0,0,1,1.26,1.57,4.8,4.8,0,0,1,.46,2.18,5.39,5.39,0,0,1-.43,2.24,4.41,4.41,0,0,1-1.24,1.64,5.27,5.27,0,0,1-2,1,9.31,9.31,0,0,1-2.63.34H64.72Zm0-8.63H66.8a3.92,3.92,0,0,0,2.63-.72,2.74,2.74,0,0,0,.8-2.14,2.64,2.64,0,0,0-.76-2,3.67,3.67,0,0,0-2.61-.75H64.72Z"/><path class="cls-3" d="M78.43,105.82h-2.8V89.29h5.13a9.17,9.17,0,0,1,2.4.3,5.76,5.76,0,0,1,1.91.93,4.51,4.51,0,0,1,1.26,1.57,4.93,4.93,0,0,1,.45,2.18,5.39,5.39,0,0,1-.43,2.24,4.3,4.3,0,0,1-1.24,1.64,5.3,5.3,0,0,1-2,1,9.44,9.44,0,0,1-2.64.34H78.43Zm0-8.63h2.08a3.92,3.92,0,0,0,2.63-.72,2.74,2.74,0,0,0,.8-2.14,2.64,2.64,0,0,0-.76-2,3.67,3.67,0,0,0-2.61-.75H78.43Z"/><rect class="cls-4" x="61.77" y="26.56" width="21.2" height="22.27"/><path class="cls-2" d="M83,49.33H61.77a.5.5,0,0,1-.5-.5V21.32a.51.51,0,0,1,.5-.5H83a.5.5,0,0,1,.5.5V48.83A.5.5,0,0,1,83,49.33Zm-20.7-1h20.2V21.82H62.24Z"/><rect class="cls-4" x="74.48" y="28.66" width="21.17" height="23.15"/><rect class="cls-2" x="61.89" y="26.33" width="20.82" height="0.57"/><rect class="cls-2" x="74.7" y="28.41" width="20.82" height="0.57"/><path class="cls-2" d="M95.74,52.36H74.54a.51.51,0,0,1-.5-.5V24.35a.51.51,0,0,1,.5-.5h17.7a.5.5,0,0,1,.35.14l3.56,3.55a.54.54,0,0,1,.14.36v24a.49.49,0,0,1-.53.46Zm-20.7-1h20.2V28.1L92,24.85H75Z"/></g></g></svg>