<svg xmlns="http://www.w3.org/2000/svg" viewBox="0 0 132.26 132.26"><defs><style>.cls-1,.cls-2{fill:#9b9b9b;}.cls-1{stroke:#9b9b9b;stroke-miterlimit:10;}.cls-3{fill:#fff;opacity:0.2;}</style></defs><title>오링조립_확정_1</title><g id="레이어_2" data-name="레이어 2"><g id="레이어_1-2" data-name="레이어 1"><path class="cls-1" d="M66.13,131.76a65.63,65.63,0,1,1,65.63-65.63A65.7,65.7,0,0,1,66.13,131.76Zm0-127.58a61.95,61.95,0,1,0,61.94,62A62,62,0,0,0,66.13,4.18Z"/><path class="cls-2" d="M45.07,36.74a8.09,8.09,0,0,1-.7,3.45,8.17,8.17,0,0,1-1.86,2.61,9.28,9.28,0,0,1-2.75,1.77,14.58,14.58,0,0,1-3.34,1v5.73H47.73v3.95H19.63V51.27h12V45.58a14.06,14.06,0,0,1-3.39-.86A9.62,9.62,0,0,1,25.39,43a8.19,8.19,0,0,1-2-2.67,8.28,8.28,0,0,1-.77-3.68,8.39,8.39,0,0,1,.9-4,7.94,7.94,0,0,1,2.46-2.82,10.92,10.92,0,0,1,3.58-1.72,17.82,17.82,0,0,1,4.34-.66,15.45,15.45,0,0,1,4,.55,11.72,11.72,0,0,1,3.61,1.68,9,9,0,0,1,2.57,2.88A8.24,8.24,0,0,1,45.07,36.74Zm-17.74-.07a4.54,4.54,0,0,0,.53,2.27A4.48,4.48,0,0,0,29.3,40.5a6.69,6.69,0,0,0,2.08.94,9.77,9.77,0,0,0,2.44.31,10.39,10.39,0,0,0,2.34-.28,6.57,6.57,0,0,0,2.12-.89A4.73,4.73,0,0,0,39.78,39a4.59,4.59,0,0,0,.58-2.36,4.5,4.5,0,0,0-.55-2.3,5,5,0,0,0-1.46-1.6,6.7,6.7,0,0,0-2.1-.94,11,11,0,0,0-2.43-.34,10,10,0,0,0-2.39.29,6.21,6.21,0,0,0-2,.91,5.21,5.21,0,0,0-1.48,1.65A4.76,4.76,0,0,0,27.33,36.67Z"/><path class="cls-2" d="M57.26,40.94H69.05v3.8H52.55V34h10.7V31.23H52.55v-3.9H68V38H57.26ZM78.21,53.57a6.35,6.35,0,0,1-.82,3.27,7.85,7.85,0,0,1-2.17,2.39,10.21,10.21,0,0,1-3.14,1.42,13.49,13.49,0,0,1-3.58.48A13.24,13.24,0,0,1,65,60.67,9.9,9.9,0,0,1,62,59.3,7.82,7.82,0,0,1,59.7,57a6.81,6.81,0,0,1-.09-6.64A7.45,7.45,0,0,1,61.79,48a10.32,10.32,0,0,1,3.1-1.39,15.6,15.6,0,0,1,3.65-.51,13.24,13.24,0,0,1,3.47.46,9.9,9.9,0,0,1,3.06,1.37,7.86,7.86,0,0,1,2.21,2.35A6.84,6.84,0,0,1,78.21,53.57ZM68.5,57.19A7.9,7.9,0,0,0,70.33,57a5.66,5.66,0,0,0,1.57-.66A3.66,3.66,0,0,0,73,55.2a3.56,3.56,0,0,0,.5-1.63A3.39,3.39,0,0,0,73,52a3.71,3.71,0,0,0-1.07-1.09,6,6,0,0,0-1.57-.68A8,8,0,0,0,68.47,50a9.17,9.17,0,0,0-1.81.25,5.43,5.43,0,0,0-1.59.66A3.46,3.46,0,0,0,64,52a3,3,0,0,0-.42,1.59,3,3,0,0,0,.4,1.61A3.34,3.34,0,0,0,65,56.27a5.38,5.38,0,0,0,1.59.66A9.57,9.57,0,0,0,68.5,57.19ZM73,26h4.67V45.18H73Z"/><path class="cls-2" d="M100.11,45H84.2V27.58h15.91ZM95.48,31.31H88.83v10h6.65ZM94.24,55.94h15.29v4H89.45V48h4.79ZM109,35.36h4.85v4H109v9.71H104.2V25.9H109Z"/><path class="cls-2" d="M52.66,95.08H64.34V99H36.23V95.08H47.91V86.39h4.75ZM39,72H61.75v3.94H53.13l9.79,10.44-3.47,3L50.51,79.31a29.39,29.39,0,0,1-10.26,9.92L37.15,86A31.47,31.47,0,0,0,47.22,75.91H39Z"/><path class="cls-2" d="M73.87,83.94H85.66v3.8H69.16V77.37H79.85V74.93H69.16V71h15.4V81.31H73.87Zm15.91,5.59h4.49v14.16H74.34V89.53H78.8v3.39h11Zm0,7.26h-11v3h11Zm4.46-9.05H89.56v-18h4.68Z"/><ellipse class="cls-3" cx="66.13" cy="66.13" rx="61.54" ry="61.44"/></g></g></svg>