<svg xmlns="http://www.w3.org/2000/svg" viewBox="0 0 132.26 132.26"><defs><style>.cls-1,.cls-5{fill:#fff;}.cls-1{opacity:0.2;}.cls-2,.cls-3{fill:#9b9b9b;}.cls-2{stroke:#9b9b9b;stroke-miterlimit:10;}.cls-4{fill:#666767;}.cls-5{opacity:0.33;isolation:isolate;}</style></defs><title>O링+군번줄_확정_1</title><g id="레이어_2" data-name="레이어 2"><g id="레이어_1-2" data-name="레이어 1"><ellipse class="cls-1" cx="66.13" cy="66.13" rx="61.54" ry="61.44"/><path class="cls-2" d="M66.13,131.76a65.63,65.63,0,1,1,65.63-65.63A65.7,65.7,0,0,1,66.13,131.76Zm0-127.58a61.95,61.95,0,1,0,61.94,62A62,62,0,0,0,66.13,4.18Z"/><path class="cls-3" d="M22.06,62.22a6.64,6.64,0,0,1,3.29.76,6.72,6.72,0,0,1,2.24,2,9,9,0,0,1,1.25,2.84,13,13,0,0,1,.4,3.22,13.19,13.19,0,0,1-.4,3.27,9.13,9.13,0,0,1-1.25,2.84,6.7,6.7,0,0,1-2.22,2,6.46,6.46,0,0,1-3.25.76,6.68,6.68,0,0,1-3.3-.76,6.39,6.39,0,0,1-2.21-2,8.43,8.43,0,0,1-1.27-2.82,13,13,0,0,1-.4-3.22,13.23,13.23,0,0,1,.4-3.26A8.77,8.77,0,0,1,16.61,65a6.22,6.22,0,0,1,5.45-2.77Zm0,15.25a3.62,3.62,0,0,0,2-.55,4,4,0,0,0,1.35-1.46,6.6,6.6,0,0,0,.73-2,12.1,12.1,0,0,0,.22-2.33,12.37,12.37,0,0,0-.23-2.37,7.07,7.07,0,0,0-.74-2.06A4.19,4.19,0,0,0,24.1,65.2a3.49,3.49,0,0,0-2-.55,3.63,3.63,0,0,0-2,.55,4.23,4.23,0,0,0-1.35,1.44A6.75,6.75,0,0,0,18,68.7,11.3,11.3,0,0,0,17.75,71,11.62,11.62,0,0,0,18,73.4a6.35,6.35,0,0,0,.76,2,4.27,4.27,0,0,0,1.32,1.47A3.4,3.4,0,0,0,22.06,77.47Z"/><path class="cls-3" d="M34.9,70.74h6.85v2.2H32.17V66.73h6.21V65.1H32.17V62.83h8.94V69H34.9Zm12.16,7.33a3.7,3.7,0,0,1-.47,1.9,4.6,4.6,0,0,1-1.26,1.38,5.87,5.87,0,0,1-1.83.83,8,8,0,0,1-2.07.28,7.74,7.74,0,0,1-2-.27,6.11,6.11,0,0,1-1.78-.79A4.75,4.75,0,0,1,36.32,80a3.7,3.7,0,0,1-.53-1.94,3.75,3.75,0,0,1,.48-1.92,4.22,4.22,0,0,1,1.26-1.37,5.91,5.91,0,0,1,1.8-.8,9.19,9.19,0,0,1,2.12-.3,7.61,7.61,0,0,1,2,.27,5.65,5.65,0,0,1,1.78.79,4.52,4.52,0,0,1,1.28,1.37A3.77,3.77,0,0,1,47.06,78.07Zm-5.63,2.1A4.66,4.66,0,0,0,42.49,80a3,3,0,0,0,.91-.38A2.14,2.14,0,0,0,44,79a2,2,0,0,0,.29-.94,1.88,1.88,0,0,0-.29-.91,2.1,2.1,0,0,0-.62-.64,3.25,3.25,0,0,0-.91-.39A4.69,4.69,0,0,0,41.41,76a4.59,4.59,0,0,0-1,.15,2.83,2.83,0,0,0-.92.38,2,2,0,0,0-.65.65,1.73,1.73,0,0,0-.24.92,1.69,1.69,0,0,0,.23.93,1.93,1.93,0,0,0,.63.64,3.24,3.24,0,0,0,.93.38A6.23,6.23,0,0,0,41.43,80.17ZM44,62.07h2.72V73.19H44Z"/><path class="cls-3" d="M54.31,69.29V64.8h2.91v4.49h4.34v2.55H57.22v4.49H54.31V71.84H50V69.29Z"/><path class="cls-3" d="M64.19,71.07H80.51v2.27h-6v3.9H71.69v-3.9h-7.5Zm14.18-8.6a19.34,19.34,0,0,1-1.32,8l-2.54-.36a16.79,16.79,0,0,0,1-5.32H66.1V62.47Zm-8.92,17H78.6v2.29H66.71v-6.6h2.74Z"/><path class="cls-3" d="M89.81,62.68h2.65v4.16h2.59V62h2.71V75.44H95.05V69.15H92.46v4.09H83.35V62.68H86v3.37h3.81Zm0,5.6H86V71h3.81ZM89.2,79.45H98v2.29H86.42V74.85H89.2Z"/><path class="cls-3" d="M105.65,79.62H115v2.14H103V76.59h9.13v-.87H103v-2.1h4.41V72.28h-6.77V70H117v2.29H110.2v1.34h4.56V78.7h-9.11ZM102.3,62.47h13.18v2.31h-3.41l4,3-2,1.74L109,65.65a16.66,16.66,0,0,1-5.49,3.83l-1.86-1.86a14.56,14.56,0,0,0,4.54-2.84H102.3Z"/><path class="cls-3" d="M42.75,94.73v-4.5h2.9v4.5H50v2.54H45.65v4.49h-2.9V97.27H38.41V94.73Z"/><path class="cls-3" d="M59.43,87.65A6.41,6.41,0,0,1,65,90.4a8.9,8.9,0,0,1,1.25,2.84,13,13,0,0,1,0,6.49A8.8,8.8,0,0,1,65,102.57a6.67,6.67,0,0,1-2.21,2,6.48,6.48,0,0,1-3.25.76,6.65,6.65,0,0,1-3.3-.76,6.51,6.51,0,0,1-2.22-2,8.43,8.43,0,0,1-1.27-2.82,13,13,0,0,1-.4-3.22,13.15,13.15,0,0,1,.4-3.25A8.59,8.59,0,0,1,54,90.43a6.23,6.23,0,0,1,5.45-2.78Zm0,15.26a3.71,3.71,0,0,0,2-.55,4.22,4.22,0,0,0,1.34-1.47,6.35,6.35,0,0,0,.73-2,12,12,0,0,0,.23-2.33,11.52,11.52,0,0,0-.24-2.36,7,7,0,0,0-.74-2.07,4.14,4.14,0,0,0-1.32-1.46,3.46,3.46,0,0,0-2-.55,3.58,3.58,0,0,0-2,.55,4,4,0,0,0-1.34,1.44,6.7,6.7,0,0,0-.77,2,12.14,12.14,0,0,0-.23,2.34,12.34,12.34,0,0,0,.23,2.36,6.36,6.36,0,0,0,.77,2,4.29,4.29,0,0,0,1.32,1.48A3.42,3.42,0,0,0,59.43,102.91Z"/><path class="cls-3" d="M72,104.82H69.2V88.28h5.13a9.17,9.17,0,0,1,2.4.31,5.6,5.6,0,0,1,1.9.92,4.47,4.47,0,0,1,1.26,1.57,4.83,4.83,0,0,1,.46,2.18,5.64,5.64,0,0,1-.43,2.25,4.37,4.37,0,0,1-1.24,1.63,5.43,5.43,0,0,1-2,1,9.31,9.31,0,0,1-2.63.34H72Zm0-8.63h2.08a3.87,3.87,0,0,0,2.62-.72,2.72,2.72,0,0,0,.81-2.14,2.64,2.64,0,0,0-.76-2,3.62,3.62,0,0,0-2.61-.76H72Z"/><path class="cls-3" d="M85.71,104.82h-2.8V88.28H88a9.17,9.17,0,0,1,2.4.31,5.75,5.75,0,0,1,1.91.92,4.7,4.7,0,0,1,1.26,1.57,5,5,0,0,1,.45,2.18,5.47,5.47,0,0,1-.43,2.25,4.37,4.37,0,0,1-1.24,1.63,5.46,5.46,0,0,1-2,1,9.44,9.44,0,0,1-2.64.34H85.71Zm0-8.63h2.08a3.92,3.92,0,0,0,2.63-.72,2.75,2.75,0,0,0,.8-2.14,2.64,2.64,0,0,0-.76-2,3.62,3.62,0,0,0-2.61-.76H85.71Z"/><path class="cls-4" d="M28.55,44.78a7.22,7.22,0,0,1,0-14.43v.81A6.41,6.41,0,1,0,35,37.57h0a6.25,6.25,0,0,0-6.12-6.39H28.7v-.82a7.05,7.05,0,0,1,7.07,7h0v.15A7.23,7.23,0,0,1,28.55,44.78Z"/><path class="cls-4" d="M34.57,47.93A7.21,7.21,0,1,1,37.17,34h0l-.29.75A6.4,6.4,0,1,0,40.55,43a6.27,6.27,0,0,0-3.41-8.18H37l.29-.76a7.07,7.07,0,0,1,4,9.15v.13A7.26,7.26,0,0,1,34.57,47.93Z"/><rect class="cls-5" x="74.1" y="27.57" width="21.2" height="22.27"/><path class="cls-4" d="M95.3,50.34H74.1a.51.51,0,0,1-.5-.5V22.33a.5.5,0,0,1,.5-.5H95.3a.5.5,0,0,1,.5.5V49.84A.51.51,0,0,1,95.3,50.34Zm-20.7-1H94.8V22.83H74.57Z"/><rect class="cls-5" x="86.81" y="29.67" width="21.17" height="23.15"/><rect class="cls-4" x="74.22" y="27.34" width="20.82" height="0.57"/><rect class="cls-4" x="87.03" y="29.42" width="20.82" height="0.57"/><path class="cls-4" d="M108.07,53.37H86.87a.52.52,0,0,1-.5-.5V25.36a.5.5,0,0,1,.5-.5h17.7a.48.48,0,0,1,.35.14l3.56,3.55a.43.43,0,0,1,.14.36v24a.5.5,0,0,1-.53.46Zm-20.7-1h20.2V29.11l-3.26-3.25H87.37Z"/><path class="cls-4" d="M56.07,50.53a7.3,7.3,0,0,1-1.14-.09l.16-1a6.44,6.44,0,0,0,1.31.07l.05,1Zm2.74-.5-.35-.94a7.49,7.49,0,0,0,1.22-.56l.49.88A9.29,9.29,0,0,1,58.81,50Zm-6.17-.29a11.94,11.94,0,0,1-1.32-.7l.54-.85a11.24,11.24,0,0,0,1.18.64Zm9.47-1.69-.66-.76a11.8,11.8,0,0,0,1-1l.73.69A13.5,13.5,0,0,1,62.11,48.05ZM49.47,47.5a5.21,5.21,0,0,1-.81-1.36l.93-.36a4,4,0,0,0,.64,1.07Zm15.16-2.31-.82-.56c.25-.38.5-.77.71-1.17l.88.48A10.76,10.76,0,0,1,64.63,45.19Zm-15.2-1.35-1-.22a8.8,8.8,0,0,1,.45-1.43l.93.37A9,9,0,0,0,49.43,43.84Zm16.93-2-1-.32a8.83,8.83,0,0,0,.37-1.31l1,.21a10,10,0,0,1-.46,1.37ZM50.85,40.57l-.9-.43c.2-.42.38-.84.56-1.27l.92.37C51.25,39.69,51.06,40.14,50.85,40.57Zm16.22-2.51-1-.09c0-.45.08-.92.09-1.39h1C67.14,37.1,67.11,37.59,67.07,38.06Zm-14.85-1-.9-.29.44-1.35,1,.31Zm13.88-2.7c0-.47-.12-.93-.2-1.35l1-.21a10.29,10.29,0,0,1,.22,1.46Zm-12.69-.77-.93-.36c.14-.38.3-.76.47-1.14l.1-.2.89.44-.08.17c-.16.43-.31.75-.45,1.11ZM65.23,31l-.12-.23a4.19,4.19,0,0,0-.59-.81l.76-.65a5.84,5.84,0,0,1,.71,1l.14.27Zm-10.09-.4-.74-.64a9.46,9.46,0,0,1,1.11-1l.61.8a6.64,6.64,0,0,0-1,.86ZM58,28.64l-.36-.94a9.55,9.55,0,0,1,1.45-.42l.38-.08.19,1-.35.08a7.8,7.8,0,0,0-1.31.38Zm4.94,0a4.66,4.66,0,0,0-1.22-.43l.21-1a5.68,5.68,0,0,1,1.45.51Z"/><path class="cls-4" d="M59.13,27.16s-.34.92.23,1.38a4.86,4.86,0,0,1,3.54.14,2.34,2.34,0,0,0,.29-1.24A5.91,5.91,0,0,0,59.13,27.16Z"/></g></g></svg>