<svg xmlns="http://www.w3.org/2000/svg" viewBox="0 0 132.26 132.26"><defs><style>.cls-1,.cls-2{fill:#454545;}.cls-1{stroke:#454545;stroke-miterlimit:10;}.cls-2{font-size:21.19px;font-family:KBIZgoH, KBIZgo H;}.cls-3{fill:#666767;}.cls-4{fill:#fff;opacity:0.33;isolation:isolate;}</style></defs><title>O링+군번줄_기본</title><g id="레이어_2" data-name="레이어 2"><g id="레이어_1-2" data-name="레이어 1"><path class="cls-1" d="M66.13,131.76a65.63,65.63,0,1,1,65.63-65.63A65.7,65.7,0,0,1,66.13,131.76Zm0-127.58a61.95,61.95,0,1,0,61.94,62A62,62,0,0,0,66.13,4.18Z"/><text class="cls-2" transform="translate(14.32 78.64)">O링+군번줄<tspan x="22.81" y="25.43">+OPP</tspan></text><path class="cls-3" d="M28.56,44.78a7.22,7.22,0,0,1,0-14.43v.81A6.41,6.41,0,1,0,35,37.57h0a6.26,6.26,0,0,0-6.13-6.39h-.13v-.82a7.07,7.07,0,0,1,7.07,7h0v.15A7.25,7.25,0,0,1,28.56,44.78Z"/><path class="cls-3" d="M34.58,47.93A7.13,7.13,0,0,1,32,47.45,7.21,7.21,0,1,1,37.18,34h0l-.29.75A6.4,6.4,0,1,0,40.56,43a6.28,6.28,0,0,0-3.41-8.18H37l.29-.76a7.08,7.08,0,0,1,4,9.15v.13A7.27,7.27,0,0,1,34.58,47.93Z"/><rect class="cls-4" x="74.11" y="27.57" width="21.2" height="22.27"/><path class="cls-3" d="M95.31,50.34H74.11a.5.5,0,0,1-.5-.5V22.33a.5.5,0,0,1,.5-.5h21.2a.5.5,0,0,1,.5.5V49.84A.52.52,0,0,1,95.31,50.34Zm-20.7-1h20.2V22.83H74.58Z"/><rect class="cls-4" x="86.82" y="29.67" width="21.17" height="23.15"/><rect class="cls-3" x="74.23" y="27.34" width="20.82" height="0.57"/><rect class="cls-3" x="87.04" y="29.42" width="20.82" height="0.57"/><path class="cls-3" d="M108.08,53.37H86.88a.51.51,0,0,1-.5-.5V25.36a.5.5,0,0,1,.5-.5h17.7a.52.52,0,0,1,.35.14l3.56,3.55a.51.51,0,0,1,.14.36v24a.52.52,0,0,1-.54.46Zm-20.7-1h20.2V29.11l-3.26-3.25H87.38Z"/><path class="cls-3" d="M56.08,50.53a7.11,7.11,0,0,1-1.14-.09l.16-1a6.36,6.36,0,0,0,1.31.07l.05,1Zm2.74-.5-.35-.94a7.9,7.9,0,0,0,1.22-.56l.49.88A10.36,10.36,0,0,1,58.82,50Zm-6.17-.29a10.38,10.38,0,0,1-1.32-.7l.54-.85a9.54,9.54,0,0,0,1.18.64Zm9.47-1.69-.66-.76c.35-.32.68-.65,1-1l.73.69C62.85,47.35,62.49,47.71,62.12,48.05ZM49.48,47.5a4.72,4.72,0,0,1-.81-1.36l.93-.36a3.54,3.54,0,0,0,.64,1.07Zm15.16-2.31-.82-.56c.25-.38.5-.77.71-1.17l.88.48A14.44,14.44,0,0,1,64.64,45.19Zm-15.2-1.35-1-.22a7.2,7.2,0,0,1,.45-1.43l.93.37A7,7,0,0,0,49.44,43.84Zm16.93-2-1-.32a12.16,12.16,0,0,0,.37-1.31l1,.21a13.77,13.77,0,0,1-.46,1.37ZM50.86,40.57l-.9-.43c.2-.42.38-.84.56-1.27l.92.37C51.26,39.69,51.07,40.14,50.86,40.57Zm16.22-2.51-1-.09c0-.45.08-.92.09-1.39h1C67.15,37.1,67.12,37.59,67.08,38.06Zm-14.85-1-.9-.29.44-1.35,1,.31Zm13.88-2.7c0-.47-.12-.93-.2-1.35l1-.21a14.28,14.28,0,0,1,.22,1.46Zm-12.69-.77-.93-.36c.14-.38.3-.76.47-1.14l.1-.2.89.44-.08.17c-.16.43-.31.75-.45,1.11ZM65.24,31l-.12-.23a5.24,5.24,0,0,0-.59-.81l.76-.65a6.45,6.45,0,0,1,.71,1l.14.27Zm-10.09-.4-.74-.64a8.09,8.09,0,0,1,1.11-1l.61.8a5.75,5.75,0,0,0-1,.86ZM58,28.64l-.36-.94a8.93,8.93,0,0,1,1.45-.42l.38-.08.19,1-.35.08a7.3,7.3,0,0,0-1.31.38Zm4.94,0a4.93,4.93,0,0,0-1.22-.43l.21-1a6.25,6.25,0,0,1,1.45.51Z"/><path class="cls-3" d="M59.14,27.16s-.34.92.23,1.38a4.87,4.87,0,0,1,3.54.14,2.44,2.44,0,0,0,.29-1.24A5.92,5.92,0,0,0,59.14,27.16Z"/></g></g></svg>