<svg xmlns="http://www.w3.org/2000/svg" viewBox="0 0 132.26 132.26"><defs><style>.cls-1,.cls-3{fill:#9b9b9b;}.cls-1{stroke:#9b9b9b;stroke-miterlimit:10;}.cls-2{fill:#666767;}.cls-3{font-size:21.19px;font-family:KBIZgoH, KBIZgo H;}.cls-4{fill:#fff;opacity:0.33;isolation:isolate;}</style></defs><title>O링_모션</title><g id="레이어_2" data-name="레이어 2"><g id="레이어_1-2" data-name="레이어 1"><path class="cls-1" d="M66.13,131.76a65.63,65.63,0,1,1,65.63-65.63A65.7,65.7,0,0,1,66.13,131.76Zm0-127.58a61.95,61.95,0,1,0,61.94,62A62,62,0,0,0,66.13,4.18Z"/><path class="cls-2" d="M41.56,43.81a7.22,7.22,0,0,1,0-14.43v.81A6.41,6.41,0,1,0,48,36.6h0a6.26,6.26,0,0,0-6.13-6.39h-.13v-.82a7.07,7.07,0,0,1,7.07,7h0v.15A7.25,7.25,0,0,1,41.56,43.81Z"/><path class="cls-2" d="M47.58,47A7.13,7.13,0,0,1,45,46.48,7.21,7.21,0,1,1,50.18,33h0l-.29.75a6.4,6.4,0,1,0,3.67,8.28,6.28,6.28,0,0,0-3.41-8.18H50l.29-.76a7.08,7.08,0,0,1,4,9.15v.13A7.26,7.26,0,0,1,47.58,47Z"/><text class="cls-3" transform="translate(32.02 79.64)">O링만+<tspan x="12.4" y="25.43">OPP</tspan></text><rect class="cls-4" x="61.77" y="26.56" width="21.2" height="22.27"/><path class="cls-2" d="M83,49.33H61.77a.5.5,0,0,1-.5-.5V21.32a.51.51,0,0,1,.5-.5H83a.5.5,0,0,1,.5.5V48.83A.5.5,0,0,1,83,49.33Zm-20.7-1h20.2V21.82H62.24Z"/><rect class="cls-4" x="74.48" y="28.66" width="21.17" height="23.15"/><rect class="cls-2" x="61.89" y="26.33" width="20.82" height="0.57"/><rect class="cls-2" x="74.7" y="28.41" width="20.82" height="0.57"/><path class="cls-2" d="M95.74,52.36H74.54a.51.51,0,0,1-.5-.5V24.35a.51.51,0,0,1,.5-.5h17.7a.5.5,0,0,1,.35.14l3.56,3.55a.5.5,0,0,1,.14.36v24a.49.49,0,0,1-.53.46Zm-20.7-1h20.2V28.1L92,24.85H75Z"/></g></g></svg>