<svg xmlns="http://www.w3.org/2000/svg" viewBox="0 0 132.26 132.26"><defs><style>.cls-1,.cls-2{fill:#9b9b9b;}.cls-1{stroke:#9b9b9b;stroke-miterlimit:10;}.cls-2{font-size:21.19px;font-family:KBIZgoH, KBIZgo H;}.cls-3{fill:#666767;}.cls-4{fill:#fff;opacity:0.33;isolation:isolate;}</style></defs><title>O링+군번줄_모션</title><g id="레이어_2" data-name="레이어 2"><g id="레이어_1-2" data-name="레이어 1"><path class="cls-1" d="M66.13,131.76a65.63,65.63,0,1,1,65.63-65.63A65.7,65.7,0,0,1,66.13,131.76Zm0-127.58a61.95,61.95,0,1,0,61.94,62A62,62,0,0,0,66.13,4.18Z"/><text class="cls-2" transform="translate(14.32 78.64)">O링+군번줄<tspan x="22.81" y="25.43">+OPP</tspan></text><path class="cls-3" d="M28.55,44.78a7.22,7.22,0,0,1,0-14.43v.81A6.41,6.41,0,1,0,35,37.57h0a6.25,6.25,0,0,0-6.12-6.39H28.7v-.82a7.05,7.05,0,0,1,7.07,7h0v.15A7.23,7.23,0,0,1,28.55,44.78Z"/><path class="cls-3" d="M34.57,47.93A7.21,7.21,0,1,1,37.17,34h0l-.29.75A6.4,6.4,0,1,0,40.55,43a6.27,6.27,0,0,0-3.41-8.18H37l.29-.76a7.07,7.07,0,0,1,4,9.15v.13A7.26,7.26,0,0,1,34.57,47.93Z"/><rect class="cls-4" x="74.1" y="27.57" width="21.2" height="22.27"/><path class="cls-3" d="M95.3,50.34H74.1a.51.51,0,0,1-.5-.5V22.33a.5.5,0,0,1,.5-.5H95.3a.5.5,0,0,1,.5.5V49.84A.51.51,0,0,1,95.3,50.34Zm-20.7-1H94.8V22.83H74.57Z"/><rect class="cls-4" x="86.81" y="29.67" width="21.17" height="23.15"/><rect class="cls-3" x="74.22" y="27.34" width="20.82" height="0.57"/><rect class="cls-3" x="87.03" y="29.42" width="20.82" height="0.57"/><path class="cls-3" d="M108.07,53.37H86.87a.52.52,0,0,1-.5-.5V25.36a.5.5,0,0,1,.5-.5h17.7a.48.48,0,0,1,.35.14l3.56,3.55a.43.43,0,0,1,.14.36v24a.5.5,0,0,1-.53.46Zm-20.7-1h20.2V29.11l-3.26-3.25H87.37Z"/><path class="cls-3" d="M56.07,50.53a7.3,7.3,0,0,1-1.14-.09l.16-1a6.44,6.44,0,0,0,1.31.07l.05,1Zm2.74-.5-.35-.94a7.13,7.13,0,0,0,1.22-.56l.49.88A9.29,9.29,0,0,1,58.81,50Zm-6.17-.29a11.94,11.94,0,0,1-1.32-.7l.54-.85a11.24,11.24,0,0,0,1.18.64Zm9.47-1.69-.66-.76a11.8,11.8,0,0,0,1-1l.73.69A13.5,13.5,0,0,1,62.11,48.05ZM49.47,47.5a5.21,5.21,0,0,1-.81-1.36l.93-.36a4,4,0,0,0,.64,1.07Zm15.16-2.31-.82-.56c.25-.38.5-.77.71-1.17l.88.48A10.76,10.76,0,0,1,64.63,45.19Zm-15.2-1.35-1-.22a8.8,8.8,0,0,1,.45-1.43l.93.37A9,9,0,0,0,49.43,43.84Zm16.93-2-1-.32a8.83,8.83,0,0,0,.37-1.31l1,.21a10,10,0,0,1-.46,1.37ZM50.85,40.57l-.9-.43c.2-.42.38-.84.56-1.27l.92.37C51.25,39.69,51.06,40.14,50.85,40.57Zm16.22-2.51-1-.09c0-.45.08-.92.09-1.39h1C67.14,37.1,67.11,37.59,67.07,38.06Zm-14.85-1-.9-.29.44-1.35,1,.31Zm13.88-2.7c0-.47-.12-.93-.2-1.35l1-.21a10.29,10.29,0,0,1,.22,1.46Zm-12.69-.77-.93-.36c.14-.38.3-.76.47-1.14l.1-.2.89.44-.08.17c-.16.43-.31.75-.45,1.11ZM65.23,31l-.12-.23a4.19,4.19,0,0,0-.59-.81l.76-.65a5.34,5.34,0,0,1,.71,1l.14.27Zm-10.09-.4-.74-.64a9.46,9.46,0,0,1,1.11-1l.61.8a6.64,6.64,0,0,0-1,.86ZM58,28.64l-.36-.94a9.55,9.55,0,0,1,1.45-.42l.38-.08.19,1-.35.08a7.8,7.8,0,0,0-1.31.38Zm4.94,0a4.66,4.66,0,0,0-1.22-.43l.21-1a5.94,5.94,0,0,1,1.45.51Z"/><path class="cls-3" d="M59.13,27.16s-.34.92.23,1.38a4.86,4.86,0,0,1,3.54.14,2.34,2.34,0,0,0,.29-1.24A5.91,5.91,0,0,0,59.13,27.16Z"/></g></g></svg>