<svg xmlns="http://www.w3.org/2000/svg" viewBox="0 0 132.26 132.26"><defs><style>.cls-1,.cls-2{fill:#454545;}.cls-1{stroke:#454545;stroke-miterlimit:10;}.cls-2{font-size:21.19px;font-family:KBIZgoH, KBIZgo H;}.cls-3,.cls-5{fill:#fff;}.cls-3{opacity:0.33;isolation:isolate;}.cls-4{fill:#666767;}.cls-5{opacity:0.5;}</style></defs><title>군번줄_확정_3</title><g id="레이어_2" data-name="레이어 2"><g id="레이어_1-2" data-name="레이어 1"><path class="cls-1" d="M66.13,131.76a65.63,65.63,0,1,1,65.63-65.63A65.7,65.7,0,0,1,66.13,131.76Zm0-127.58a61.95,61.95,0,1,0,61.94,62A62,62,0,0,0,66.13,4.18Z"/><text class="cls-2" transform="translate(31.51 79.64)">군번줄+<tspan x="12.91" y="25.43">OPP</tspan></text><rect class="cls-3" x="61.77" y="26.56" width="21.2" height="22.27"/><path class="cls-4" d="M83,49.33H61.77a.5.5,0,0,1-.5-.5V21.32a.51.51,0,0,1,.5-.5H83a.5.5,0,0,1,.5.5V48.83A.5.5,0,0,1,83,49.33Zm-20.7-1h20.2V21.82H62.24Z"/><rect class="cls-3" x="74.48" y="28.66" width="21.17" height="23.15"/><rect class="cls-4" x="61.89" y="26.33" width="20.82" height="0.57"/><rect class="cls-4" x="74.7" y="28.41" width="20.82" height="0.57"/><path class="cls-4" d="M95.74,52.36H74.54a.51.51,0,0,1-.5-.5V24.35a.51.51,0,0,1,.5-.5h17.7a.5.5,0,0,1,.35.14l3.56,3.55a.46.46,0,0,1,.14.36v24a.49.49,0,0,1-.53.46Zm-20.7-1h20.2V28.1L92,24.85H75Z"/><path class="cls-4" d="M43.34,49.28a7.2,7.2,0,0,1-1.14-.09l.16-1a6.36,6.36,0,0,0,1.31.07l0,1Zm2.74-.5-.35-.94A7.9,7.9,0,0,0,47,47.28l.49.88A9.79,9.79,0,0,1,46.08,48.78Zm-6.17-.29a9.25,9.25,0,0,1-1.32-.7l.54-.85a10.32,10.32,0,0,0,1.18.64Zm9.47-1.69L48.72,46a13.48,13.48,0,0,0,1-1l.73.69C50.11,46.11,49.75,46.46,49.38,46.8Zm-12.64-.55a4.46,4.46,0,0,1-.81-1.36l.93-.36a3.76,3.76,0,0,0,.64,1.07ZM51.9,43.94l-.82-.56c.25-.38.5-.77.71-1.17l.88.48A12.33,12.33,0,0,1,51.9,43.94ZM36.7,42.59l-1-.22a8.8,8.8,0,0,1,.45-1.43l.93.37A8.18,8.18,0,0,0,36.7,42.59Zm16.93-2-1-.32A9.79,9.79,0,0,0,53.05,39l1,.21a13,13,0,0,1-.46,1.37ZM38.12,39.32l-.9-.43c.2-.42.38-.84.56-1.27l.92.37C38.52,38.44,38.33,38.89,38.12,39.32Zm16.22-2.51-1-.09c0-.45.08-.92.09-1.39h1C54.41,35.85,54.38,36.34,54.34,36.81Zm-14.85-1-.9-.29L39,34.17l1,.31Zm13.88-2.7c0-.47-.12-.93-.2-1.35l1-.21A14.28,14.28,0,0,1,54.39,33Zm-12.69-.77L39.75,32c.14-.38.3-.76.47-1.14l.1-.2.89.44-.08.17c-.16.43-.31.75-.45,1.11ZM52.5,29.72l-.12-.23a5.24,5.24,0,0,0-.59-.81l.76-.65a5.84,5.84,0,0,1,.71,1l.14.27Zm-10.09-.4-.74-.64a8.8,8.8,0,0,1,1.11-1l.61.8a5.75,5.75,0,0,0-1,.86Zm2.82-1.93-.36-.94A8.93,8.93,0,0,1,46.32,26L46.7,26l.19,1-.35.08a8.22,8.22,0,0,0-1.31.38Zm4.94,0A4.93,4.93,0,0,0,49,27l.21-1a6.25,6.25,0,0,1,1.45.51Z"/><path class="cls-4" d="M46.4,25.91s-.34.92.23,1.38a4.87,4.87,0,0,1,3.54.14,2.34,2.34,0,0,0,.29-1.24A6,6,0,0,0,46.4,25.91Z"/><ellipse class="cls-5" cx="66.13" cy="66.13" rx="61.54" ry="61.44"/></g></g></svg>