<svg xmlns="http://www.w3.org/2000/svg" viewBox="0 0 85.5 69.5"><defs><style>.cls-1{fill:#454545;}.cls-2,.cls-3{fill:#fff;}.cls-3{font-size:13.76px;font-family:KBIZgoH, KBIZgo H;}</style></defs><title>업로드전</title><g id="레이어_2" data-name="레이어 2"><g id="레이어_1-2" data-name="레이어 1"><path class="cls-1" d="M79.83,4.5H32.92V2.83A2.85,2.85,0,0,0,30.08,0H8A2.84,2.84,0,0,0,5.17,2.83v1.7A5.68,5.68,0,0,0,0,10.17V54.83A5.68,5.68,0,0,0,5.67,60.5H79.83a5.68,5.68,0,0,0,5.67-5.67V10.17A5.68,5.68,0,0,0,79.83,4.5Z"/><rect class="cls-2" y="10" width="85.5" height="56" rx="5.67" ry="5.67"/><rect class="cls-1" y="13.5" width="85.5" height="56" rx="5.67" ry="5.67"/><text class="cls-3" transform="translate(9.79 44.17)">도안 업로드</text></g></g></svg>