<svg xmlns="http://www.w3.org/2000/svg" viewBox="0 0 85.67 75.6"><defs><style>.cls-1{fill:#454545;}.cls-2,.cls-3{fill:#fff;}.cls-3{font-size:13.76px;font-family:KBIZgoH, KBIZgo H;}</style></defs><title>업로드후</title><g id="레이어_2" data-name="레이어 2"><g id="레이어_1-2" data-name="레이어 1"><path class="cls-1" d="M80,11.6H33.08V9.93A2.83,2.83,0,0,0,30.25,7.1H8.17A2.84,2.84,0,0,0,5.33,9.93v1.69A5.69,5.69,0,0,0,.17,17.27V61.93A5.68,5.68,0,0,0,5.84,67.6H80a5.68,5.68,0,0,0,5.67-5.67V17.27A5.68,5.68,0,0,0,80,11.6Z"/><rect class="cls-1" x="0.17" y="19.6" width="85.5" height="56" rx="5.67" ry="5.67"/><path class="cls-2" d="M73.59,1.05a1.46,1.46,0,0,0-1.86-1l-61,20.11L84.05,36.5Z"/><path class="cls-1" d="M79.83,75.6a5.68,5.68,0,0,0,5.67-5.67V41.11L51,75.6Z"/><path class="cls-1" d="M5.67,19.6A5.68,5.68,0,0,0,0,25.27V47.42L27.82,19.6Z"/><path class="cls-1" d="M85.5,25.27a5.68,5.68,0,0,0-5.67-5.67h-1l6.63,6.62Z"/><polygon class="cls-1" points="78.87 19.6 27.82 19.6 0 47.42 0 61.64 13.96 75.6 51.02 75.6 85.5 41.11 85.5 26.22 78.87 19.6"/><text class="cls-3" transform="translate(9.4 44.01)">도안 업로드<tspan x="20.08" y="16.51">완료</tspan></text></g></g></svg>