<svg xmlns="http://www.w3.org/2000/svg" viewBox="0 0 48.67 52.09"><defs><style>.cls-1{fill:#898989;}</style></defs><title>전화기_2</title><g id="레이어_2" data-name="레이어 2"><g id="레이어_1-2" data-name="레이어 1"><path class="cls-1" d="M6.91,1.61C8.86.09,11.13-.73,13.06.88c2.71,2.79,7.33,8.46,6,12.62-1,2.95-3.79,3.52-5.6,5.6-2.42,2.79.18,7,1.92,9.36a56.69,56.69,0,0,0,6.21,7c1.87,1.82,4.57,3.77,7.34,3,2.08-.6,3.13-2.57,4.76-3.83,3-2.33,6-1,8.76,1.12,2.42,1.89,7.92,5.51,5.74,9.26-4.3,7.37-14.69,8.53-21.91,5.6-6.74-2.73-12.51-8.36-17.12-13.85S.71,24.61.07,17.31v0A17.91,17.91,0,0,1,3.12,5.75,19.23,19.23,0,0,1,6.91,1.61Z"/></g></g></svg>