<svg xmlns="http://www.w3.org/2000/svg" viewBox="0 0 112 47"><defs><style>.cls-1{fill:#7287b4;}.cls-2{font-size:19.69px;font-family:KBIZgoH, KBIZgo H;}.cls-2,.cls-3{fill:#fff;}</style></defs><title>회원가입</title><g id="레이어_2" data-name="레이어 2"><g id="레이어_1-2" data-name="레이어 1"><rect class="cls-1" width="112" height="47" rx="5.67" ry="5.67"/><text class="cls-2" transform="translate(33.22 29.07)">회원가입</text><path class="cls-3" d="M17.38,26.16A7.13,7.13,0,1,1,24.5,19,7.14,7.14,0,0,1,17.38,26.16Zm0-13.25A6.13,6.13,0,1,0,23.5,19,6.14,6.14,0,0,0,17.38,12.91Z"/><path class="cls-3" d="M7.5,35.09,6.5,35c.89-8.26,4.8-11,5-11.11l.56.83-.28-.41.28.41S8.33,27.33,7.5,35.09Z"/><path class="cls-3" d="M27,35.09,28,35c-.89-8.26-4.8-11-5-11.11l-.57.83.29-.41-.29.41S26.2,27.33,27,35.09Z"/></g></g></svg>